<?xml version="1.0" encoding="UTF-8"?><svg id="uuid-3c0253f1-821d-4fe6-994b-e283b9a09353" xmlns="http://www.w3.org/2000/svg" xmlns:xlink="http://www.w3.org/1999/xlink" viewBox="0 0 1921.55 2049.82"><defs><style>.uuid-aa61c308-57ea-4ed1-b9db-402560f33c9e{fill:url(#uuid-a3d493f3-9b8e-4be3-80f8-b9675ec1537a);}.uuid-7ff26476-1a2f-4448-8045-c8c33ec06896{fill:url(#uuid-fb245d04-428e-4c4f-97c9-465f83a7156b);}.uuid-09ac4ec5-7fea-446c-a5ee-8418b21446c7{fill:url(#uuid-94ce4612-408e-45c7-93b7-6258d7406f3f);}.uuid-42ca894b-047c-45bb-b82e-a776ce8d154c{clip-path:url(#uuid-1b876946-e910-4c20-993f-8f967a9e777c);}.uuid-42ca894b-047c-45bb-b82e-a776ce8d154c,.uuid-c0ca1791-63c3-448d-aa76-fd154dc3aa5c,.uuid-28170169-3a34-48cc-9cae-861e169d8734,.uuid-8bb77fb2-f8fc-49ff-92f4-a1ed7a352656,.uuid-8f584072-2a9b-451c-85a4-7f7349ec7a46,.uuid-ec6e3516-f99b-4a16-80eb-d6c8b78ca98d,.uuid-b7a75f7f-20a8-4ece-85fd-ae0350f71643,.uuid-087af7a3-01b9-4174-8607-25e039d6257a,.uuid-20bdc8a4-6bc4-4c90-80b0-90625d279829,.uuid-a2ba5cf2-6dcb-455b-a3be-0fa462618df7,.uuid-e14ad9f0-dfea-4880-917c-7ca112dc9da3,.uuid-1bb8efa5-94ab-4636-b558-ab43aafacd58,.uuid-554ca39c-9916-48af-a025-d76a5f1f6cde,.uuid-8423b32f-c24f-421c-9174-e3fcd1e027fb,.uuid-934325d8-81ed-4248-bb74-853bbf7315d1,.uuid-c49f18be-ea24-4910-ba43-5504087cbb63,.uuid-2d08a4f2-aff7-4eb3-830a-6e271935bfbb,.uuid-e705e4f8-5c5e-404b-9489-7b8143dd82c6,.uuid-2dbbc5e1-a0c0-4756-bf43-dc2268174218,.uuid-ba3f0971-0e76-4fbc-9f49-4f418d7d304d,.uuid-6d078844-5eaf-4d07-a4d1-f055d953ec10,.uuid-9a07e0df-017d-4d73-b919-7522a282356a,.uuid-75130a92-4b47-4d5b-9688-dfc4ef6ed84d,.uuid-584bb0e7-f687-4ff8-95a7-2c273c4832f0,.uuid-acc715d7-2131-4970-8e5b-8b4740eb6cdf,.uuid-dbe4d9e7-6b6b-4aba-9508-580500398fe1,.uuid-23153c14-9407-400a-9272-ed6e49ce12b6,.uuid-94f609ff-f812-4335-be4e-b5e3cf62a741,.uuid-df02e7dd-ec80-4b02-82bc-0174e7922b4c,.uuid-967613cb-85da-4a10-a5d9-061293c67424,.uuid-87285ae1-36cf-4ce3-baa0-e3f9798065dc,.uuid-acbab6a4-3914-4d15-bcef-ee41c323cfd8,.uuid-31181a86-a184-4b86-8a44-f8cd9822f9e2,.uuid-e886da9f-2869-4856-afc5-5e74e07b8dbc,.uuid-42f8e7bc-f398-449a-8d94-95f73edd7deb,.uuid-779390fc-3cf4-4072-a6b5-78c1b2624516,.uuid-83587fee-7750-4719-8c56-8154a5745afa,.uuid-d7ee1d37-e811-4075-a935-cc5491df4a58{fill:none;}.uuid-90e2e944-1201-43ff-af25-7d488c236773{fill:url(#uuid-359a8a09-6a2b-4560-9a36-8cb60b9f24f1);}.uuid-c0ca1791-63c3-448d-aa76-fd154dc3aa5c{mask:url(#uuid-145fb8d1-8b3e-469b-beaa-eb33aa35b088);}.uuid-28170169-3a34-48cc-9cae-861e169d8734{clip-path:url(#uuid-ad4bd56a-7a52-405d-b095-3fda56b1fc70);}.uuid-da310b36-be3b-4dd9-91c0-0e5bae7543d9{fill:url(#uuid-7969b749-70cc-4b8b-9de1-0fb086c99d58);}.uuid-d8846f5f-4477-4852-a32d-afce1ae8f209{fill:#fce2a6;}.uuid-d8846f5f-4477-4852-a32d-afce1ae8f209,.uuid-2fd78714-f9d0-41dd-b9a4-d52b7835475e,.uuid-5051a8cb-c089-4a8e-9d39-c909a6b5b800,.uuid-06eb1440-9102-46a4-889d-cef3d5a8f2d0{fill-rule:evenodd;}.uuid-8bb77fb2-f8fc-49ff-92f4-a1ed7a352656{mask:url(#uuid-dc9b0968-9041-43bb-bdb5-6bcad615ae6a);}.uuid-8f584072-2a9b-451c-85a4-7f7349ec7a46{clip-path:url(#uuid-ae45f921-eb1c-4ac9-844c-b6401b29dba0);}.uuid-680ddc40-2128-4273-95a3-6ba9abb5cb1e{fill:url(#uuid-2efcc4e3-a273-4fc5-902b-4b2cff87a579);}.uuid-ec6e3516-f99b-4a16-80eb-d6c8b78ca98d{clip-path:url(#uuid-e744b6c7-0a4b-4307-b3d6-46fcfb1d24f1);}.uuid-9ed1afe8-f691-4844-a0e8-969537851c0f{fill:url(#uuid-4fbe35a0-5d13-4a13-974a-7880aefc8d2c);}.uuid-b7a75f7f-20a8-4ece-85fd-ae0350f71643{mask:url(#uuid-a7a4ce42-570c-44a7-9317-d3e4e9929208);}.uuid-087af7a3-01b9-4174-8607-25e039d6257a{clip-path:url(#uuid-1697891a-f090-4390-bda9-5f7694c8e1f0);}.uuid-9a96086b-5f28-4aa3-bb98-5c79fd6ac3f6{fill:url(#uuid-e75d7b4d-d91d-452a-8590-8522aff61062);}.uuid-20bdc8a4-6bc4-4c90-80b0-90625d279829{clip-path:url(#uuid-d390ab5d-7096-4fea-9035-fee2d08d77b0);}.uuid-04cb1fc1-975d-4bde-9515-85dfafea835e{fill:url(#uuid-ef3e5d57-216d-4050-bb61-771e86d68499);}.uuid-a2ba5cf2-6dcb-455b-a3be-0fa462618df7{mask:url(#uuid-b7acef2f-573c-4465-9c79-dd10e399b5fb);}.uuid-93a3b341-e25a-4c8d-be9c-04194f566a90{fill:url(#uuid-729fe3fa-a096-4b70-8efc-b3ee52528802);}.uuid-b9181954-12aa-46dc-8cfd-f17dd1735772{fill:url(#uuid-92e25169-3d14-42a6-a356-e85027a714bd);}.uuid-e14ad9f0-dfea-4880-917c-7ca112dc9da3{clip-path:url(#uuid-b0312f3e-5d73-47f3-be24-78d75e47f540);}.uuid-1bb8efa5-94ab-4636-b558-ab43aafacd58{clip-path:url(#uuid-16bcc56f-a38e-4096-aa38-4242b4eeefb7);}.uuid-554ca39c-9916-48af-a025-d76a5f1f6cde{clip-path:url(#uuid-3edaeecf-b919-4b26-82b8-fece270cbc0d);}.uuid-2fd78714-f9d0-41dd-b9a4-d52b7835475e{fill:#5ef9f6;}.uuid-8423b32f-c24f-421c-9174-e3fcd1e027fb{clip-path:url(#uuid-18c9d531-db90-46bf-8c40-a2ec354ab23a);}.uuid-934325d8-81ed-4248-bb74-853bbf7315d1{clip-path:url(#uuid-93575716-d30c-4a81-9dd9-e916cb2b88f1);}.uuid-c031799a-f7ef-406a-b962-db3cc70534a4{fill:url(#uuid-53400f1f-c8b5-47d3-9ca6-d314fb76e0b6);}.uuid-c49f18be-ea24-4910-ba43-5504087cbb63{mask:url(#uuid-117de9f5-34d8-4018-83a2-00894a068738);}.uuid-4dd88294-5046-408d-9419-7fd424eb4fa5{fill:url(#uuid-13753280-ff3c-4d8f-9f3f-ec4fda0d3069);}.uuid-3bf8b3cc-21f1-48a1-b044-8f7eef4ca031{fill:url(#uuid-a0008eb2-7bda-42ab-9d3b-1fff38c12e74);}.uuid-2d08a4f2-aff7-4eb3-830a-6e271935bfbb{mask:url(#uuid-6d0439ef-4051-492e-a167-165cd137f1a9);}.uuid-b60f2628-f1c7-4330-a91f-a2d133e4a6d4{fill:url(#uuid-85f594a6-78c2-481e-8130-2d3c6c6eda04);}.uuid-1118faa7-1cfa-4019-a2a3-8db0ccb34e2c{fill:url(#uuid-511c21f0-ffc2-41c0-864c-abb8cf27a181);}.uuid-a78c3fdc-e65b-4be7-afbc-762bc2a1d9d7{fill:url(#uuid-c8547a2a-292a-4078-8f7a-af3c1c75f313);}.uuid-e705e4f8-5c5e-404b-9489-7b8143dd82c6{mask:url(#uuid-8ac07ff1-2682-44f0-bdf1-af9773c9d313);}.uuid-4e4aa261-2f30-4b08-a7ab-0b60c1e8eda7{fill:url(#uuid-76908eab-efb7-433f-8b24-65501d64dbc6);}.uuid-36a99b55-263b-47e9-ae47-a218e3d8efae{fill:url(#uuid-d21ff55c-4cae-421f-b97e-2ddd79ce7aa9);}.uuid-72e0ce20-24d8-4a63-b5e3-178483712ad0{fill:url(#uuid-ec7da438-80bc-4923-bebd-8e48b69ce274);}.uuid-34220dc3-10fb-410d-aa20-b8a029fac725{fill:url(#uuid-fb385be4-e728-4836-b27b-bf768eb530ff);}.uuid-bfda76e1-cec1-4ca2-b4a8-96937085932f{fill:url(#uuid-1401f06c-fc71-47fa-a30e-57323a0af1fe);}.uuid-2dbbc5e1-a0c0-4756-bf43-dc2268174218{clip-path:url(#uuid-c7693c6f-f03f-480c-a77e-32a7c6af035d);}.uuid-ba3f0971-0e76-4fbc-9f49-4f418d7d304d{mask:url(#uuid-bfd85e7c-94ee-4969-a3df-a0a7ea0a9986);}.uuid-fa547d9c-2f77-40b9-9eae-8f44badb67d7{fill:url(#uuid-3f738200-de3c-4aa6-aeb2-3b23aa0f7ee2);}.uuid-a5486cc5-4eec-4ab0-8b8f-3a85f745d805{fill:url(#uuid-b6de7154-f8a8-4a49-80f7-7c432def5d32);}.uuid-5051a8cb-c089-4a8e-9d39-c909a6b5b800{fill:#005b50;}.uuid-6d078844-5eaf-4d07-a4d1-f055d953ec10{mask:url(#uuid-76f0874e-c7ab-4463-bb83-3556cc101cc8);}.uuid-9a07e0df-017d-4d73-b919-7522a282356a{mask:url(#uuid-b4dd7f76-2ebc-4554-b829-9dd06ff73863);}.uuid-75130a92-4b47-4d5b-9688-dfc4ef6ed84d{mask:url(#uuid-c2328a1b-ac6b-40db-afec-b36e3a7eaf42);}.uuid-1cafeaf9-94a4-4c30-b65d-0d70ffd1cd49{fill:url(#uuid-a55e2769-ff93-4d5a-8e75-b6076d17a061);}.uuid-584bb0e7-f687-4ff8-95a7-2c273c4832f0{clip-path:url(#uuid-f6bbd43a-9b9e-48c0-8fc3-6e1ef9dea295);}.uuid-acc715d7-2131-4970-8e5b-8b4740eb6cdf{clip-path:url(#uuid-67ac77c6-c8da-46b7-ab20-53ee6bef3fb5);}.uuid-dbe4d9e7-6b6b-4aba-9508-580500398fe1{clip-path:url(#uuid-77778423-24a7-4583-b5d3-f15c7aaffe7e);}.uuid-23153c14-9407-400a-9272-ed6e49ce12b6{clip-rule:evenodd;}.uuid-f827fffd-b56e-44a8-9483-9241751de056{fill:url(#uuid-8b7528c6-5a9d-4073-a601-a8cc96936f26);}.uuid-94f609ff-f812-4335-be4e-b5e3cf62a741{clip-path:url(#uuid-b595d199-f028-48b6-919f-20cdfc431995);}.uuid-fb209e8e-9ffd-4ace-84d0-8f9d716784b1{fill:url(#uuid-d9214f09-46e3-4fad-8862-04eaa69892d1);}.uuid-f4633ad1-1188-47fb-817f-cdcea32321c6{fill:url(#uuid-99c473d3-0995-42f8-9ee5-d2e99599e60a);}.uuid-c07e8fcb-b3b4-47b1-8e03-ceebf0d72ddb{fill:url(#uuid-41e23202-9850-4a72-b465-9fe7e4e34dfa);}.uuid-19e1dcc8-e799-4c29-b725-f289607caeb1{fill:url(#uuid-ff277e9b-f0d6-4dff-abbe-9a78cda7b011);}.uuid-df02e7dd-ec80-4b02-82bc-0174e7922b4c{mask:url(#uuid-4b2224f5-6598-4010-a5fd-1926af2cac40);}.uuid-06eb1440-9102-46a4-889d-cef3d5a8f2d0{fill:#003780;}.uuid-967613cb-85da-4a10-a5d9-061293c67424{clip-path:url(#uuid-9d685657-0072-455b-86b3-5def008f8216);}.uuid-1f27a040-0f3a-4ff3-8b26-8099bcee318a{fill:url(#uuid-858b0daa-615b-40ff-8254-2b11fe001fc3);}.uuid-87285ae1-36cf-4ce3-baa0-e3f9798065dc{clip-path:url(#uuid-43f60249-dd84-496e-9604-98e3074acd04);}.uuid-acbab6a4-3914-4d15-bcef-ee41c323cfd8{clip-path:url(#uuid-b6704aba-f3a5-46ea-a562-d244bfd5d250);}.uuid-31181a86-a184-4b86-8a44-f8cd9822f9e2{mask:url(#uuid-3ec670cf-fe1a-4e7f-be45-a8795c11e20f);}.uuid-e886da9f-2869-4856-afc5-5e74e07b8dbc{clip-path:url(#uuid-5e9c8491-88ef-404a-af2e-d9bac4b5fe8e);}.uuid-b48d0222-0c30-41fa-b037-e29c57d9b4f8{fill:url(#uuid-a1e6a244-7fc6-4df6-99a8-413a11716c82);}.uuid-6495a216-dc51-41b3-a952-5e157b157901{fill:url(#uuid-541b64da-be59-4b85-95b9-cdd31097b818);}.uuid-42f8e7bc-f398-449a-8d94-95f73edd7deb{clip-path:url(#uuid-ec573d3a-4123-4b26-9643-1a96e983715f);}.uuid-97b54268-6312-485c-97ec-1766c4984556{fill:url(#uuid-9b08517f-0d42-4f5e-99c8-bd1cff46e47d);}.uuid-68cf4bc6-66ee-404a-8bd2-e1a5c68113b0{fill:url(#uuid-2a3b9a79-e78a-43ef-b975-8f6f5e16b791);}.uuid-779390fc-3cf4-4072-a6b5-78c1b2624516{mask:url(#uuid-aa8bc105-9a45-4782-9d90-1be7859da4a7);}.uuid-83587fee-7750-4719-8c56-8154a5745afa{clip-path:url(#uuid-bb538708-a5bc-4a92-8eee-aec25b080e9c);}.uuid-1e157572-bcf4-4681-9e21-aaba40d6ba17{fill:url(#uuid-5c3e9972-68d9-4f75-b55e-e86c94ff53b8);}.uuid-d7ee1d37-e811-4075-a935-cc5491df4a58{mask:url(#uuid-3c529bc1-bd6c-4630-914a-ecfa056da317);}.uuid-db022027-a72e-489e-beb3-faf1b008237b{fill:url(#uuid-3810b22b-2ad0-47c4-9e8e-2d50b64b1676);}</style><clipPath id="uuid-ec573d3a-4123-4b26-9643-1a96e983715f"><path class="uuid-23153c14-9407-400a-9272-ed6e49ce12b6" d="m1193.29,953.93l-229.21,55.75c82.08,76.77,253.64,44.91,360.57-2.74-7.14-26.86-11.98-54.05-14.85-81.34l-116.51,28.34Z"/></clipPath><linearGradient id="uuid-53400f1f-c8b5-47d3-9ca6-d314fb76e0b6" x1="1171.09" y1="1048.92" x2="1042.16" y2="841.96" gradientUnits="userSpaceOnUse"><stop offset="0" stop-color="#008a80"/><stop offset="1" stop-color="#ebf855"/></linearGradient><linearGradient id="uuid-1401f06c-fc71-47fa-a30e-57323a0af1fe" x1="-129.07" y1="3645.49" x2="-1128" y2="3293.07" gradientTransform="translate(1567.24 -2569.39)" gradientUnits="userSpaceOnUse"><stop offset="0" stop-color="#fff"/><stop offset="1" stop-color="#000"/></linearGradient><mask id="uuid-b4dd7f76-2ebc-4554-b829-9dd06ff73863" x="964.08" y="925.59" width="349.19" height="89.69" maskUnits="userSpaceOnUse"><rect class="uuid-bfda76e1-cec1-4ca2-b4a8-96937085932f" x="964.08" y="925.59" width="349.19" height="89.69"/></mask><clipPath id="uuid-43f60249-dd84-496e-9604-98e3074acd04"><path class="uuid-23153c14-9407-400a-9272-ed6e49ce12b6" d="m1115.44,869.76l-288.64,22.01c95.23,123.64,356.84,101.58,487.67,52.39-5.17-29.48-7.97-59.22-8.78-88.9l-190.25,14.51Z"/></clipPath><linearGradient id="uuid-fb245d04-428e-4c4f-97c9-465f83a7156b" x1="1066.71" y1="936.37" x2="691.95" y2="1034.9" xlink:href="#uuid-53400f1f-c8b5-47d3-9ca6-d314fb76e0b6"/><clipPath id="uuid-93575716-d30c-4a81-9dd9-e916cb2b88f1"><path class="uuid-23153c14-9407-400a-9272-ed6e49ce12b6" d="m1025.16,739.95l-366.11-40.77c99.31,195.82,495.02,217.11,647.15,169.15-1.52-32.45-.64-64.87,2.15-96.84l-283.19-31.54Z"/></clipPath><linearGradient id="uuid-858b0daa-615b-40ff-8254-2b11fe001fc3" x1="910.86" y1="805.76" x2="540.48" y2="795.77" xlink:href="#uuid-53400f1f-c8b5-47d3-9ca6-d314fb76e0b6"/><clipPath id="uuid-18c9d531-db90-46bf-8c40-a2ec354ab23a"><path class="uuid-23153c14-9407-400a-9272-ed6e49ce12b6" d="m989.73,583.75l-400.59-133.8c68.53,259.81,563.43,377.95,717.82,339.98,1.63-25.58,4.5-50.93,8.37-75.82l-7.1-23.98-318.49-106.38Z"/></clipPath><linearGradient id="uuid-e75d7b4d-d91d-452a-8590-8522aff61062" x1="1004.14" y1="649.44" x2="446.07" y2="536.41" xlink:href="#uuid-53400f1f-c8b5-47d3-9ca6-d314fb76e0b6"/><clipPath id="uuid-bb538708-a5bc-4a92-8eee-aec25b080e9c"><path class="uuid-23153c14-9407-400a-9272-ed6e49ce12b6" d="m1037.78,440.71l-361.82-217.87c10.58,276.57,495.42,505,639.98,487.28,3.33-20.79,7.36-41.23,11.88-61.23l-2.39-34.96-287.66-173.22Z"/></clipPath><linearGradient id="uuid-2efcc4e3-a273-4fc5-902b-4b2cff87a579" x1="1117.06" y1="605.56" x2="703.53" y2="137.97" xlink:href="#uuid-53400f1f-c8b5-47d3-9ca6-d314fb76e0b6"/><clipPath id="uuid-b595d199-f028-48b6-919f-20cdfc431995"><path class="uuid-23153c14-9407-400a-9272-ed6e49ce12b6" d="m1121.93,343.37L827.2,77.37c-39.82,256.58,364.86,553.76,502.21,564.47,7.23-30.95,15.66-60.74,24.69-88.92l-232.18-209.55Z"/></clipPath><linearGradient id="uuid-4fbe35a0-5d13-4a13-974a-7880aefc8d2c" x1="1267.61" y1="597.51" x2="798.89" y2="31.08" xlink:href="#uuid-53400f1f-c8b5-47d3-9ca6-d314fb76e0b6"/><clipPath id="uuid-1b876946-e910-4c20-993f-8f967a9e777c"><path class="uuid-23153c14-9407-400a-9272-ed6e49ce12b6" d="m1227.88,281.29L1013.9,0c-74.61,210.77,208.34,523.32,334.09,572.54,9.9-32.79,20.74-63.59,31.65-91.76l-151.75-199.48Z"/></clipPath><linearGradient id="uuid-359a8a09-6a2b-4560-9a36-8cb60b9f24f1" x1="1245.51" y1="552.96" x2="1074.04" y2="21.51" xlink:href="#uuid-53400f1f-c8b5-47d3-9ca6-d314fb76e0b6"/><clipPath id="uuid-67ac77c6-c8da-46b7-ab20-53ee6bef3fb5"><path class="uuid-23153c14-9407-400a-9272-ed6e49ce12b6" d="m1363.29,948.59c-27.09-115.27-30.63-265.4,34.72-443.66l-226.84-298.19s21,189.27,103.24,319.78c0,0-108.81,230.08-53.33,462.39,23.05,96.5,74.44,193.39,173.75,274.32,33.11-12.62,65.43-30.04,96.61-53.55,0,0-88.86-93.87-128.16-261.1"/></clipPath><linearGradient id="uuid-ef3e5d57-216d-4050-bb61-771e86d68499" x1="1288.77" y1="1038.93" x2="1358.34" y2="507.07" gradientUnits="userSpaceOnUse"><stop offset="0" stop-color="#00478f"/><stop offset="1" stop-color="#47eadf"/></linearGradient><linearGradient id="uuid-ff277e9b-f0d6-4dff-abbe-9a78cda7b011" x1="-327.03" y1="2710.89" x2="-208.4" y2="3639.64" gradientTransform="translate(1587.55 -2548.72)" xlink:href="#uuid-1401f06c-fc71-47fa-a30e-57323a0af1fe"/><mask id="uuid-bfd85e7c-94ee-4969-a3df-a0a7ea0a9986" x="1171.18" y="206.75" width="320.27" height="1019.4" maskUnits="userSpaceOnUse"><rect class="uuid-19e1dcc8-e799-4c29-b725-f289607caeb1" x="1171.18" y="206.75" width="320.27" height="1019.4"/></mask><linearGradient id="uuid-ec7da438-80bc-4923-bebd-8e48b69ce274" x1="-123.61" y1="3060.86" x2="-917.41" y2="2780.55" gradientTransform="translate(1553.82 -2615.47)" xlink:href="#uuid-1401f06c-fc71-47fa-a30e-57323a0af1fe"/><mask id="uuid-3c529bc1-bd6c-4630-914a-ecfa056da317" x="827.2" y="77.37" width="446.82" height="467.93" maskUnits="userSpaceOnUse"><rect class="uuid-72e0ce20-24d8-4a63-b5e3-178483712ad0" x="827.2" y="77.38" width="446.82" height="467.93"/></mask><linearGradient id="uuid-76908eab-efb7-433f-8b24-65501d64dbc6" x1="46.23" y1="3264.18" x2="-952.7" y2="2911.75" gradientTransform="translate(1539 -2604.81)" xlink:href="#uuid-1401f06c-fc71-47fa-a30e-57323a0af1fe"/><mask id="uuid-117de9f5-34d8-4018-83a2-00894a068738" x="675.96" y="222.84" width="566.13" height="431.21" maskUnits="userSpaceOnUse"><rect class="uuid-4e4aa261-2f30-4b08-a7ab-0b60c1e8eda7" x="675.96" y="222.84" width="566.13" height="431.21"/></mask><linearGradient id="uuid-729fe3fa-a096-4b70-8efc-b3ee52528802" x1=".78" y1="3409.42" x2="-998.15" y2="3057" gradientTransform="translate(1530.49 -2597.09)" xlink:href="#uuid-1401f06c-fc71-47fa-a30e-57323a0af1fe"/><mask id="uuid-3ec670cf-fe1a-4e7f-be45-a8795c11e20f" x="589.14" y="449.95" width="631.5" height="282.78" maskUnits="userSpaceOnUse"><rect class="uuid-93a3b341-e25a-4c8d-be9c-04194f566a90" x="589.14" y="449.95" width="631.5" height="282.78"/></mask><linearGradient id="uuid-8b7528c6-5a9d-4073-a601-a8cc96936f26" x1="-56.2" y1="3542.47" x2="-1055.03" y2="3190.15" gradientTransform="translate(1537.34 -2588.28)" xlink:href="#uuid-1401f06c-fc71-47fa-a30e-57323a0af1fe"/><mask id="uuid-a7a4ce42-570c-44a7-9317-d3e4e9929208" x="659.05" y="699.18" width="548.32" height="123.47" maskUnits="userSpaceOnUse"><rect class="uuid-f827fffd-b56e-44a8-9483-9241751de056" x="659.05" y="699.18" width="548.32" height="123.47"/></mask><linearGradient id="uuid-3f738200-de3c-4aa6-aeb2-3b23aa0f7ee2" x1="-107.98" y1="3632.51" x2="-1106.91" y2="3280.08" gradientTransform="translate(1553.78 -2577.97)" xlink:href="#uuid-1401f06c-fc71-47fa-a30e-57323a0af1fe"/><mask id="uuid-4b2224f5-6598-4010-a5fd-1926af2cac40" x="826.8" y="879.45" width="382.47" height="48.34" maskUnits="userSpaceOnUse"><rect class="uuid-fa547d9c-2f77-40b9-9eae-8f44badb67d7" x="826.8" y="879.45" width="382.47" height="48.33"/></mask><clipPath id="uuid-c7693c6f-f03f-480c-a77e-32a7c6af035d"><path class="uuid-23153c14-9407-400a-9272-ed6e49ce12b6" d="m838.14,1909.1c175.76-15.86,305.31-331.54,289.83-423.88-14.38.21-28.51-.02-42.27-.59l-247.56,424.47Z"/></clipPath><linearGradient id="uuid-5c3e9972-68d9-4f75-b55e-e86c94ff53b8" x1="804.93" y1="1912.92" x2="971.3" y2="1719.52" gradientUnits="userSpaceOnUse"><stop offset="0" stop-color="#ffce4b"/><stop offset="1" stop-color="#f856bf"/></linearGradient><clipPath id="uuid-b0312f3e-5d73-47f3-be24-78d75e47f540"><path class="uuid-23153c14-9407-400a-9272-ed6e49ce12b6" d="m1000.93,1720.73l-68.86,298.57c188-69.39,236.64-453.83,192.34-550.49-11.72,3.35-23.35,6.38-34.83,9.14l-54.03,92.64-34.62,150.14Z"/></clipPath><linearGradient id="uuid-541b64da-be59-4b85-95b9-cdd31097b818" x1="912.03" y1="1936.83" x2="1064.33" y2="1724.66" xlink:href="#uuid-5c3e9972-68d9-4f75-b55e-e86c94ff53b8"/><clipPath id="uuid-b6704aba-f3a5-46ea-a562-d244bfd5d250"><path class="uuid-23153c14-9407-400a-9272-ed6e49ce12b6" d="m1057,1734.71l6.84,315.11c169.91-116.72,121.19-512.33,52.58-597.51-5.92,3.44-11.83,6.78-17.73,10.03l-45.9,78.69,4.2,193.68Z"/></clipPath><linearGradient id="uuid-b6de7154-f8a8-4a49-80f7-7c432def5d32" x1="1012.34" y1="1893.18" x2="1149.84" y2="1743.94" xlink:href="#uuid-5c3e9972-68d9-4f75-b55e-e86c94ff53b8"/><clipPath id="uuid-d390ab5d-7096-4fea-9035-fee2d08d77b0"><path class="uuid-23153c14-9407-400a-9272-ed6e49ce12b6" d="m1121.5,1709.31l73.18,286.61c130.53-142.79,1.97-494.1-78.84-557.39-2.37,2.23-4.74,4.43-7.12,6.62l-38.03,65.2,50.8,198.96Z"/></clipPath><linearGradient id="uuid-92e25169-3d14-42a6-a356-e85027a714bd" x1="1142.19" y1="1850.18" x2="1206.15" y2="1697.68" xlink:href="#uuid-5c3e9972-68d9-4f75-b55e-e86c94ff53b8"/><clipPath id="uuid-f6bbd43a-9b9e-48c0-8fc3-6e1ef9dea295"><path class="uuid-23153c14-9407-400a-9272-ed6e49ce12b6" d="m1152.67,1651.12l112.75,223.5c81.83-141.81-88.48-408.68-166.8-446.24l-1.38,2.01c7.02,8.47,11.49,14.75,11.49,14.75l-32.15,55.13,76.1,150.85Z"/></clipPath><linearGradient id="uuid-13753280-ff3c-4d8f-9f3f-ec4fda0d3069" x1="1228.86" y1="1766.45" x2="1202.65" y2="1588.76" xlink:href="#uuid-5c3e9972-68d9-4f75-b55e-e86c94ff53b8"/><clipPath id="uuid-1697891a-f090-4390-bda9-5f7694c8e1f0"><path class="uuid-23153c14-9407-400a-9272-ed6e49ce12b6" d="m796.74,1041.21l-397.69,279.24c269.14,107,679.1-217.36,787.7-397.58-29.82-30.76-57.24-63.6-82.4-97.65l-307.61,215.99Z"/></clipPath><linearGradient id="uuid-a1e6a244-7fc6-4df6-99a8-413a11716c82" x1="723.18" y1="1184.59" x2="348.11" y2="1498.05" xlink:href="#uuid-53400f1f-c8b5-47d3-9ca6-d314fb76e0b6"/><clipPath id="uuid-ae45f921-eb1c-4ac9-844c-b6401b29dba0"><path class="uuid-23153c14-9407-400a-9272-ed6e49ce12b6" d="m548.02,734.24L0,834.57c251.86,264.3,930.79,67.03,1058.29-76.68-14.85-23.46-28.7-47.19-41.69-70.93l-32.88-32.49-435.71,79.77Z"/></clipPath><linearGradient id="uuid-c8547a2a-292a-4078-8f7a-af3c1c75f313" x1="760.7" y1="905.43" x2="-56.36" y2="803.94" xlink:href="#uuid-53400f1f-c8b5-47d3-9ca6-d314fb76e0b6"/><clipPath id="uuid-e744b6c7-0a4b-4307-b3d6-46fcfb1d24f1"><path class="uuid-23153c14-9407-400a-9272-ed6e49ce12b6" d="m546.29,564.51l-523.67-5.83c184.57,288.53,844.21,229.22,989.41,119.93-19.87-36.93-37.53-73.75-53.2-109.5l-412.54-4.59Z"/></clipPath><linearGradient id="uuid-94ce4612-408e-45c7-93b7-6258d7406f3f" x1="900.43" y1="763.36" x2="-57.59" y2="612.29" xlink:href="#uuid-53400f1f-c8b5-47d3-9ca6-d314fb76e0b6"/><clipPath id="uuid-ad4bd56a-7a52-405d-b095-3fda56b1fc70"><path class="uuid-23153c14-9407-400a-9272-ed6e49ce12b6" d="m1667.93,1098.8s153.47-16.15,253.62,92.08c0,0-14.54-93.69-53.31-121.16,66.83-174-135.93-315.2-320.21-284.8-294.45,48.58-535.83,707.55-514.97,950.34,197.89-183.12,564.88-294.05,634.86-636.47"/></clipPath><linearGradient id="uuid-7969b749-70cc-4b8b-9de1-0fb086c99d58" x1="1461.18" y1="1585.34" x2="1490.25" y2="790.52" gradientUnits="userSpaceOnUse"><stop offset="0" stop-color="#003780"/><stop offset="1" stop-color="#d820d2"/></linearGradient><linearGradient id="uuid-a0008eb2-7bda-42ab-9d3b-1fff38c12e74" x1="12.98" y1="3077.97" x2="-21.7" y2="3669.19" gradientTransform="translate(1601.48 -2575.56)" xlink:href="#uuid-1401f06c-fc71-47fa-a30e-57323a0af1fe"/><mask id="uuid-76f0874e-c7ab-4463-bb83-3556cc101cc8" x="1313.27" y="780.79" width="559.64" height="171.64" maskUnits="userSpaceOnUse"><rect class="uuid-3bf8b3cc-21f1-48a1-b044-8f7eef4ca031" x="1313.27" y="780.79" width="559.64" height="171.64"/></mask><clipPath id="uuid-77778423-24a7-4583-b5d3-f15c7aaffe7e"><path class="uuid-23153c14-9407-400a-9272-ed6e49ce12b6" d="m1149.79,1106.1l-178.04,255.2c148.19,4.29,290.06-176.97,354.22-317.43-30.5-20.33-59.02-43-85.68-67.49l-90.5,129.72Z"/></clipPath><linearGradient id="uuid-fb385be4-e728-4836-b27b-bf768eb530ff" x1="1219.05" y1="1191.96" x2="910.89" y2="1099.85" xlink:href="#uuid-53400f1f-c8b5-47d3-9ca6-d314fb76e0b6"/><linearGradient id="uuid-2a3b9a79-e78a-43ef-b975-8f6f5e16b791" x1="-68.45" y1="3550.76" x2="-1364.02" y2="4074.14" gradientTransform="translate(1568 -2535.47)" xlink:href="#uuid-1401f06c-fc71-47fa-a30e-57323a0af1fe"/><mask id="uuid-aa8bc105-9a45-4782-9d90-1be7859da4a7" x="971.75" y="976.38" width="295.39" height="384.92" maskUnits="userSpaceOnUse"><rect class="uuid-68cf4bc6-66ee-404a-8bd2-e1a5c68113b0" x="971.75" y="976.38" width="295.39" height="384.92"/></mask><clipPath id="uuid-3edaeecf-b919-4b26-82b8-fece270cbc0d"><path class="uuid-23153c14-9407-400a-9272-ed6e49ce12b6" d="m999.34,1090.8l-266.27,273.71c202.11,39.16,441.6-211.01,528.05-373.85-30.84-24.65-59.57-51.61-86.28-80.26l-175.51,180.41Z"/></clipPath><linearGradient id="uuid-a3d493f3-9b8e-4be3-80f8-b9675ec1537a" x1="981.39" y1="1180.44" x2="696.7" y2="1604.98" xlink:href="#uuid-53400f1f-c8b5-47d3-9ca6-d314fb76e0b6"/><clipPath id="uuid-9d685657-0072-455b-86b3-5def008f8216"><path class="uuid-23153c14-9407-400a-9272-ed6e49ce12b6" d="m625.36,917.65l-512.99,217.33c294.55,197.14,887.15-117.99,1006.7-290.3-20.72-26.72-40-54.29-57.9-82.29l-27.96-17.52-407.86,172.79Z"/></clipPath><linearGradient id="uuid-85f594a6-78c2-481e-8130-2d3c6c6eda04" x1="706.27" y1="986.25" x2="55.69" y2="1361.53" xlink:href="#uuid-53400f1f-c8b5-47d3-9ca6-d314fb76e0b6"/><clipPath id="uuid-16bcc56f-a38e-4096-aa38-4242b4eeefb7"><path class="uuid-23153c14-9407-400a-9272-ed6e49ce12b6" d="m596.89,410.63l-457.16-91.44c110.17,273.59,662.84,335.74,830.16,274.65-18.83-41.07-35-81-48.8-118.38l-324.21-64.84Z"/></clipPath><linearGradient id="uuid-511c21f0-ffc2-41c0-864c-abb8cf27a181" x1="851.78" y1="663.34" x2="218.34" y2="287.34" xlink:href="#uuid-53400f1f-c8b5-47d3-9ca6-d314fb76e0b6"/><clipPath id="uuid-5e9c8491-88ef-404a-af2e-d9bac4b5fe8e"><path class="uuid-23153c14-9407-400a-9272-ed6e49ce12b6" d="m1313.27,952.43c-127.41-90.37-261.94-235.76-352.91-469.1l-484.62-96.92s185.97,168.87,381.24,226.16c0,0,93.2,322.54,350.85,503.88,107.02,75.33,242.42,126.29,411.29,119.66,21.73-41.38,38.49-86.83,48.81-137.29,0,0-169.82-15.29-354.66-146.38"/></clipPath><linearGradient id="uuid-d9214f09-46e3-4fad-8862-04eaa69892d1" x1="1284.27" y1="1129.82" x2="888.9" y2="543.09" xlink:href="#uuid-ef3e5d57-216d-4050-bb61-771e86d68499"/><linearGradient id="uuid-41e23202-9850-4a72-b465-9fe7e4e34dfa" x1="-1002.43" y1="2831.22" x2="-74.39" y2="3646.34" gradientTransform="translate(1519.37 -2557.6)" xlink:href="#uuid-1401f06c-fc71-47fa-a30e-57323a0af1fe"/><mask id="uuid-6d0439ef-4051-492e-a167-165cd137f1a9" x="475.74" y="386.4" width="1192.19" height="749.21" maskUnits="userSpaceOnUse"><rect class="uuid-c07e8fcb-b3b4-47b1-8e03-ceebf0d72ddb" x="475.74" y="386.4" width="1192.19" height="749.21"/></mask><linearGradient id="uuid-9b08517f-0d42-4f5e-99c8-bd1cff46e47d" x1="-527.76" y1="3016.3" x2="-1557.59" y2="3431.96" gradientTransform="translate(1474.95 -2602.8)" xlink:href="#uuid-1401f06c-fc71-47fa-a30e-57323a0af1fe"/><mask id="uuid-8ac07ff1-2682-44f0-bdf1-af9773c9d313" x="22.62" y="558.68" width="842.77" height="115.82" maskUnits="userSpaceOnUse"><rect class="uuid-97b54268-6312-485c-97ec-1766c4984556" x="22.62" y="558.68" width="842.77" height="115.82"/></mask><linearGradient id="uuid-d21ff55c-4cae-421f-b97e-2ddd79ce7aa9" x1="-196.11" y1="3048.48" x2="-1491.67" y2="3571.86" gradientTransform="translate(1472.73 -2584.89)" xlink:href="#uuid-1401f06c-fc71-47fa-a30e-57323a0af1fe"/><mask id="uuid-c2328a1b-ac6b-40db-afec-b36e3a7eaf42" x="0" y="727.58" width="925.33" height="129.68" maskUnits="userSpaceOnUse"><rect class="uuid-36a99b55-263b-47e9-ae47-a218e3d8efae" y="727.58" width="925.33" height="129.68"/></mask><linearGradient id="uuid-a55e2769-ff93-4d5a-8e75-b6076d17a061" x1="-129.36" y1="3213.66" x2="-1424.92" y2="3737.04" gradientTransform="translate(1483.75 -2557.66)" xlink:href="#uuid-1401f06c-fc71-47fa-a30e-57323a0af1fe"/><mask id="uuid-b7acef2f-573c-4465-9c79-dd10e399b5fb" x="112.37" y="830.84" width="865.61" height="304.13" maskUnits="userSpaceOnUse"><rect class="uuid-1cafeaf9-94a4-4c30-b65d-0d70ffd1cd49" x="112.37" y="830.84" width="865.61" height="304.13"/></mask><linearGradient id="uuid-99c473d3-0995-42f8-9ee5-d2e99599e60a" x1="-81.91" y1="3382.55" x2="-1377.47" y2="3905.93" gradientTransform="translate(1511.85 -2539.48)" xlink:href="#uuid-1401f06c-fc71-47fa-a30e-57323a0af1fe"/><mask id="uuid-dc9b0968-9041-43bb-bdb5-6bcad615ae6a" x="399.05" y="937.71" width="645.83" height="382.74" maskUnits="userSpaceOnUse"><rect class="uuid-f4633ad1-1188-47fb-817f-cdcea32321c6" x="399.05" y="937.71" width="645.83" height="382.74"/></mask><linearGradient id="uuid-3810b22b-2ad0-47c4-9e8e-2d50b64b1676" x1="-61.36" y1="3509.94" x2="-1356.92" y2="4033.43" gradientTransform="translate(1544.6 -2535.16)" xlink:href="#uuid-1401f06c-fc71-47fa-a30e-57323a0af1fe"/><mask id="uuid-145fb8d1-8b3e-469b-beaa-eb33aa35b088" x="733.07" y="1028.11" width="403.86" height="336.4" maskUnits="userSpaceOnUse"><rect class="uuid-db022027-a72e-489e-beb3-faf1b008237b" x="733.07" y="1028.11" width="403.86" height="336.4"/></mask></defs><g class="uuid-42f8e7bc-f398-449a-8d94-95f73edd7deb"><rect class="uuid-c031799a-f7ef-406a-b962-db3cc70534a4" x="964.08" y="925.59" width="360.57" height="160.85"/></g><g class="uuid-9a07e0df-017d-4d73-b919-7522a282356a"><path class="uuid-5051a8cb-c089-4a8e-9d39-c909a6b5b800" d="m1193.29,953.93l-229.21,55.75s195.44,32.07,349.19-57.25c-1.38-8.93-2.53-17.87-3.47-26.83l-116.51,28.34Z"/></g><g class="uuid-87285ae1-36cf-4ce3-baa0-e3f9798065dc"><rect class="uuid-7ff26476-1a2f-4448-8045-c8c33ec06896" x="826.8" y="855.26" width="487.67" height="160.15"/></g><g class="uuid-934325d8-81ed-4248-bb74-853bbf7315d1"><rect class="uuid-1f27a040-0f3a-4ff3-8b26-8099bcee318a" x="659.05" y="699.18" width="649.3" height="217.11"/></g><g class="uuid-8423b32f-c24f-421c-9174-e3fcd1e027fb"><rect class="uuid-9a96086b-5f28-4aa3-bb98-5c79fd6ac3f6" x="589.14" y="449.95" width="726.19" height="377.95"/></g><g class="uuid-83587fee-7750-4719-8c56-8154a5745afa"><rect class="uuid-680ddc40-2128-4273-95a3-6ba9abb5cb1e" x="675.96" y="222.84" width="651.86" height="505"/></g><g class="uuid-94f609ff-f812-4335-be4e-b5e3cf62a741"><rect class="uuid-9ed1afe8-f691-4844-a0e8-969537851c0f" x="787.38" y="77.37" width="566.73" height="564.47"/></g><g class="uuid-42ca894b-047c-45bb-b82e-a776ce8d154c"><rect class="uuid-90e2e944-1201-43ff-af25-7d488c236773" x="939.29" width="440.35" height="572.54"/></g><g class="uuid-acc715d7-2131-4970-8e5b-8b4740eb6cdf"><rect class="uuid-04cb1fc1-975d-4bde-9515-85dfafea835e" x="1165.61" y="206.75" width="325.84" height="1056.5"/></g><g class="uuid-ba3f0971-0e76-4fbc-9f49-4f418d7d304d"><path class="uuid-2fd78714-f9d0-41dd-b9a4-d52b7835475e" d="m1363.29,948.59c-27.09-115.27-30.63-265.4,34.72-443.66l-226.84-298.19s109.64,165.32,191.88,295.83c0,0-108.81,230.08-53.33,462.39,21.81,91.33,69.02,183,158.21,261.18,7.9-5.12,15.74-10.6,23.51-16.46,0,0-88.86-93.87-128.16-261.1"/></g><g class="uuid-d7ee1d37-e811-4075-a935-cc5491df4a58"><path class="uuid-5051a8cb-c089-4a8e-9d39-c909a6b5b800" d="m827.2,77.37s130.86,312.04,439.15,467.93c3.9-9.61,6.68-15.77,7.67-17.92-65.1-50.49-141.39-132.85-196.66-224.24l-250.16-225.77Z"/></g><g class="uuid-c49f18be-ea24-4910-ba43-5504087cbb63"><path class="uuid-5051a8cb-c089-4a8e-9d39-c909a6b5b800" d="m1242.09,614.28c-88.18-41.36-203.54-125.04-290.67-225.58l-275.46-165.87s274.79,322.45,555.04,431.21c3.61-14.22,7.37-27.52,11.09-39.76"/></g><g class="uuid-31181a86-a184-4b86-8a44-f8cd9822f9e2"><path class="uuid-5051a8cb-c089-4a8e-9d39-c909a6b5b800" d="m589.14,449.95s307.12,232.96,625.63,282.78c1.78-11.3,3.76-22.31,5.87-32.97-85.44-21.09-198.27-70.55-299.09-138.79l-332.41-111.03Z"/></g><g class="uuid-b7a75f7f-20a8-4ece-85fd-ae0350f71643"><path class="uuid-5051a8cb-c089-4a8e-9d39-c909a6b5b800" d="m659.05,699.18s203.68,147.15,546.94,120.17c.34-7.83.8-15.58,1.38-23.24-86.3-4.46-199.26-27.96-305.44-69.87l-242.88-27.05Z"/></g><g class="uuid-df02e7dd-ec80-4b02-82bc-0174e7922b4c"><path class="uuid-5051a8cb-c089-4a8e-9d39-c909a6b5b800" d="m826.8,891.77s192.77,54.65,382.47,29.3c-1.31-11.55-2.26-23.05-2.91-34.45-64.46,5.94-141.57,4.42-217.94-7.18l-161.63,12.32Z"/></g><g class="uuid-2dbbc5e1-a0c0-4756-bf43-dc2268174218"><rect class="uuid-1e157572-bcf4-4681-9e21-aaba40d6ba17" x="838.14" y="1484.63" width="305.31" height="424.47"/></g><g class="uuid-e14ad9f0-dfea-4880-917c-7ca112dc9da3"><rect class="uuid-6495a216-dc51-41b3-a952-5e157b157901" x="932.07" y="1468.82" width="236.64" height="550.49"/></g><g class="uuid-acbab6a4-3914-4d15-bcef-ee41c323cfd8"><rect class="uuid-a5486cc5-4eec-4ab0-8b8f-3a85f745d805" x="1052.8" y="1452.31" width="180.95" height="597.51"/></g><g class="uuid-20bdc8a4-6bc4-4c90-80b0-90625d279829"><rect class="uuid-b9181954-12aa-46dc-8cfd-f17dd1735772" x="1070.69" y="1438.53" width="254.51" height="557.39"/></g><g class="uuid-584bb0e7-f687-4ff8-95a7-2c273c4832f0"><rect class="uuid-4dd88294-5046-408d-9419-7fd424eb4fa5" x="1076.57" y="1428.38" width="270.67" height="446.24"/></g><g class="uuid-087af7a3-01b9-4174-8607-25e039d6257a"><rect class="uuid-b48d0222-0c30-41fa-b037-e29c57d9b4f8" x="399.05" y="825.22" width="787.7" height="602.23"/></g><g class="uuid-8f584072-2a9b-451c-85a4-7f7349ec7a46"><rect class="uuid-a78c3fdc-e65b-4be7-afbc-762bc2a1d9d7" y="654.47" width="1058.29" height="444.4"/></g><g class="uuid-ec6e3516-f99b-4a16-80eb-d6c8b78ca98d"><rect class="uuid-09ac4ec5-7fea-446c-a5ee-8418b21446c7" x="22.62" y="558.68" width="989.41" height="288.53"/></g><g class="uuid-28170169-3a34-48cc-9cae-861e169d8734"><rect class="uuid-da310b36-be3b-4dd9-91c0-0e5bae7543d9" x="1012.2" y="754.53" width="922.87" height="980.74"/></g><path class="uuid-06eb1440-9102-46a4-889d-cef3d5a8f2d0" d="m1074.01,1451.04c86.16-181.13,327.92-213.11,458.63-216.64-102.67-8.29-191.44-38.65-267.74-81.82-18.8-10.63-36.84-22.04-54.14-34.09-.98-.68-1.95-1.36-2.93-2.05-5.45,10.19-10.81,20.49-16.06,30.88-26.26,52-49.92,106.27-70.47,160.48-18.34,48.36-34.21,96.66-47.29,143.24"/><g class="uuid-6d078844-5eaf-4d07-a4d1-f055d953ec10"><path class="uuid-d8846f5f-4477-4852-a32d-afce1ae8f209" d="m1313.27,952.43s286.06-180.11,559.64-3.07c-36.46-112.71-185.92-187.36-324.88-164.43-84.22,13.9-164.11,77.74-234.76,167.5"/></g><g class="uuid-dbe4d9e7-6b6b-4aba-9508-580500398fe1"><rect class="uuid-34220dc3-10fb-410d-aa20-b8a029fac725" x="971.75" y="976.38" width="354.22" height="389.2"/></g><g class="uuid-779390fc-3cf4-4072-a6b5-78c1b2624516"><path class="uuid-5051a8cb-c089-4a8e-9d39-c909a6b5b800" d="m1149.79,1106.1l-178.04,255.2s221.29-138.87,295.39-361.41c-9.15-7.63-18.1-15.47-26.85-23.5l-90.5,129.72Z"/></g><g class="uuid-554ca39c-9916-48af-a025-d76a5f1f6cde"><rect class="uuid-aa61c308-57ea-4ed1-b9db-402560f33c9e" x="733.07" y="910.39" width="528.05" height="493.28"/></g><g class="uuid-967613cb-85da-4a10-a5d9-061293c67424"><rect class="uuid-b60f2628-f1c7-4330-a91f-a2d133e4a6d4" x="112.37" y="744.86" width="1006.7" height="587.26"/></g><g class="uuid-1bb8efa5-94ab-4636-b558-ab43aafacd58"><rect class="uuid-1118faa7-1cfa-4019-a2a3-8db0ccb34e2c" x="139.74" y="319.2" width="830.16" height="335.74"/></g><g class="uuid-e886da9f-2869-4856-afc5-5e74e07b8dbc"><rect class="uuid-fb209e8e-9ffd-4ace-84d0-8f9d716784b1" x="475.74" y="386.4" width="1192.19" height="856.33"/></g><g class="uuid-2d08a4f2-aff7-4eb3-830a-6e271935bfbb"><path class="uuid-2fd78714-f9d0-41dd-b9a4-d52b7835475e" d="m1313.27,952.43c-127.41-90.37-261.94-235.76-352.91-469.1l-484.62-96.92s252.73,67.81,448,125.1c0,0,93.21,322.53,350.85,503.87,101.29,71.29,228,120.75,384.45,120.23,3.35-11.97,6.32-24.23,8.89-36.8,0,0-169.82-15.29-354.66-146.38"/></g><g class="uuid-e705e4f8-5c5e-404b-9489-7b8143dd82c6"><path class="uuid-5051a8cb-c089-4a8e-9d39-c909a6b5b800" d="m22.62,558.68s401.78,194.4,842.77,79.49c-4.52-12.91-7.15-21.43-8.05-24.42-108.45,6.89-255.8-7.98-390.23-50.12l-444.49-4.95Z"/></g><g class="uuid-75130a92-4b47-4d5b-9688-dfc4ef6ed84d"><path class="uuid-5051a8cb-c089-4a8e-9d39-c909a6b5b800" d="m901.6,727.58c-123.32,36.06-310.45,54-484.38,30.61L0,834.57s553.23,79.07,925.33-57.98c-8.83-17.22-16.73-33.65-23.73-49.01"/></g><g class="uuid-a2ba5cf2-6dcb-455b-a3be-0fa462618df7"><path class="uuid-5051a8cb-c089-4a8e-9d39-c909a6b5b800" d="m112.37,1134.97s507.09-37.67,865.6-266.4c-8.11-12.73-15.76-25.34-22.97-37.73-102.91,53.71-257.68,103.28-416.96,123.8l-425.68,180.33Z"/></g><g class="uuid-8bb77fb2-f8fc-49ff-92f4-a1ed7a352656"><path class="uuid-5051a8cb-c089-4a8e-9d39-c909a6b5b800" d="m399.05,1320.45s329.89-32.24,645.83-358.55c-6.5-8.04-12.81-16.11-18.93-24.19-89.24,70.92-221.48,146.28-363.08,197.5l-263.82,185.24Z"/></g><g class="uuid-c0ca1791-63c3-448d-aa76-fd154dc3aa5c"><path class="uuid-5051a8cb-c089-4a8e-9d39-c909a6b5b800" d="m733.07,1364.51s238.36-114.21,403.86-304.86c-11.38-10.29-22.36-20.82-32.95-31.53-58.57,62.14-136.17,127.94-221.81,183.13l-149.1,153.27Z"/></g></svg>