<?xml version="1.0" encoding="UTF-8"?><svg xmlns="http://www.w3.org/2000/svg" xmlns:xlink="http://www.w3.org/1999/xlink" viewBox="0 0 2859 2800"><defs><style>.uuid-8dbd29eb-b8b4-4d3f-ae27-5bf3f6ee8d08,.uuid-286fa92c-fb0c-420e-845c-b79c331457e8,.uuid-a8be2e98-7641-415a-9249-9f12fcb74bd6,.uuid-30e7957e-4f21-4a02-9e24-f6aacfc79bcc,.uuid-daadeb09-7886-4aa2-96d8-970eba4ed6dd,.uuid-80569b43-1059-41fd-bf91-22d8a28e9fd2,.uuid-b40e4024-dd12-4ddc-b4b4-71657e930a0b,.uuid-517dba57-5c81-4bf2-8ec8-19dfefcd7787,.uuid-1c19a32e-390e-478a-bca6-2b19c27a8647{fill:none;}.uuid-8dbd29eb-b8b4-4d3f-ae27-5bf3f6ee8d08,.uuid-517dba57-5c81-4bf2-8ec8-19dfefcd7787{mix-blend-mode:soft-light;}.uuid-7f574796-3d4b-4acd-943a-fe830776fdcb{fill:#26264f;}.uuid-56ffe6c0-aed5-406f-a714-d3d739c9ddb8{fill:url(#uuid-dbbbf5b4-b047-4eb8-8ed0-4c9b3036b3d9);}.uuid-7b0f50bd-1e1a-4f68-b5e3-11eb4a964ec5{fill:url(#uuid-bd55df7b-4b32-4706-bee1-5bcb8e7b3c08);}.uuid-c911a591-c481-46ba-812b-15951f975955{fill:#fff;}.uuid-9606e77e-2eaa-4bb5-8719-fa79d33aadc0{fill:url(#uuid-a3719b57-0eae-4df9-aada-d7f7a9caae06);}.uuid-286fa92c-fb0c-420e-845c-b79c331457e8{clip-path:url(#uuid-d39155bb-0259-4f78-b23f-e74fbb2b3d40);}.uuid-b18cd943-72bd-4167-95cf-ea0ea85623ed{fill:url(#uuid-a48cd8bf-8ccc-422d-930c-6b5e5984632d);}.uuid-66da6c0b-f05f-49a1-bb52-5fc26bffb0a0{fill:url(#uuid-ccc04080-274a-419c-89ff-e8fc0953e4ab);}.uuid-cf87408b-13c1-4d21-922d-36f904a1f167{fill:url(#uuid-1e4da49b-bf51-4a6a-a71f-ac571434634b);}.uuid-a8be2e98-7641-415a-9249-9f12fcb74bd6{clip-path:url(#uuid-b3eca4af-57a3-4d71-a0ae-a60eb4ab5f50);}.uuid-5fb01396-db72-4b42-9dc2-6362ffe3e5d0{fill:url(#uuid-7a93c17d-d670-48b0-a286-15187afa8bc9);}.uuid-2e80ae32-e97a-4121-934c-cad6433e21c2{fill:url(#uuid-e284b83e-0bfb-4320-9b8e-f4cfaa11ee6f);}.uuid-effeabb7-4f3d-48b0-ac87-94ae6253ed68{fill:url(#uuid-1258b4c2-04eb-43d5-af55-1bf9a39c3a4b);}.uuid-8ea259fa-4a63-4ce0-9030-4ce55315e754{fill:url(#uuid-968877a5-1858-4adf-98b1-7f6ddcff2081);}.uuid-30e7957e-4f21-4a02-9e24-f6aacfc79bcc{opacity:.5;}.uuid-30e7957e-4f21-4a02-9e24-f6aacfc79bcc,.uuid-e33d15a2-d83d-4668-b60a-f3061504f94e,.uuid-f68a1030-19bf-44db-be03-b9a24c83911d,.uuid-9445a7c6-9c23-4cce-af9e-58b2d3ffa0d7,.uuid-7cc5cb81-aba0-4162-b3ea-46e8ec838a9c,.uuid-90c33787-bf6d-463a-b022-f4cc9758e456{mix-blend-mode:multiply;}.uuid-32a1aeb5-1b92-49f4-b8ad-e722d21b5609{fill:url(#uuid-aae449be-7ae4-406f-8d7a-8aeb9bc0910f);}.uuid-e33d15a2-d83d-4668-b60a-f3061504f94e{fill:url(#uuid-194bea9c-2581-428e-a831-0c37afc7468e);opacity:.2;}.uuid-5f62f160-794c-44c0-bce2-ddd87b826acf{fill:url(#uuid-6cb24006-bdb8-432b-bb11-6c9fefc1fb6a);}.uuid-f68a1030-19bf-44db-be03-b9a24c83911d{fill:url(#uuid-d6923485-2ddc-4c45-baaa-dd22d67bf385);opacity:.4;}.uuid-9445a7c6-9c23-4cce-af9e-58b2d3ffa0d7{fill:#dfe4ea;}.uuid-46f97306-9c48-422d-8737-cc8349606c64{fill:url(#uuid-fa223611-de32-4260-ab47-93fc769f4201);}.uuid-7cc5cb81-aba0-4162-b3ea-46e8ec838a9c{fill:url(#uuid-8f418d4e-7237-49f6-8243-b07c53fba5b4);}.uuid-7cc5cb81-aba0-4162-b3ea-46e8ec838a9c,.uuid-1c19a32e-390e-478a-bca6-2b19c27a8647{opacity:.3;}.uuid-6252178b-fcb5-4a1b-9dd9-85cf11195056{fill:url(#uuid-d5fd722d-feba-4735-a4ef-b34dfb242e9f);}.uuid-daadeb09-7886-4aa2-96d8-970eba4ed6dd{isolation:isolate;}.uuid-8285f7b6-08e8-42ae-8e4f-8955b66edd31{fill:url(#uuid-d32a605d-d2c3-4536-83fe-a0dc156dbc82);}.uuid-80569b43-1059-41fd-bf91-22d8a28e9fd2{clip-path:url(#uuid-68b2e596-e748-44f6-834a-ec426c990107);}.uuid-5771e130-dfe9-40cd-beef-c163121168af{fill:url(#uuid-b5b66bf8-479f-4af2-a92f-ad868658f676);}.uuid-8639741d-f998-4b7e-8cbd-6ebc32c0a432{fill:url(#uuid-f1358fa2-6433-40c5-a1a7-bf949bde1b99);}.uuid-6be9f54c-c235-455f-bde1-c410bd89328f{fill:url(#uuid-48fc5621-b260-4fdb-8689-3f5f58172770);}.uuid-6667a544-a529-4062-85af-b88a33db3a14{fill:url(#uuid-98895cd5-b8d7-4ebe-972a-7d6cc9e97b6a);}.uuid-4efea761-682c-4218-afb2-c804b3799230{fill:url(#uuid-cbb5c69d-7c14-4103-b6f0-41b760537ed9);}.uuid-517dba57-5c81-4bf2-8ec8-19dfefcd7787{opacity:.35;}.uuid-5c2fa97f-b448-4bee-843e-f0ed4de5486a{fill:url(#uuid-fa9c812b-e19d-4b28-b8f6-9cf026b60152);}.uuid-b825d2cf-9659-4aa1-81e0-ba1a71ace334{fill:#f4f7fa;}.uuid-8435a342-eea7-4526-b7c0-959de930757c{fill:url(#uuid-cf8a36c2-ab04-42c4-8dcd-6e7bddb34168);}.uuid-8ff59961-39e6-4d99-8b3a-ae96ad93800d{fill:url(#uuid-c66a0fc2-1b4d-4396-8f16-570d22018718);}.uuid-51c902c7-006c-4586-936b-a1e9523ea478{fill:url(#uuid-7a4a8078-f57a-475a-a89d-2409216b715c);}.uuid-6c6534f2-5458-4ae6-b382-0c179846cae1{fill:url(#uuid-1351818c-ce2c-4404-a621-ba1e507bfaba);}.uuid-40b87037-3fc6-4fcb-bd28-b5453db62d9e{fill:url(#uuid-e5d7cb0b-c919-4cb1-8d2e-d6baf59af90f);}.uuid-86dd0346-7dff-4ffc-8a5b-8ddb8076d596{fill:url(#uuid-efcecf97-f779-4d55-b3f2-1c8ba21ab247);}.uuid-90c33787-bf6d-463a-b022-f4cc9758e456{fill:#c1cad4;opacity:.83;}.uuid-c7e4f7f6-b26c-4bf6-a6ff-f47773f66d5e{fill:url(#uuid-afcc61b3-2b59-46e2-9f9c-16f63975fe7e);}.uuid-72f8be20-8000-474d-9f59-fcf3792d503e{fill:url(#uuid-925d2724-7d9d-4c42-90f0-2d275318291f);}</style><linearGradient id="uuid-7a4a8078-f57a-475a-a89d-2409216b715c" x1="237.98" y1="1751.95" x2="972.49" y2="1751.95" gradientUnits="userSpaceOnUse"><stop offset="0" stop-color="#444b8c"/><stop offset="1" stop-color="#26264f"/></linearGradient><clipPath id="uuid-68b2e596-e748-44f6-834a-ec426c990107"><path class="uuid-51c902c7-006c-4586-936b-a1e9523ea478" d="m972.49,2298.45c-56.49-47.55-131.86-125.67-170.22-239.8-50.31-149.68,7.25-229.8-13.6-486.69-13.18-162.43-24.02-275.65-109.3-331.92-66.83-44.09-171.39-47.93-232.15-.44-50.52,39.49-76.69,119.1-82.95,175.25-5.1,45.76,2.74,78.37-22.12,103.68-25.4,25.86-54.99,13.59-79,33.03-48.69,39.41-12.79,159.32-6.99,178.7,64.54,215.57,273.75,352.02,365.72,410.43,76.05,48.3,193.08,111.82,350.61,157.76Z"/></clipPath><linearGradient id="uuid-7a93c17d-d670-48b0-a286-15187afa8bc9" x1="304.43" y1="2255.86" x2="1119.65" y2="2255.86" gradientUnits="userSpaceOnUse"><stop offset="0" stop-color="#ff9085"/><stop offset="1" stop-color="#fb6fbb"/></linearGradient><clipPath id="uuid-d39155bb-0259-4f78-b23f-e74fbb2b3d40"><path class="uuid-5fb01396-db72-4b42-9dc2-6362ffe3e5d0" d="m1119.65,2430.41c-90.13,50.35-212.14,101.63-350.07,112.39-35.2,2.75-252.66,19.72-275.69-70.91-8.11-31.92,14.75-50.24,4.64-93.11-11.97-50.8-51.73-57.6-101.1-101.97-29.46-26.48-115.66-103.96-87.4-188.64,16.89-50.6,73.89-101.48,129.93-117.19,82.2-23.04,146.23,34.1,252.89,132.66,94.56,87.37,99.82,118.68,169,180.41,51.35,45.81,132.21,103.29,257.79,146.37Z"/></clipPath><clipPath id="uuid-b3eca4af-57a3-4d71-a0ae-a60eb4ab5f50"><circle class="uuid-b40e4024-dd12-4ddc-b4b4-71657e930a0b" cx="1523.23" cy="1771.03" r="902.85"/></clipPath><linearGradient id="uuid-48fc5621-b260-4fdb-8689-3f5f58172770" x1="614.81" y1="1770.02" x2="2412.59" y2="1770.02" gradientUnits="userSpaceOnUse"><stop offset="0" stop-color="#aa80f9"/><stop offset="1" stop-color="#6165d7"/></linearGradient><linearGradient id="uuid-fa9c812b-e19d-4b28-b8f6-9cf026b60152" x1="1341.86" y1="2833.41" x2="1062.12" y2="3250.75" gradientUnits="userSpaceOnUse"><stop offset="0" stop-color="#e38ddd"/><stop offset="1" stop-color="#9571f6"/></linearGradient><linearGradient id="uuid-1351818c-ce2c-4404-a621-ba1e507bfaba" x1="512.41" y1="2629.42" x2="-518.88" y2="3781.78" xlink:href="#uuid-fa9c812b-e19d-4b28-b8f6-9cf026b60152"/><linearGradient id="uuid-925d2724-7d9d-4c42-90f0-2d275318291f" x1="771.82" y1="2861.58" x2="-259.47" y2="4013.95" xlink:href="#uuid-fa9c812b-e19d-4b28-b8f6-9cf026b60152"/><linearGradient id="uuid-c66a0fc2-1b4d-4396-8f16-570d22018718" x1="1023.49" y1="3086.82" x2="-7.8" y2="4239.18" xlink:href="#uuid-fa9c812b-e19d-4b28-b8f6-9cf026b60152"/><linearGradient id="uuid-aae449be-7ae4-406f-8d7a-8aeb9bc0910f" x1="620.26" y1="2725.95" x2="-411.03" y2="3878.31" xlink:href="#uuid-fa9c812b-e19d-4b28-b8f6-9cf026b60152"/><linearGradient id="uuid-6cb24006-bdb8-432b-bb11-6c9fefc1fb6a" x1="605.95" y1="2713.14" x2="-425.35" y2="3865.5" xlink:href="#uuid-fa9c812b-e19d-4b28-b8f6-9cf026b60152"/><linearGradient id="uuid-194bea9c-2581-428e-a831-0c37afc7468e" x1="617.7" y1="1769.65" x2="2427.91" y2="1769.65" xlink:href="#uuid-48fc5621-b260-4fdb-8689-3f5f58172770"/><linearGradient id="uuid-d6923485-2ddc-4c45-baaa-dd22d67bf385" x1="716.01" y1="1759.36" x2="2836.51" y2="1759.36" xlink:href="#uuid-48fc5621-b260-4fdb-8689-3f5f58172770"/><linearGradient id="uuid-e5d7cb0b-c919-4cb1-8d2e-d6baf59af90f" x1="1844.36" y1="1662.62" x2="2741.79" y2="2877.31" gradientUnits="userSpaceOnUse"><stop offset="0" stop-color="#fcb148"/><stop offset=".05" stop-color="#fdb946"/><stop offset=".14" stop-color="#fec144"/><stop offset=".32" stop-color="#ffc444"/><stop offset=".48" stop-color="#fdb946"/><stop offset=".78" stop-color="#f99c4c"/><stop offset=".87" stop-color="#f8924f"/><stop offset="1" stop-color="#f8924f"/></linearGradient><linearGradient id="uuid-afcc61b3-2b59-46e2-9f9c-16f63975fe7e" x1="2088.42" y1="1663.88" x2="2316.97" y2="1663.88" gradientUnits="userSpaceOnUse"><stop offset="0" stop-color="#40447e"/><stop offset="1" stop-color="#3c3b6b"/></linearGradient><linearGradient id="uuid-ccc04080-274a-419c-89ff-e8fc0953e4ab" y1="1792.09" y2="1792.09" xlink:href="#uuid-afcc61b3-2b59-46e2-9f9c-16f63975fe7e"/><linearGradient id="uuid-968877a5-1858-4adf-98b1-7f6ddcff2081" x1="1993.39" y1="1552.51" x2="2890.82" y2="2767.2" xlink:href="#uuid-e5d7cb0b-c919-4cb1-8d2e-d6baf59af90f"/><linearGradient id="uuid-d5fd722d-feba-4735-a4ef-b34dfb242e9f" x1="2406.16" y1="1898" x2="2595.68" y2="1898" xlink:href="#uuid-afcc61b3-2b59-46e2-9f9c-16f63975fe7e"/><linearGradient id="uuid-1258b4c2-04eb-43d5-af55-1bf9a39c3a4b" x1="2406.16" y1="2003.92" x2="2595.68" y2="2003.92" xlink:href="#uuid-afcc61b3-2b59-46e2-9f9c-16f63975fe7e"/><linearGradient id="uuid-efcecf97-f779-4d55-b3f2-1c8ba21ab247" x1="126.91" y1="2380.16" x2="880.84" y2="938.92" gradientUnits="userSpaceOnUse"><stop offset="0" stop-color="#311944"/><stop offset="1" stop-color="#893976"/></linearGradient><linearGradient id="uuid-1e4da49b-bf51-4a6a-a71f-ac571434634b" x1="1396.76" y1="-723.9" x2="987.03" y2="1108.29" xlink:href="#uuid-7a93c17d-d670-48b0-a286-15187afa8bc9"/><linearGradient id="uuid-98895cd5-b8d7-4ebe-972a-7d6cc9e97b6a" x1="1002.88" y1="689.95" x2="1731.3" y2="-181.1" xlink:href="#uuid-7a93c17d-d670-48b0-a286-15187afa8bc9"/><linearGradient id="uuid-8f418d4e-7237-49f6-8243-b07c53fba5b4" x1="926.82" y1="566.72" x2="1430.95" y2="611.09" xlink:href="#uuid-7a93c17d-d670-48b0-a286-15187afa8bc9"/><linearGradient id="uuid-a48cd8bf-8ccc-422d-930c-6b5e5984632d" x1="841.67" y1="1736.77" x2="1954.42" y2="862.86" xlink:href="#uuid-e5d7cb0b-c919-4cb1-8d2e-d6baf59af90f"/><linearGradient id="uuid-bd55df7b-4b32-4706-bee1-5bcb8e7b3c08" x1="-1033.25" y1="2462.98" x2="-993.42" y2="2498.4" gradientTransform="translate(226.59 153.17) rotate(-171.95) scale(1 -1)" xlink:href="#uuid-7a4a8078-f57a-475a-a89d-2409216b715c"/><linearGradient id="uuid-cbb5c69d-7c14-4103-b6f0-41b760537ed9" x1="-1920.15" y1="2498.45" x2="-1920.15" y2="2429.08" gradientTransform="translate(-689.61 23.65) rotate(-171.95) scale(1 -1)" gradientUnits="userSpaceOnUse"><stop offset="0" stop-color="#ffc444"/><stop offset="1" stop-color="#f36f56"/></linearGradient><linearGradient id="uuid-dbbbf5b4-b047-4eb8-8ed0-4c9b3036b3d9" x1="-1029.24" y1="2458.48" x2="-989.42" y2="2493.9" gradientTransform="translate(226.59 153.17) rotate(-171.95) scale(1 -1)" xlink:href="#uuid-7a4a8078-f57a-475a-a89d-2409216b715c"/><linearGradient id="uuid-e284b83e-0bfb-4320-9b8e-f4cfaa11ee6f" x1="-1002.77" y1="2758.69" x2="-962.95" y2="2794.11" gradientTransform="translate(184) rotate(-180) scale(1 -1)" xlink:href="#uuid-7a4a8078-f57a-475a-a89d-2409216b715c"/><linearGradient id="uuid-fa223611-de32-4260-ab47-93fc769f4201" x1="-1889.72" y1="2794.18" x2="-1889.72" y2="2724.8" gradientTransform="translate(-741.31) rotate(-180) scale(1 -1)" xlink:href="#uuid-cbb5c69d-7c14-4103-b6f0-41b760537ed9"/><linearGradient id="uuid-f1358fa2-6433-40c5-a1a7-bf949bde1b99" x1="2539.01" y1="2826" x2="2279.32" y2="1777.5" gradientTransform="translate(-1387.34)" xlink:href="#uuid-7a4a8078-f57a-475a-a89d-2409216b715c"/><linearGradient id="uuid-d32a605d-d2c3-4536-83fe-a0dc156dbc82" x1="973.03" y1="1904.04" x2="2085.78" y2="1030.12" xlink:href="#uuid-e5d7cb0b-c919-4cb1-8d2e-d6baf59af90f"/><linearGradient id="uuid-cf8a36c2-ab04-42c4-8dcd-6e7bddb34168" x1="-998.77" y1="2754.19" x2="-958.94" y2="2789.61" gradientTransform="translate(184) rotate(-180) scale(1 -1)" xlink:href="#uuid-7a4a8078-f57a-475a-a89d-2409216b715c"/><linearGradient id="uuid-b5b66bf8-479f-4af2-a92f-ad868658f676" x1="-2046.02" y1="530.82" x2="-2100.79" y2="619.42" gradientTransform="translate(-833.67 544.44) rotate(-166.34) scale(1 -1)" xlink:href="#uuid-cbb5c69d-7c14-4103-b6f0-41b760537ed9"/><linearGradient id="uuid-a3719b57-0eae-4df9-aada-d7f7a9caae06" x1="885.74" y1="1792.89" x2="1998.49" y2="918.98" xlink:href="#uuid-e5d7cb0b-c919-4cb1-8d2e-d6baf59af90f"/></defs><g class="uuid-daadeb09-7886-4aa2-96d8-970eba4ed6dd"><g id="uuid-5c96e880-5718-4f58-83c1-ebd55c7a67e8"><g id="uuid-30812546-090d-49d1-86f4-a5c8a4a0643a"><path class="uuid-b825d2cf-9659-4aa1-81e0-ba1a71ace334" d="m1975.9,89.03c-205.75-45.9-419.67-67.9-628.82-53.88-185.38,12.43-395.51,46.36-544.69,167.87-71.09,57.91-155.87,161.97-179.13,253.77,0,.01-122.4,483.21-367.21,586.75-244.8,103.55-414.81,1870.71,1441.62,1698.14,0,0,1090.37-45.22,1156.02-1347.79,15.86-314.66,7-660.58-183-923.69-145.59-201.62-349.58-291.27-583.99-354-36.62-9.8-73.58-18.89-110.81-27.19Z"/><g class="uuid-1c19a32e-390e-478a-bca6-2b19c27a8647"><path class="uuid-51c902c7-006c-4586-936b-a1e9523ea478" d="m972.49,2298.45c-56.49-47.55-131.86-125.67-170.22-239.8-50.31-149.68,7.25-229.8-13.6-486.69-13.18-162.43-24.02-275.65-109.3-331.92-66.83-44.09-171.39-47.93-232.15-.44-50.52,39.49-76.69,119.1-82.95,175.25-5.1,45.76,2.74,78.37-22.12,103.68-25.4,25.86-54.99,13.59-79,33.03-48.69,39.41-12.79,159.32-6.99,178.7,64.54,215.57,273.75,352.02,365.72,410.43,76.05,48.3,193.08,111.82,350.61,157.76Z"/><g class="uuid-80569b43-1059-41fd-bf91-22d8a28e9fd2"><g class="uuid-8dbd29eb-b8b4-4d3f-ae27-5bf3f6ee8d08"><path class="uuid-c911a591-c481-46ba-812b-15951f975955" d="m1035.76,2336.59c-95.77-30.6-178.86-68.78-246.93-113.5-100.89-66.27-165.77-145.18-192.83-234.56-21.16-69.86-18.88-146.81-15.98-244.24,2.4-80.75,11.37-137.69,19.28-187.93,10.23-64.95,18.31-116.25,6.86-189.1-11.64-74.04-40.21-146.76-84.9-216.14l5.71-3.68c45.21,70.18,74.11,143.78,85.9,218.77,11.62,73.91,3.47,125.68-6.86,191.22-7.88,50.04-16.82,106.76-19.2,187.07-2.98,100.59-5.14,173.27,15.7,242.07,26.59,87.81,90.54,165.48,190.06,230.85,67.56,44.38,150.09,82.3,245.27,112.71l-2.07,6.47Z"/><path class="uuid-c911a591-c481-46ba-812b-15951f975955" d="m584.68,1689.46l-1.29-3.61c-50.97-142.5-133.3-228.97-193.38-276.42-65.14-51.43-118.93-69.39-119.47-69.56l2.11-6.46c.54.18,55.26,18.4,121.31,70.48,60.35,47.59,142.83,133.98,194.49,275.94,12.23-6.83,55.64-32.95,97.86-81.44,45.64-52.42,99.21-142.51,95.23-274l6.79-.21c4.05,133.82-50.56,225.52-97.09,278.88-50.41,57.82-102.6,84.39-103.12,84.65l-3.43,1.72Z"/><path class="uuid-c911a591-c481-46ba-812b-15951f975955" d="m585.56,1906.52l-2.4-.57c-72.09-17-156.93-94.17-252.18-229.37-70.71-100.38-121.05-197.06-121.55-198.03l6.03-3.13c1.98,3.82,199.06,380.66,366.89,423.33,8.2-13.18,53.85-85.11,112.58-149.31,27.4-29.95,73.68-56.46,137.55-78.81,47.4-16.58,87.37-24.54,87.77-24.61l1.31,6.66c-1.57.31-157.99,31.79-221.62,101.34-64.16,70.13-112.61,149.58-113.1,150.37l-1.28,2.11Z"/><path class="uuid-c911a591-c481-46ba-812b-15951f975955" d="m764.72,2205.16l-6.75-.44c-.8-.05-80.91-5.5-186.77-36.12-97.74-28.27-238.13-84.4-351.9-191.25L0,1771.38l4.65-4.95,219.29,205.97c198.37,186.31,480.72,220.49,527.73,224.97-43.18-70.87-39.93-150.61,9.56-231.06,38.18-62.07,91.01-103.27,91.53-103.68l4.15,5.37c-.52.4-52.49,40.96-90,102.02-49.98,81.36-51.96,158.56-5.89,229.46l3.69,5.68Z"/></g></g></g><g class="uuid-517dba57-5c81-4bf2-8ec8-19dfefcd7787"><path class="uuid-5fb01396-db72-4b42-9dc2-6362ffe3e5d0" d="m1119.65,2430.41c-90.13,50.35-212.14,101.63-350.07,112.39-35.2,2.75-252.66,19.72-275.69-70.91-8.11-31.92,14.75-50.24,4.64-93.11-11.97-50.8-51.73-57.6-101.1-101.97-29.46-26.48-115.66-103.96-87.4-188.64,16.89-50.6,73.89-101.48,129.93-117.19,82.2-23.04,146.23,34.1,252.89,132.66,94.56,87.37,99.82,118.68,169,180.41,51.35,45.81,132.21,103.29,257.79,146.37Z"/><g class="uuid-286fa92c-fb0c-420e-845c-b79c331457e8"><path class="uuid-c911a591-c481-46ba-812b-15951f975955" d="m1085.96,2431.4c-92.11,0-186.78-21.58-282.99-64.64-155.89-69.78-276.75-178.51-350.69-257.44-51.64-55.12-87.49-127.77-106.56-215.92l6.64-1.44c18.81,86.93,54.1,158.5,104.88,212.72,73.51,78.47,193.64,186.57,348.51,255.88,148.6,66.51,293.44,81.31,430.51,43.97,102.9-28.02,197.87-83.14,282.27-163.82l4.69,4.91c-85.22,81.47-181.17,137.14-285.18,165.46-49.75,13.55-100.52,20.32-152.07,20.32Z"/><path class="uuid-c911a591-c481-46ba-812b-15951f975955" d="m618.84,2255.29l-3.04-.22c-265.24-18.98-343.34-165.81-360.96-210.36-.31-.78-.51-1.31-.63-1.57l5.97-3.24c.15.27.48,1.05.98,2.31,17.18,43.45,93.21,186.25,352.01,205.86,3.49-24.01,22.31-185.33-80.62-293.52l4.92-4.68c113.29,119.09,82.24,300.6,81.91,302.42l-.54,3Z"/><path class="uuid-c911a591-c481-46ba-812b-15951f975955" d="m548.34,2463.26c-1.73,0-3.42-.01-5.09-.04-63.7-1.11-100.92-21.69-102.48-22.57l3.33-5.92c.37.21,37.6,20.71,99.71,21.7,57.08.93,147.51-14.96,254.43-95.53-1.42-16.68-15.02-146.49-102.7-281.01l-95.09-145.88,5.69-3.71,95.09,145.88c94.49,144.96,103.84,284.71,103.92,286.1l.11,1.81-1.45,1.1c-106.19,80.5-196.73,98.06-255.48,98.06Z"/></g></g><g class="uuid-a8be2e98-7641-415a-9249-9f12fcb74bd6"><path class="uuid-6be9f54c-c235-455f-bde1-c410bd89328f" d="m2412.59,1771.03c0,188.11-41.52,347.82-139.26,492.73-.66.98-.65,16.8-1.32,17.77-1.43,2.1-2.88,4.19-4.33,6.28-.4.6-1.84,1.18-1.84,1.78v.03c-160.52,235.2-435.58,387.59-744.13,387.59-25.24,0-49.41-1.18-74.12-4.59h-.03c-.1,0-.15,1.5-.25,1.5-12.17-1.01-24.23-1.47-36.25-2.96-4.27-.5-8.55-.67-12.79-1.28-3.77-.5-7.52-.84-11.26-1.42-3.27-.48-6.51-.88-9.73-1.41-.73-.13-1.46-.2-2.19-.3-7.92-1.31-15.81-2.67-23.68-4.17-.05,0-.08-.01-.13-.01-419.5-80.14-736.48-448.93-736.48-891.79,0-93.63,13.6-183.97,39.95-268.96,4.12-13.32,31.62,6.08,35.04-6.96l-1.65-21.48c10.25-21.74,14.04-45.5,23.47-66.43,3.8-8.37,7.24-15.55,11.24-23.8,22.09-45.3,49.96-81.6,78.99-122.29,2.64-3.7,2.93-11.53,5.62-15.2,10.76-14.63,37.28-16.46,48.92-30.41,17.42-20.91,24.75-47.51,43.96-66.77,50-50.17,85.13-113.08,145.68-150.51,18.73-11.59,37.94-22.52,57.54-32.73,47.48-24.78,97.41-45.47,149.36-61.61,85.26-26.52,175.91-40.8,269.89-40.8,216.15,0,414.65,75.51,570.55,201.59.62.51-6.25,5.04-5.63,5.55,45.29,36.96,83.67,70.32,118.49,114.53.41.52,8.2,2.44,8.61,2.97,1.59,2.03,3.18,4.08,4.76,6.14.56.73-3.52,5.37-2.96,6.1,46.7,61.2,91.38,127.51,124.11,201.62,1.48,3.35,17.78,10.09,19.22,13.46,11.61,27.18,19.89,55.02,31.1,83.47,1.46,3.71-13.99,5.12-12.42,8.85l-8.81,5.73c0,.15-11.51,7.78-11.46,7.93,24.78,82.65,54.21,159.57,54.21,250.29Z"/><path class="uuid-5c2fa97f-b448-4bee-843e-f0ed4de5486a" d="m1447.56,2675.67v-.03h.08l-.05.03h-.03Z"/><path class="uuid-6c6534f2-5458-4ae6-b382-0c179846cae1" d="m1720.62,2076.89c-19.48,27.45-79.76,62.69-38.86,131.92,40.55,69.05-2.81,82-30.72,75.54-28.03-6.38-115.15-9.95-100.62,29.64,14.48,39.64,39.44,54.5,7.52,69.8-31.9,15.23-45.4,55.02-78.05,109.8-32.43,54.87-109.49,7.42-86.67,62.41,22.77,55.02,40.55,49.69,38.41,88.03-.5,10.53,6.48,21.34,15.94,31.62-12.17-1.01-24.38-2.24-36.5-3.72-4.27-.5-8.55-1.06-12.79-1.66-3.77-.5-7.52-1.03-11.26-1.61-3.27-.48-6.51-.98-9.73-1.51-.73-.13-.54-.25-1.27-.35-7.79-1.31-11.84-2.71-22.08-4.2v-.03c-6.83-6.49-2.55-13.52-1.52-21.11,10.18-70.78-87.48-119.42-103.85-169.02-16.09-49.47-.2-78.98-3.92-119.98-3.82-40.92,9.56-95.19-13.99-129.68-23.55-34.36-118.5-45.87-136.57-115.23-18.2-69.2,24.13-172.84,40.57-190.48,16.24-17.65-78.62-97.93-123.76-100.5-45.35-2.77-27.21-94.06-103.87-80.16-76.82,13.47-214.82-29.38-186.32-75.49,23.53-37.98,63.02-121.76-65.91-159.11,4.12-13.32,9.23-26.49,12.65-39.54v-.03c10.25-21.74,17.11-43.08,26.54-64.02,3.8-8.37,7.99-16.69,11.99-24.94,22.12-45.3,48.01-88.48,77.02-129.18,2.64-3.7,5.38-7.36,8.07-11.03,10.78-14.63,22.01-28.93,33.62-42.86,17.42-20.91,35.76-41.05,54.97-60.3,50-50.17,105.83-94.54,166.39-131.97,25.54,17.9,54.7,28.93,79.89,15.33,61.76-34.56,21.04-39.87-4.25-41.15-6.59-.33-12.97-2.94-18.1-6.91,47.48-24.78,97.4-45.47,149.36-61.61-3.85,34.86-51.23,90.87-16.36,84.03,40.57-7.72,57.14-117.34,86.92-80.91,30.21,36.57-33.05,84.51,26.37,56.73,59.5-27.5,67.44-88.88,133.75-59.02,66.64,30.24,60.55,66.03,79.16,62.49,18.53-3.49,78.45,36.77,42.2,69.9-36.57,33.23-70.11-9.1-124.93-21.87-54.85-12.62-53.52,32.25-78.75,42.51-25.66,9.9-149.46-49.92-179.85,4.15-30.72,53.64-43.79,91.07,1.81,89.69,45.55-1.28,48.49-13.07,44.92,20.61-3.64,33.71,4.65,58.95,45.92,27.25,41.15-31.65,31.92-62.51,64.1-47.43,32.2,15.13,36,1.43,70.23-23.43,34.21-24.86,79.23-27.45,91.02,28.33,11.81,55.8-8.37,68.32-68.55,71.14-60.2,2.92-67.01-16.06-86.19,34.26-19.08,50.35-98.71,115-168.62,141.64-69.78,26.7-97.13,66.13-95.52,119.35,1.66,53.31-24.58,109.55-42.1,65.61-17.6-44.06-66.91-118.27-117.24-68.67-50.42,49.69-138.18,137.55-41.2,153.61,96.78,16.36,46.28-74.3,95.19-56.18,48.84,18.25-30.94,58.22,1.71,72.64,32.7,14.55,46.4,7.74,46.15,52.31-.25,44.54,10.83,87.8,50.52,68.9,39.66-18.83,90.62-106.15,148-54.5,57.46,51.78,53.39,45.04,83.53,29.96,30.11-15.06,49.29,30.09,61.63,50.65,12.34,20.54,60.75-.43,99.99,60.76,39.21,61.18,54.6,72.09,99.31,50.07,44.74-21.99,62.94-5.66,74.6,25.24,11.61,30.89,39.16.7,52.44,41.53,13.2,40.8,6.86,34.46-12.49,61.94Z"/><path class="uuid-72f8be20-8000-474d-9f59-fcf3792d503e" d="m1873.75,1335.64c-31.7-68.02,125.35-60.38,153.11-55.15,27.93,4.65,93.43-46.55,101.75-70.36,8.55-23.98,22.57-12.59,72.27-13.27,49.67-.53,5.78-11.76-48.89-29.79-54.57-17.97-7.92-19.78-58.22-59.5-21.64-17.39-14.83-32.17-.4-43.16,114.67,92.75,206.3,212.83,264.96,350.35-1.66-.5-3.22-.78-4.68-.8-34.79-.2-42.46-77.12-60.38-92.1-17.67-14.96.5,42.25,4.83,65.76,4.35,23.53-9.53,3.75-26.87,25.34-17.42,21.62-48.87,22.02-51.71-10.41-2.89-32.35-25.69-64.12-71.97-78.9-46.28-14.78-86.32-2.64-123.92,11.86-37.4,14.25-117.97,67.62-149.89.13Z"/><path class="uuid-8ff59961-39e6-4d99-8b3a-ae96ad93800d" d="m2268.04,2289.6c3.14-23.35,8.27-47.48-1.48-56.31-23.7-21.99-28.88-81.92-20.66-112.28,8.19-30.44,72.07-28.71,28.73-79.26-43.46-50.7-82.62-110.88-64.37-145.29,18.25-34.36,12.72-36.88-21.49-36.67-34.26.2-49.27,1.71-83.38-28.76-34.14-30.87-81.09,72.85-209.56-10.33-128.45-84.01-55.3-225.6-7.16-225.95,48.44-.8,105.02-25.26,65.33-84.33-39.57-59.3,22.27-67.67,52.48-54.19,30.26,13.32,83.93-22.47,138.63-38.61,54.82-16.06,52.41,73.25,82.85,91.12,30.62,17.9,87.98,3.7,117.79-24.91,21.29-20.41,25.94,3.39,46.98,25.99,24.78,82.65,38.08,170.25,38.08,260.97,0,192.9-60.15,371.77-162.76,518.82Z"/><path class="uuid-32a1aeb5-1b92-49f4-b8ad-e722d21b5609" d="m2038.26,1222.43c.03-.06,40.06-18.12,25.55-47.24-14.38-29.12-37.18-118.36-53.84-90.24-16.76,28.25,7.95,83.1,2.55,106.77-5.45,23.74-5.59,36.16,25.73,30.71Z"/><path class="uuid-5f62f160-794c-44c0-bce2-ddd87b826acf" d="m1998.29,1195.19c-.57-9.38,5.34-47.48-24.64-46.29.06-.06-43.37,18.06-17.97,48.84,25.52,30.69,43.25,6.8,42.6-2.55Z"/><path class="uuid-e33d15a2-d83d-4668-b60a-f3061504f94e" d="m2427.91,1768.83c0,192.12-59.13,370.34-161.44,517.03-.4.6-.64,1.18-.64,1.78v.03c-163.94,235.2-436.79,386.87-745.34,386.87-25.24,0-50.78-.58-75.49-3.99-.03,0-.01.9-.11.9-12.17-1.01-24.23-1.13-36.25-2.61-4.27-.5-8.55-.49-12.79-1.09-3.77-.5-7.52-.75-11.26-1.32-3.27-.48-6.51-.83-9.73-1.35-.73-.13-1.46-.19-2.19-.29-7.92-1.31-15.81-2.66-23.68-4.17-.05,0-.07,0-.13,0-387.93-74.1-688.16-395.28-731.17-793.36,90.97,260.94,315.92,457,592.47,511.65h.1c6.79,3.42,13.6,2.73,20.44,3.86.63.08,1.28.3,1.91.4,2.77.45,5.58.91,8.4,1.32,3.22.5,6.46.91,9.73,1.34,3.67.53,7.34.84,11.04,1.27,10.38,1.28,20.79,3.65,31.29,4.5.1,0,.15.98.23.98h.03c21.34,0,42.61,1.72,64.4,1.72,133.22,0,258.78-33.87,368.63-92.31,109.85-58.44,203.98-142.7,274.37-244.26,0-.53.85-1.23,1.18-1.76,88.36-126.66,140.06-280.68,140.06-446.58,0-78.33-11.5-154.04-32.92-225.4-.02-.13-.31-.28-.31-.4v-.03c-6.83-27.9-17.83-55.17-29.15-81.69-50.68-118.77-129.59-222.46-228.62-302.54-72.49-58.64-155.64-104.59-246.1-134.53,183.25,16.87,350.73,88.23,486.09,197.7,114.67,92.75,207.44,212.83,266.11,350.35,13.12,30.72,21.49,62.29,35.15,94.61v.03c0,.15-1.06.25-1.01.4,24.79,82.65,36.72,170.25,36.72,260.97Z"/></g><path class="uuid-90c33787-bf6d-463a-b022-f4cc9758e456" d="m2744.23,771.81s-19.35-231.54-144.9-368.09c-42.09-45.78-72.93-54.74-88.24-57.64-85.55-16.16-138.46,71.89-185.71,49.9-44.8-20.85-12.14-106.94-67.41-209.72-35.35-65.74-87.09-101.87-112.56-119.24-163.44-111.45-359.78-53.21-392.39-40.29-23.39,9.26-63.23,22.42-108.72,50.54-215.18,133-189.46,331.15-319.61,418.33-179.75,120.4-376.94-150.77-672.42-81.51-246.7,57.83-477.3,355.95-441.49,629.46,32.4,247.51,285.28,419.8,318.22,441.59,25.93,17.15,38.17,22.12,44.78,24.55,157.22,57.93,274.74-157.89,440.73-146.97,168.5,11.09,197.26,243.34,332.55,238.04,150.97-5.92,147.2-321.14,361.45-369.73,212.31-48.15,453.42,117.93,566.97,240.02,124.74,134.12,172.58,281.19,192.16,360.45,7.75-3.03,18.36-6.24,31.25-7.51,18.27-1.8,33.32,1.07,42.96,3.74,21.67-61.1,234.54-671.15,202.4-1055.92Z"/><path class="uuid-f68a1030-19bf-44db-be03-b9a24c83911d" d="m2799.25,1487.9c-37.59-58.3-96.28-115.16-167.06-128.46-56.7-10.65-109.64-15.5-163.62-10.74-3.62-7.54-7.58-14.8-11.98-21.63-38.48-59.68-95.78-112.23-167.06-128.46-74.26-16.91-147.92-9.44-215.39,28.18-70.46,39.29-129.99,95.62-180.33,157.92-29.85,36.94-58.71,74.84-92.98,107.61-143.64,171.24-226.17,189.65-274.67,176.04-81.88-22.97-147.83-159.89-263.83-216.57-18.56-9.07-39.01-16.38-62.73-19.7-55.49-7.76-99.87,10.39-122.02,19.45-268.66,109.89-334.72,298.13-334.72,298.13-52.94,150.87-31.12,357.57,96.42,459.4,124.27,99.23,320.24,75.97,351.75,72.23,54.09-6.42,67.68-16.71,123.56-17.09,114.52-.78,151.01,41.79,253.29,59.32,82.34,14.11,146.38-2.75,276.08-28.72,90.99-18.22,175.41-51.62,260.4-88.35,65.88-28.48,128.68-63.79,186.65-106.15,49.56-36.21,98.11-74.04,143.39-115.53,23.76-21.77,47.11-43.96,71.45-65.04,7.79-5.17,15.72-10.11,23.82-14.75,3.81.17,7.63.4,11.48.76-.18-.02-.36-.05-.53-.07,54.78,3.14,107.89-5.84,158.33-35.35,57.98-33.93,113.28-100.42,128.46-167.05,16.3-71.56,12.77-151.88-28.18-215.39Z"/><path class="uuid-c911a591-c481-46ba-812b-15951f975955" d="m2325.04,969.39c-2.92-.87-5.81-1.5-8.75-2.1,3.89-32.51,5.37-64.89,4.49-96.77,2.94-.56,5.89-1.16,8.81-2,57.68-15.98,94.27-78.42,81.78-139.4s-69.36-97.49-127-81.47c-3.01.87-5.94,1.9-8.85,2.96-11.68-29.22-25.53-57.28-41.37-84.05,2.39-2.07,4.75-4.19,7.05-6.5,43.69-44.35,46.96-116.67,7.3-161.45-39.63-44.82-107.16-45.19-150.85-.84-2.25,2.28-4.32,4.68-6.32,7.09-23.85-18.29-49.31-34.56-76.24-48.77,1.18-3.01,2.29-6.03,3.21-9.18,18.01-60.84-12.93-123.62-69.11-140.24-56.18-16.63-116.32,19.19-134.33,79.99-.93,3.18-1.66,6.35-2.31,9.47-30.31-2.73-60.53-2.93-90.47-.59-.39-3.13-.79-6.25-1.46-9.36-12.48-61.02-69.36-97.48-127-81.47-57.64,16.02-94.27,78.42-81.78,139.44.66,3.18,1.52,6.27,2.39,9.31-1.37.68-2.73,1.35-4.1,2.1-26.39,13.28-51.92,28.59-76.35,45.84-1.87-2.5-3.75-4.96-5.83-7.27-39.63-44.82-107.2-45.2-150.85-.84-43.69,44.35-46.96,116.67-7.34,161.49,2.04,2.28,4.18,4.37,6.35,6.46-18.12,26.3-34.49,54.23-48.92,83.62-2.79-1.09-5.58-2.14-8.49-3.01-56.18-16.63-116.32,19.19-134.33,80.02-18.01,60.84,12.93,123.62,69.11,140.24,2.92.87,5.85,1.51,8.75,2.06-3.86,32.55-5.37,64.89-4.46,96.81-2.94.56-5.89,1.16-8.85,1.96-57.64,16.02-94.27,78.46-81.78,139.44,12.49,60.98,69.36,97.45,127,81.43,3.04-.83,5.94-1.86,8.85-2.92,11.72,29.18,25.53,57.28,41.41,84.01-2.4,2.07-4.8,4.22-7.09,6.54-43.65,44.36-46.96,116.63-7.29,161.45,39.63,44.82,107.19,45.2,150.88.84,2.22-2.28,4.29-4.69,6.32-7.09,23.81,18.25,49.27,34.56,76.2,48.73-1.15,3.01-2.26,6.07-3.22,9.21-18.01,60.84,12.93,123.62,69.11,140.25,56.18,16.63,116.32-19.18,134.33-80.02.92-3.15,1.65-6.31,2.34-9.43,30.27,2.72,60.49,2.92,90.43.59.39,3.13.83,6.25,1.46,9.36,12.49,60.98,69.36,97.48,127,81.47,53.69-14.91,89.09-70.04,83.66-126.8-.39-4.21-1.02-8.44-1.88-12.64-.66-3.18-1.48-6.26-2.39-9.31,27.86-13.79,54.76-29.81,80.49-47.94,1.84,2.46,3.71,4.91,5.79,7.27,39.67,44.82,107.19,45.2,150.88.84,43.69-44.35,46.97-116.67,7.3-161.49-2-2.27-4.18-4.37-6.35-6.46,18.12-26.3,34.49-54.23,48.96-83.62,2.75,1.09,5.58,2.14,8.49,3.01,56.14,16.63,116.29-19.19,134.29-80.03,18.01-60.84-12.93-123.62-69.11-140.24Zm-216.47,55.68c-57.81,195.21-235.05,319.49-416.28,304.04-23.82-2.03-47.7-6.46-71.39-13.47-203.97-60.41-316.31-288.37-250.92-509.24,37.71-127.36,126.28-224.5,233.63-272.36,78.8-35.17,167.73-43.74,254.07-18.17,203.93,60.41,316.27,288.36,250.89,509.2Z"/><path class="uuid-9445a7c6-9c23-4cce-af9e-58b2d3ffa0d7" d="m780.48,1866.11c27.53,136.99,149.98,205.25,176.9,220.25,168.43,93.88,354.77,25.47,381.94,15.03,163.96-63.04,305.86-186.75,305.86-186.75,105.54-112.91,202-45.13,301.19,47.67,165.43,154.81,358.58,179.75,500-5.24,6.36-8.37,12.69-17.21,18.89-26.49,53.58-80.15,119.35-186.92,134.01-283.44,31.67-208.05-193.51-224.99-332.76-246.5-97.4-15.08-255.94-52.53-321.57-135.16-195.02-245.54-396.81,262.46-632.11,189.2-63.39-19.76-116.79-21.61-163-12.79-39.78,7.59-216.68,27.44-324.64,188.31-4.86,7.81-69.16,114.31-44.72,235.91Z"/><path class="uuid-40b87037-3fc6-4fcb-bd28-b5453db62d9e" d="m2283.52,2739.26v-1175.71h-156.08v1175.71c12.57,7.04,39.4,14.07,75.68,14.6,38.97.58,67.78-7.54,80.4-14.6Z"/><rect class="uuid-c7e4f7f6-b26c-4bf6-a6ff-f47773f66d5e" x="2088.42" y="1647.16" width="228.55" height="33.45" rx="6.67" ry="6.67"/><rect class="uuid-66da6c0b-f05f-49a1-bb52-5fc26bffb0a0" x="2088.42" y="1775.37" width="228.55" height="33.45" rx="6.67" ry="6.67"/><path class="uuid-8ea259fa-4a63-4ce0-9030-4ce55315e754" d="m2562.24,2664.54v-850.15h-122.63v850.15c12.94,4.94,33.82,11.14,60.11,11.32,27.54.19,49.34-6.28,62.52-11.32Z"/><rect class="uuid-6252178b-fcb5-4a1b-9dd9-85cf11195056" x="2406.16" y="1881.28" width="189.53" height="33.45" rx="5.5" ry="5.5"/><rect class="uuid-effeabb7-4f3d-48b0-ac87-94ae6253ed68" x="2406.16" y="1987.19" width="189.53" height="33.45" rx="5.5" ry="5.5"/><path class="uuid-86dd0346-7dff-4ffc-8a5b-8ddb8076d596" d="m1577.39,557.57c0,261.75-212.11,483.63-482.72,496-281.05,12.85-516.98-203.61-516.98-483.94S813.62,67.16,1094.67,73.22c270.61,5.84,482.72,222.6,482.72,484.35Z"/><path class="uuid-cf87408b-13c1-4d21-922d-36f904a1f167" d="m1608.82,557.57c0,261.75-212.11,483.63-482.72,496-281.05,12.85-516.98-203.61-516.98-483.94S845.04,67.16,1126.1,73.22c270.61,5.84,482.72,222.6,482.72,484.35Z"/><path class="uuid-6667a544-a529-4062-85af-b88a33db3a14" d="m1578.95,557.93c0,246.63-200.07,455.3-454.83,466.43-263.99,11.54-485.12-192.04-485.12-455.09s221.13-471.97,485.12-466.8c254.76,4.99,454.83,208.83,454.83,455.46Z"/><g class="uuid-30e7957e-4f21-4a02-9e24-f6aacfc79bcc"><path class="uuid-7cc5cb81-aba0-4162-b3ea-46e8ec838a9c" d="m908.27,352.96c-16.62-54.17-15.86-136.44,65.19-258-209.07,60.23-364.34,249.82-364.34,476.61,0,280.32,235.92,496.78,516.98,483.94,103.63-4.74,198.51-40.11,276.04-96.24-2.4-74.76-18.67-156.59-64.41-232.07-125.76-207.55-377.31-204.28-429.46-374.23Z"/></g><path class="uuid-c911a591-c481-46ba-812b-15951f975955" d="m973.73,701.05c-12.66,6.32-41.15,13.1-78.22,13.1-105.31,0-159.56-65.55-159.56-152.34,0-103.97,74.13-161.84,166.34-161.84,35.74,0,62.83,7.23,75.05,13.56l-14.02,54.7c-13.99-5.87-33.46-11.3-57.86-11.3-54.7,0-97.17,33-97.17,100.81,0,61.03,36.15,99.46,97.65,99.46,20.8,0,43.84-4.53,57.38-9.95l10.42,53.8Z"/><path class="uuid-c911a591-c481-46ba-812b-15951f975955" d="m1295.73,554.13c0,99.91-60.59,160.48-149.63,160.48s-143.3-68.26-143.3-155.06c0-91.31,58.3-159.57,148.26-159.57s144.66,70.07,144.66,154.15Zm-220.15,4.07c0,59.68,28.05,101.71,74.13,101.71s73.25-44.3,73.25-103.51c0-54.71-26.24-101.71-73.69-101.71s-73.69,44.3-73.69,103.51Z"/><path class="uuid-c911a591-c481-46ba-812b-15951f975955" d="m1349.4,571.78v-26.46l24.15-21.85c40.86-36.52,60.7-57.51,61.25-79.37,0-15.24-9.2-27.32-30.77-27.32-16.09,0-30.18,8.05-39.94,15.53l-12.37-31.34c14.06-10.65,35.93-19.27,61.25-19.27,42.26,0,65.56,24.73,65.56,58.66,0,31.34-22.71,56.36-49.77,80.52l-17.23,14.37v.58h70.45v35.94h-132.58Z"/><path class="uuid-c911a591-c481-46ba-812b-15951f975955" d="m965.84,1521.9l15.37-22,31.37-12.92s-12.58-22.88-41.56-5.81c-9.15,9.71-21.84,32.3-35.69,42.97-13.85,10.68,30.51-2.24,30.51-2.24Z"/><path class="uuid-b18cd943-72bd-4167-95cf-ea0ea85623ed" d="m852.38,1538.18c32.07-35.11,70.37-52.73,90.71-60.6,6.22,2.57,15.8,7.61,21.8,17.34,26.15,42.39-56.31,107.64-36.33,149.38,13.32,27.83,55.23,9.75,109.28,55.96,25.94,22.17,28.31,36.61,25.13,47.36-5.03,17.02-25.05,28.47-31.14,31.95-52.9,30.25-162.69,21.99-209.04-45.07-38.79-56.12-22.99-138.76,29.59-196.33Z"/><path class="uuid-7b0f50bd-1e1a-4f68-b5e3-11eb4a964ec5" d="m893.7,2754.69c-1.13-6.24-21.29-11.89-31.28-3.53-4.96,4.15-8.37,12.57-5.5,16.37,1.04,1.38-3.23,3.82.86,3.86,13.58.16,37.04-10.5,35.92-16.7Z"/><path class="uuid-4efea761-682c-4218-afb2-c804b3799230" d="m872.57,2756.96l-20.73-2.93c9.61-11.57,7.83-48.4,7.83-48.4l22.05,4.92s-2.51,10.11-6.79,25.02c-1.46,5.1-2.12,13.09-2.36,21.38Z"/><path class="uuid-56ffe6c0-aed5-406f-a714-d3d739c9ddb8" d="m874.41,2754.4s-24.96-5.75-27.66-.8c-2.7,4.95-4.8,18.21,11.04,17.78,15.84-.43,18.03-12.78,16.62-16.98Z"/><path class="uuid-2e80ae32-e97a-4121-934c-cad6433e21c2" d="m1178.2,2778.1c-2-6.02-22.75-8.8-31.46.88-4.33,4.8-6.53,13.62-3.16,16.98,1.23,1.22-2.66,4.23,1.4,3.7,13.47-1.74,35.21-15.58,33.22-21.56Z"/><path class="uuid-46f97306-9c48-422d-8737-cc8349606c64" d="m1157.6,2783.3h-20.94c7.89-12.8.98-49.02.98-49.02l22.52,1.79s-1.07,10.36-3.22,25.73c-.73,5.26-.26,13.26.66,21.5Z"/><path class="uuid-8639741d-f998-4b7e-8cbd-6ebc32c0a432" d="m1211.87,1991.4c9.7,32.03,23.55,83.74,32.47,148.61,25.44,185.03-28.63,190.93-18.53,395.96,3.22,65.45-56.7,216.36-61.98,219.69-2.56.25-5.33.41-8.29.32-5.21-.16-12.56-.96-21.11-3.52-9.49-1.63-43.72-94.33-35.78-149.44,5.61-39.01,3.99-80.87.73-164.59-.53-13.57-35.24-263.94-35.24-263.94h0c-10.56,92.67-22.7,171.42-33.23,232.47-33.82,196.14-143.78,314.86-149.52,316.77-1.13.45-11.45,4.2-19.89-1.36-3.76-2.48-5.03-5.67-5.03-5.67-2.94-2.3.87-195.83,34.41-341.47,48.68-211.4,27.48-260.86,42.91-355.29,13.35-81.7,278.07-28.54,278.07-28.54Z"/><path class="uuid-8285f7b6-08e8-42ae-8e4f-8955b66edd31" d="m1224.89,2023.32c-29.21,15.05-104.53,41.88-194.24,28.56-40.99-6.1-73.78-19.75-96.84-31.91,23.24-70.48,4.99-108.21-3.63-143-12.25-49.56-12.48-45.83-22.59-85.2-16.68-64.98-19.42-131.4-7.97-144.96,23.9-28.32,62.56-35.54,92.28-37.73,8.76-.65,16.72-.88,23.34-1.07,16.54-.51,44.11-3.73,72.57-1.86,27.11,1.86,55.01,8.34,74.95,26.32.7.6-7.69,5.12-3.54,9.92,3.82,4.52,16.96,20.22,28.88,41.46,8.66,15.42,16.44,33.35,24.31,60.09,13.84,47.14,17.84,87.29,19.15,104.81,7.5,98.33.05,143.75-6.66,174.58Z"/><path class="uuid-8435a342-eea7-4526-b7c0-959de930757c" d="m1159.06,2780.52s-25.52-2.2-27.5,3.08c-1.98,5.28-2.2,18.7,13.42,16.06,15.62-2.64,16.06-15.18,14.08-19.14Z"/><path class="uuid-5771e130-dfe9-40cd-beef-c163121168af" d="m1036.46,1561.85c-4.58-2.74-8.07,3.15-5.91,8.3s9.41,8.37,13.8,5.3c4.4-3.07-1.73-9.91-7.89-13.6Z"/><path class="uuid-c911a591-c481-46ba-812b-15951f975955" d="m1093.26,1613.37c0,8.9-23.1,16.12-51.66,16.12s-51.61-7.22-51.61-16.12c0-1.49.65-2.93,1.91-4.28,8.76-.65,16.72-.88,23.34-1.07,16.54-.51,44.11-3.73,72.57-1.86,3.49,2.19,5.45,4.66,5.45,7.22Z"/><path class="uuid-c911a591-c481-46ba-812b-15951f975955" d="m1055.47,1606.48c-2.99-6.72-5.97-13.44-8.96-20.17,2.61-2.57,19.71-15.36,19.36-29.85-.48-19.66-16.11-34.67-19.18-37.68-12.84-12.61-15.58-14.02-20.29-15.44l-6.47-1.68s-.35-.03-.72-.05c-3.87-.17-15.87,3.12-18.12,4.38-7.19,4-5.76,37.87,10.19,81.48.2,1.79.42,3.58.64,5.39,1.43,11.26,3.35,22.02,5.62,32.25,0,0,29.44,1.26,37.92-18.62Z"/><path class="uuid-7f574796-3d4b-4acd-943a-fe830776fdcb" d="m1039.29,1494.91c4.17,13.75-5.06,19.65-7.63,23.02-.33.44-2.15,3.06-3.31,6.96-.16.53-.26,1.13-.28,1.86-.35,9.58,16.53,15.53,15.07,20.22-1.06,3.4-11.57,2.51-11.93,5.28-.35,2.61,8.88,4.95,8.53,8.05-.26,2.34-5.63,1.92-7.67,6.01-1.02,2.04-.19,3.15-.31,8.46-.06,3-.41,6.37-.88,8.33-2.27,9.52-14.81,16.59-18.38,14.16-1-.68-.61-1.62-2.27-4.41,0,0-1.54-2.59-4.48-5.22-4.2-3.77-11.92-5.01-20.19-7.81-15.31-5.18-21.09-11.83-22.91-14.12-.65-.81-1.09-1.44-1.41-1.9-6.37-9.12-10.95-23.98-9.21-34.52,2.92-17.66,22.35-15.67,31.76-35.16,5.25-10.87,8.41-22.26,21.04-26.72,9.83-3.48,18.9.04,24.78,8.39,3.88,5.51,7.72,12.66,9.68,19.12Z"/><path class="uuid-c911a591-c481-46ba-812b-15951f975955" d="m1037.21,1545.26c-4.79-3.59-9.37,2.57-7.56,8.56,1.8,5.99,9.51,10.43,14.77,7.53,5.26-2.91-.77-11.26-7.21-16.09Z"/><path class="uuid-c911a591-c481-46ba-812b-15951f975955" d="m1081.17,1474.06l-21.27-13.11s-19.71-8.94-41.31,5.26c-21.6,14.2-12.34,24.49-12.34,24.49l15.89-7.18s10.23-4.7,26.08,2.32c18.28,5.31,31.02,3.99,31.02,3.99l1.93-15.78Z"/><path class="uuid-9606e77e-2eaa-4bb5-8719-fa79d33aadc0" d="m1180.64,1455.54c-45.07-15.16-87.11-12-108.72-9.02-4.19,5.27-10.13,14.31-10.66,25.74-2.32,49.75,101.43,66.85,104.19,113.04,1.84,30.8-43.58,35.31-68.45,101.92-11.94,31.97-7.01,45.74.98,53.61,12.65,12.45,35.71,12.76,42.72,12.85,60.93.81,152.96-59.64,160.99-140.76,6.72-67.89-47.16-132.51-121.06-157.37Z"/></g></g></g></svg>