<?xml version="1.0" encoding="UTF-8"?><svg xmlns="http://www.w3.org/2000/svg" xmlns:xlink="http://www.w3.org/1999/xlink" viewBox="0 0 2723.1 2785.44"><defs><style>.uuid-abed2540-8861-4528-9476-bed19ff3a397,.uuid-afb68662-ea95-4f62-b7f8-75ff95d63304,.uuid-3f33a6ad-66c0-4849-b0d9-607c29a21d2d,.uuid-cf40ae4b-f1f2-4725-a667-63c9bcac3122,.uuid-348096cf-542b-4886-96f9-15e9386bad35,.uuid-0e5a1f09-cd5a-4487-b12c-6ed0dbd4a2fe,.uuid-89f64b74-f272-4846-8494-658b8c4a2d0c,.uuid-8dc2ab6a-d760-45ed-b59e-0db4fe741b3d{fill:none;}.uuid-abed2540-8861-4528-9476-bed19ff3a397,.uuid-afb68662-ea95-4f62-b7f8-75ff95d63304,.uuid-ecf20188-f18a-4519-aa43-07e24d98b7d9{mix-blend-mode:soft-light;}.uuid-7c339df9-5dd5-497f-a1fe-3e5ba5d9da1f{fill:url(#uuid-f1c3ef83-8c04-4253-b746-4addc24a674c);}.uuid-7c339df9-5dd5-497f-a1fe-3e5ba5d9da1f,.uuid-7ff696f2-4f81-4f1f-87dd-551e7ad07ca9,.uuid-8693269b-c9e0-402c-aff1-931de0bc7494,.uuid-8991f0ec-82d5-41e6-91fb-b46fa59b3977,.uuid-e0741053-7165-4d2d-9706-5a202ac38333,.uuid-3d09566d-d5bf-4725-8383-d5ec4cd1da4e,.uuid-5aad647c-8edb-4a55-a65e-466e782b6bbb,.uuid-ae567ba2-9bcd-40ce-8104-6b1211148bbe,.uuid-be41e48a-b74d-4afa-992b-b6846d05ec9a,.uuid-9b7e02a0-4d60-425f-b713-339b345d0ab1,.uuid-ce180849-9c56-4e9e-9612-fe2df6561dd0,.uuid-cc223f1b-ab91-4b76-98c6-2b69894f3453,.uuid-086ee2a7-743a-44e9-b293-7fe4cf3f82d6,.uuid-31987500-03b3-4868-a234-8f68b83b4be3,.uuid-92f01e24-389b-4f54-b2e9-3405bbd5bae4,.uuid-d0cccadf-d812-48ac-9f0a-a2246465d099,.uuid-7be6f97c-ae40-42e6-b509-02f6f97dc07e,.uuid-c72a1982-9d3c-44e2-a19d-e260301a3cd6,.uuid-6c513096-f47d-48eb-b4ef-cea04a2a293d,.uuid-03d7a47e-c4fd-4bb8-bf61-a88621f6cb8f,.uuid-49f10e71-042d-45fb-8f7b-ed603ca2a143,.uuid-7b9fbdc0-25b1-473d-9bb8-94580165421f,.uuid-cdefe0dd-6c6e-455d-842f-62582f1d549d,.uuid-4f5f26ad-67c4-4101-966d-6450ad813da4,.uuid-290d39f3-a6bd-4cb8-b2bf-ea0bf4154b24,.uuid-9180a736-1cc1-496f-aab5-7c30e98773d2,.uuid-c567fadf-9acf-4fa1-946d-15b267743962,.uuid-eaab265f-7564-4aad-92d5-25ced32f97a5{mix-blend-mode:multiply;}.uuid-7c339df9-5dd5-497f-a1fe-3e5ba5d9da1f,.uuid-8693269b-c9e0-402c-aff1-931de0bc7494,.uuid-e0741053-7165-4d2d-9706-5a202ac38333,.uuid-3d09566d-d5bf-4725-8383-d5ec4cd1da4e,.uuid-5aad647c-8edb-4a55-a65e-466e782b6bbb,.uuid-ae567ba2-9bcd-40ce-8104-6b1211148bbe,.uuid-be41e48a-b74d-4afa-992b-b6846d05ec9a,.uuid-9b7e02a0-4d60-425f-b713-339b345d0ab1,.uuid-ce180849-9c56-4e9e-9612-fe2df6561dd0,.uuid-086ee2a7-743a-44e9-b293-7fe4cf3f82d6,.uuid-31987500-03b3-4868-a234-8f68b83b4be3,.uuid-92f01e24-389b-4f54-b2e9-3405bbd5bae4,.uuid-d0cccadf-d812-48ac-9f0a-a2246465d099,.uuid-7be6f97c-ae40-42e6-b509-02f6f97dc07e,.uuid-c72a1982-9d3c-44e2-a19d-e260301a3cd6,.uuid-6c513096-f47d-48eb-b4ef-cea04a2a293d,.uuid-03d7a47e-c4fd-4bb8-bf61-a88621f6cb8f,.uuid-49f10e71-042d-45fb-8f7b-ed603ca2a143,.uuid-7b9fbdc0-25b1-473d-9bb8-94580165421f,.uuid-cdefe0dd-6c6e-455d-842f-62582f1d549d,.uuid-4f5f26ad-67c4-4101-966d-6450ad813da4,.uuid-290d39f3-a6bd-4cb8-b2bf-ea0bf4154b24,.uuid-9180a736-1cc1-496f-aab5-7c30e98773d2,.uuid-eaab265f-7564-4aad-92d5-25ced32f97a5{opacity:.2;}.uuid-ed230348-892e-415a-ab2b-eebd93abe04f{fill:url(#uuid-855bb154-648e-4ad7-9789-5408c5005500);}.uuid-43b47398-a30b-4029-92e5-c5a200394ca3{fill:url(#uuid-3020b2d2-21f7-4ab5-8edc-2662a56b3fda);}.uuid-c48c3637-0b71-405d-9367-5b9616ba3996{fill:url(#uuid-9f26569f-7dc5-4d9f-9690-4eb54fe1f0fa);}.uuid-4419af2d-0593-4ce5-b343-03bbb066cf87{fill:url(#uuid-588f1f09-6daa-43ef-883a-cfae9c3d53b1);}.uuid-2046d4cc-8b60-4bb3-9c52-69c5f5d9220c{fill:url(#uuid-e087ff22-c514-4dc7-ab87-1114a094e0a6);}.uuid-34b1d07a-ccd2-4833-835d-0e4ea3589df3,.uuid-ecf20188-f18a-4519-aa43-07e24d98b7d9{fill:#fff;}.uuid-ca603db3-2eb9-4554-ba7a-c6a39bf21f7d{fill:url(#uuid-f6d2acca-efdb-449f-b55e-f82a50e35220);}.uuid-1b4767e5-ec61-4cc0-89f3-874036053a6f{fill:url(#uuid-9b44cd92-5182-4cb7-b92a-479d2c010677);}.uuid-afb68662-ea95-4f62-b7f8-75ff95d63304{opacity:.5;}.uuid-7ff696f2-4f81-4f1f-87dd-551e7ad07ca9{fill:url(#uuid-bd870a74-8e8c-4d41-adfa-4bfd624e9182);}.uuid-7ff696f2-4f81-4f1f-87dd-551e7ad07ca9,.uuid-8991f0ec-82d5-41e6-91fb-b46fa59b3977,.uuid-cc223f1b-ab91-4b76-98c6-2b69894f3453,.uuid-ecf20188-f18a-4519-aa43-07e24d98b7d9,.uuid-c567fadf-9acf-4fa1-946d-15b267743962{opacity:.3;}.uuid-8693269b-c9e0-402c-aff1-931de0bc7494{fill:url(#uuid-185ae2c9-ce55-4fbe-a7c0-1ef94ef040bf);}.uuid-f0f15ab9-6ccf-42c8-ba4b-13d9769070bb{fill:url(#uuid-cb19bfd9-d0b6-4bf2-b718-6498a4eecac4);}.uuid-8991f0ec-82d5-41e6-91fb-b46fa59b3977{fill:url(#uuid-de71dbbf-3da0-49d4-8ac9-ae62b1597a78);}.uuid-2d8c8033-272d-4da4-b77b-e9a4eef39dc5{fill:url(#uuid-ce562fea-265a-4e4e-8127-dab63f5db0f1);}.uuid-e0741053-7165-4d2d-9706-5a202ac38333{fill:url(#uuid-957fb7d4-129d-42b1-b26d-10fe3b8fe1f6);}.uuid-cfc8c2c5-d27b-40ca-9d51-b118a3ae7e03{fill:url(#uuid-8bfe087b-f327-4d14-a4d9-72d37a4af895);}.uuid-18c94170-a26a-413d-a65e-2eaac11468e6{fill:url(#uuid-76122ca2-762f-4fee-9c12-d05a13c948c3);}.uuid-a8d8edde-10a1-4908-98a6-9324225a54c8{fill:url(#uuid-a5b44755-2f6e-4d09-b7e7-11409678cc64);}.uuid-3d09566d-d5bf-4725-8383-d5ec4cd1da4e{fill:url(#uuid-5d2b4bea-dcfd-4d28-bdf4-27cdddc898e6);}.uuid-5aad647c-8edb-4a55-a65e-466e782b6bbb{fill:url(#uuid-9d87efaa-03b7-416b-b55b-fadd00e3a47a);}.uuid-71ffc748-54ea-45fb-bfd9-a3bc550bb467{fill:url(#uuid-17fbed08-91bb-40e9-bab0-06d079febf00);}.uuid-6b97581d-e855-445f-bd90-620da4565425{fill:url(#uuid-0d9262c1-893f-4451-8739-6a7d49b1c815);}.uuid-ae567ba2-9bcd-40ce-8104-6b1211148bbe{fill:url(#uuid-d52b7114-bd1c-420d-ac49-49e118f3b8c0);}.uuid-6a79a94c-9166-43c4-9edd-452ca46eaad1{fill:url(#uuid-03279ab4-13a9-42fa-830e-3034da82b32a);}.uuid-00249f9d-7fef-4ee2-957a-7ed9103ad6e9{fill:url(#uuid-8834de5b-1450-421a-ad1c-0df8bea37ba6);}.uuid-cbb45b05-38c4-4f9e-b63a-6375f71c4d7a{fill:url(#uuid-feb8d5ec-4640-438f-a060-14865b80adbd);}.uuid-ed305168-3414-43d6-bc93-01439d60eb74{fill:url(#uuid-fceb359c-0536-41d0-a54b-2b6b572a3381);}.uuid-6a4e6504-4f08-4329-b1c8-0dcf624d7fb5{fill:url(#uuid-766dea11-6ced-492c-8c69-b09d239d7b5a);}.uuid-3b024342-ad26-4133-8c70-476a6874a322{fill:url(#uuid-116efa25-bd55-4375-ba89-808495ee4666);}.uuid-52d3c2fa-0b2e-4472-879b-206f7f5888bb{fill:url(#uuid-d32ce419-ab02-474b-a40e-21349e6d1096);}.uuid-be41e48a-b74d-4afa-992b-b6846d05ec9a{fill:url(#uuid-023bc36d-0bab-4885-8645-52cea2d598bb);}.uuid-34deaf2a-0540-4ffd-ad89-847718780869{fill:url(#uuid-ceed641e-7548-4888-8746-fe0201dc2cae);}.uuid-b9700d8d-b815-40d4-870e-e78425231dad{fill:url(#uuid-ee057971-9f4a-44ef-9133-04cf707493a2);}.uuid-59ab8bd8-6185-4687-a3cc-becedbaee46a{fill:url(#uuid-43d92791-6231-4537-be83-837923e694c1);}.uuid-6bd9f817-9d51-4939-b394-7f50d1ba75e7{fill:url(#uuid-c2d67c66-ea19-422a-8f31-eef071eacc79);}.uuid-1f802018-7348-4e82-9c56-8fd059da3a1e{fill:url(#uuid-e7e20edb-1e60-47a1-beb4-ea5154dedd5a);}.uuid-9b7e02a0-4d60-425f-b713-339b345d0ab1{fill:url(#uuid-1f7bb18f-d32d-48c7-bab0-fe6150a22571);}.uuid-61269b64-716c-4ef4-ba68-e5da0b0fc5f4{fill:url(#uuid-3c29573a-1c24-4ed5-ab0c-d27f3dcb2415);}.uuid-9952caca-9445-46e0-acd2-a206a4e0d2b2{fill:url(#uuid-409ed7e6-a075-497a-a1c2-d0524192e8ce);}.uuid-803edba7-5c93-4330-ae86-fea80a801fe0{fill:url(#uuid-e2dc4696-1eb9-4792-a58a-f4a7f511c748);}.uuid-2f1ee2a9-e474-4807-9dbb-3e7aae9caa2f{fill:url(#uuid-bb78d796-9fd7-4175-926c-363d124dfe9d);}.uuid-34214ee6-cc04-4ef6-ba7c-369220f8c628{fill:url(#uuid-044cab06-8291-414d-b64c-15fe033da5ae);}.uuid-5b14cade-ed45-4858-a4e8-88ae347cc9c4{fill:url(#uuid-2914bf89-9c69-4c24-b276-a9c23dfa4e37);}.uuid-fbee695c-9ad3-4c8a-bc7c-c6b8f2d11632{fill:url(#uuid-d5abf7d5-5b64-4d83-929d-bc78120da2d2);}.uuid-3f33a6ad-66c0-4849-b0d9-607c29a21d2d{clip-path:url(#uuid-3a104edc-37a6-4d40-bd43-7d6cf8a789af);}.uuid-6f981acf-98fb-4acb-bbd5-0d1d6b1baa37{fill:url(#uuid-3ebfdf93-7fe8-4998-83ee-5727b7c95ae6);}.uuid-3934c945-f978-4aba-92d1-7530aa913fa8{fill:url(#uuid-e16b5988-09d6-48a0-b119-ab31336bf6fb);}.uuid-d6787ab7-079d-464a-9f7e-6c8001673b66{fill:url(#uuid-d06cc515-9832-4fe1-8e0f-587a44c492db);}.uuid-da56cc9f-fb98-4c83-afb6-51c33c866f1d{fill:url(#uuid-85156a96-0fd0-44ff-b573-27986b2363ef);}.uuid-56932bfa-bd1b-49e2-b9ca-8538e6502a51{fill:url(#uuid-5e3b3a00-e806-4ec3-980f-2b3f04727f31);}.uuid-ce180849-9c56-4e9e-9612-fe2df6561dd0{fill:url(#uuid-7174f0b0-9ded-40cf-9804-a1012e9ba93d);}.uuid-ea7500dd-e23d-4422-b204-fe55760f361d{fill:url(#uuid-0542f71f-06ae-4115-8664-3bb760f92871);}.uuid-e10a83eb-a4fa-4e50-9bdc-28b1fe4aa3c6{fill:url(#uuid-6d4384ea-79f8-4d7f-8ff8-38817ff0a8c0);}.uuid-d0c98ca9-9f34-49d4-9c84-661fb2d9e61b{fill:url(#uuid-e2edde1e-5584-423d-9bd5-a12117a6f732);}.uuid-6185d117-34e7-4388-b424-f215e6089d3a{fill:url(#uuid-dac199da-d06b-4383-8cd5-a0c93f3b2e04);}.uuid-48ad6ed4-d610-4142-b8dc-a7da4afb9aaa{fill:url(#uuid-13a7c69d-2557-4aaa-8e0f-4b6a9ab37d6a);}.uuid-cc223f1b-ab91-4b76-98c6-2b69894f3453{fill:url(#uuid-fe20e2e1-195b-4835-b0d4-8d901d4cd245);}.uuid-cf40ae4b-f1f2-4725-a667-63c9bcac3122{clip-path:url(#uuid-64cc140b-afd8-4275-bedd-2cc594c0e2ba);}.uuid-0deea96e-c3a9-44f5-bf4d-f162c15468d2{fill:url(#uuid-f2739b16-a430-4b46-b915-a40b6a00e65f);}.uuid-086ee2a7-743a-44e9-b293-7fe4cf3f82d6{fill:url(#uuid-270894c3-4195-4886-ac4a-00f47eb2c2d5);}.uuid-31987500-03b3-4868-a234-8f68b83b4be3{fill:url(#uuid-fcf06d51-d9c8-4aba-9db0-1eb8a6d59c9f);}.uuid-6ac1a369-f79f-45da-823d-58f00657f2c5{fill:url(#uuid-34d68eef-1b3f-4ff0-8855-bc6361aedade);}.uuid-348096cf-542b-4886-96f9-15e9386bad35{isolation:isolate;}.uuid-92f01e24-389b-4f54-b2e9-3405bbd5bae4{fill:url(#uuid-585a0817-85b6-403b-840b-7ad2145b1bab);}.uuid-d0cccadf-d812-48ac-9f0a-a2246465d099{fill:url(#uuid-400ede3b-311d-460b-8251-a47cd9bd1fd5);}.uuid-83739b6d-e6bc-4bdb-92e0-0423caf6d4ac{fill:url(#uuid-d819b9a8-ed83-4dba-be1a-4a21c5785c60);}.uuid-ec2e3543-fcf4-4953-a03d-3ba5f43daf78{fill:url(#uuid-92566ee9-403f-4eaf-b7e9-246379098961);}.uuid-520b2a89-4f78-47c9-b93f-466bf313e877{fill:#c1cad4;}.uuid-7be6f97c-ae40-42e6-b509-02f6f97dc07e{fill:url(#uuid-1c063f87-2eca-45fe-b5c0-49a033b70864);}.uuid-040a9ce7-dfd1-41ff-a8cb-801f7018bf56{fill:url(#uuid-02fbd736-a127-42b8-9187-4e2c48f79f61);}.uuid-b4114990-8017-4aff-a5f2-d4a2333c9d4b{fill:url(#uuid-9a2fbab7-53a6-4103-905b-3993156813a2);}.uuid-8ca431b4-bbb1-486e-978a-a0318f6c486e{fill:url(#uuid-82a77acf-2e3a-4698-85a9-24f81994a8c4);}.uuid-24751e1f-5013-4e7f-a948-7b6a8bdae916{fill:url(#uuid-64a284de-1c7a-41a5-bbb6-ea1b0f91ef52);}.uuid-c72a1982-9d3c-44e2-a19d-e260301a3cd6{fill:url(#uuid-cd2201ad-dc80-46d0-99b7-2ddac53e6917);}.uuid-5460d2ea-f004-411a-b9f7-141f32c3e958{fill:url(#uuid-9087f3cb-3147-492d-a9fc-d3a167aa2111);}.uuid-28659dca-8785-4ed0-9d73-95ad226f28f7{fill:url(#uuid-9e42c5e1-fc40-4dc6-84d1-7ff76e820013);}.uuid-6c513096-f47d-48eb-b4ef-cea04a2a293d{fill:url(#uuid-bcd7af58-efb6-466c-b645-83aa7d6ab05c);}.uuid-0e5a1f09-cd5a-4487-b12c-6ed0dbd4a2fe{clip-path:url(#uuid-698fe3b0-d86a-4455-b705-35cafa42faac);}.uuid-f342ce2d-bbc5-45e5-ab59-c6e49590f9c5{fill:#beb8f2;}.uuid-03d7a47e-c4fd-4bb8-bf61-a88621f6cb8f{fill:url(#uuid-9505990c-37db-47dd-ad18-aa9a8bea1d70);}.uuid-65949258-eb73-49bc-8c60-adfb77ed33ce{fill:url(#uuid-3478899c-6aa9-4a7e-9d5a-c4ef8b8f0b9b);}.uuid-968750d8-0771-4c46-9c16-cb33a13ec527{fill:url(#uuid-caf42596-70f9-423d-82f3-10d43f857ebe);}.uuid-44a66a25-336c-4319-9710-1ccefa74d2de{fill:url(#uuid-2b8e9b5d-1bc5-4975-8e2b-37ee0de10aaa);}.uuid-1359c517-d241-4d49-bbed-5d97a56c2422{fill:url(#uuid-fc5425b3-cebb-465c-8ded-d335b1f95f1b);}.uuid-2f9bde5a-3f62-49ae-bdc7-5ae109a1a7e6{fill:url(#uuid-6260b2fe-5250-4770-96e7-552fa7901680);}.uuid-8dc2ab6a-d760-45ed-b59e-0db4fe741b3d{clip-path:url(#uuid-fa93f6ff-ad6d-4cd7-a0bd-a4b3a7d2e67b);}.uuid-feed2f93-4272-4fcd-86a7-475b0d5021de{fill:url(#uuid-2383910d-4713-4896-957f-02bcff96ab5f);}.uuid-49f10e71-042d-45fb-8f7b-ed603ca2a143{fill:url(#uuid-cf0a4ef6-5537-4f3f-bed5-1427fdd8ff07);}.uuid-bd58a7d4-8a5e-4962-be72-35503a91fe94{fill:#f4f7fa;}.uuid-5024393e-9548-4182-bd31-612b956e4e69{fill:url(#uuid-03894c88-974a-4db2-b2db-fc3515f26478);}.uuid-751c8020-e673-4c29-b8de-f7abc6c52cf5{fill:url(#uuid-d293f968-cf1e-47bb-8089-7c495a3f0242);}.uuid-aa95f633-1ddf-4732-ac3c-ab5e5a2923b3{fill:url(#uuid-fa7b335c-2001-4da9-8eff-3782e03643f6);}.uuid-7b9fbdc0-25b1-473d-9bb8-94580165421f{fill:url(#uuid-9c0abbb0-e66b-494d-8569-7d0c2b064747);}.uuid-8a38bb55-be15-4de1-89bd-c500af3d013d{fill:url(#uuid-9ebcd05d-735c-47ee-8d0f-3c9450451e8d);}.uuid-cdefe0dd-6c6e-455d-842f-62582f1d549d{fill:url(#uuid-b681d7c4-51d4-445b-90a3-93d6fc530375);}.uuid-c6b99207-2c1c-4670-b6e2-646b1371d551{fill:url(#uuid-1c56054a-b4b5-444f-8ac7-983df3ac61db);}.uuid-058c662b-308e-403a-be1a-bc4346386993{fill:url(#uuid-7b4d99a3-b29a-4e7f-bf70-ff15643694c1);}.uuid-4f5f26ad-67c4-4101-966d-6450ad813da4{fill:url(#uuid-437818ce-c78a-4aa8-b4d0-d151d98ac83d);}.uuid-290d39f3-a6bd-4cb8-b2bf-ea0bf4154b24{fill:url(#uuid-2515bbd5-539a-431b-9a77-de2fc30a3bc4);}.uuid-9e0b06cb-174f-4cd0-a90b-c871cdfdfc97{fill:url(#uuid-4d18f28d-b067-4ce2-b6bb-fc6ae38e1015);}.uuid-bc3cf33a-e12e-41c1-936f-3c7a056dd717{fill:url(#uuid-7fe4db92-c802-485b-95d1-bf209db9080e);}.uuid-cc66479e-1533-4ecc-ab91-ac270ae32f8b{fill:url(#uuid-17f1aace-889c-4e95-b04d-996179d54f54);}.uuid-9180a736-1cc1-496f-aab5-7c30e98773d2{fill:url(#uuid-fd5072e3-6cf6-469d-8337-6cca37f968c8);}.uuid-c567fadf-9acf-4fa1-946d-15b267743962{fill:url(#uuid-b43022fc-e65e-4902-bb15-8f3f625dac34);}.uuid-4783a8d7-a79f-4d97-a18a-cf37ae2c6bfd{fill:url(#uuid-1cd183ee-9afe-409d-8b6c-c403d2416e42);}.uuid-b9128b00-1740-4a07-af27-d4688b9e7f17{fill:url(#uuid-3760b72c-4332-4948-ac63-7db8f07190ed);}.uuid-171c934c-557d-4b77-8a4d-3c873f1a1cbc{fill:url(#uuid-0be58aea-5ae3-45ec-9c8e-7f63812ff93d);}.uuid-eaab265f-7564-4aad-92d5-25ced32f97a5{fill:url(#uuid-870e642d-06c1-4d2d-a8f3-5c2b7504a5e4);}.uuid-4f0acbb1-3884-4d28-afd5-6210161fcc5d{fill:url(#uuid-89d6d67b-2d04-40e9-afd9-a1a467dc7c22);}.uuid-008c41ba-e8f6-442b-9b66-f389d2a75b22{fill:url(#uuid-915abae1-2c37-4047-a4b1-1927083984b0);}.uuid-c2e3482f-addf-41d0-8a12-ccec2787555c{fill:url(#uuid-8ede5db6-661c-4540-bc2b-2f4de4b1d7e7);}.uuid-3f8bddfe-2014-49d4-b9b7-f760160c30fe{fill:#fcfdfe;}.uuid-195fc73a-c2c9-49ab-8d93-c4b68ec45526{fill:url(#uuid-b969f93d-ca5a-44ec-80c8-51d619374bf6);}</style><clipPath id="uuid-698fe3b0-d86a-4455-b705-35cafa42faac"><path class="uuid-89f64b74-f272-4846-8494-658b8c4a2d0c" d="m761.09,1530.32l268.04,84.75s93.93-121.54,58.92-239.35c-71.42-240.36,144.07-286.13,231.46-318.81,131.79-49.28,226.44-150.18,87.47-251.08-138.97-100.89,93.25-292.28,317.56-341.19,219.51-47.86,261.09-465.67-223.52-405.71-289.4,35.81-334.55,316.37-391.04,452.63-56.48,136.26-268.53,81.97-251.33,275.68,14.69,165.46,96.73,308.66-23.38,381.25-120.11,72.59-164.88,182.4-74.2,361.83Z"/></clipPath><linearGradient id="uuid-caf42596-70f9-423d-82f3-10d43f857ebe" x1="1002.53" y1="1663.73" x2="442.84" y2="3254.44" gradientTransform="translate(1274.27 -1768.13) rotate(17.54)" gradientUnits="userSpaceOnUse"><stop offset="0" stop-color="#ffc444"/><stop offset="1" stop-color="#f36f56"/></linearGradient><linearGradient id="uuid-13a7c69d-2557-4aaa-8e0f-4b6a9ab37d6a" x1="4295.75" y1="-1238.9" x2="4951.86" y2="485.08" gradientTransform="translate(4680.46 -600.75) rotate(154.21) scale(1 -1)" xlink:href="#uuid-caf42596-70f9-423d-82f3-10d43f857ebe"/><clipPath id="uuid-64cc140b-afd8-4275-bedd-2cc594c0e2ba"><path class="uuid-89f64b74-f272-4846-8494-658b8c4a2d0c" d="m662.38,1663.86l-226.12,62.16s-131.01-108.28-78.85-184.94c52.16-76.66-52.63-192.18-100.61-260.22-130.16-184.62,108.69-292.45-37.77-543.18-38.95-66.69-137.57-180.54-107.33-267.28,34.46-98.83,120.2-67.5,135.51-142.73,23.93-117.59,121.27-208.48,236.81-164.41,114.04,43.5,126.16,248.03-1.1,487.62-71.08,180.71-54.38,213.96,1.93,286.36,39.44,50.71,179.96,162.07,132.2,263.55-47.76,101.49-73.72,197.07-6.26,241.76,102.65,68,51.59,221.31,51.59,221.31Z"/></clipPath><linearGradient id="uuid-e2dc4696-1eb9-4792-a58a-f4a7f511c748" x1="5486.27" y1="-325.78" x2="5988.2" y2="731.39" gradientTransform="translate(5966.01 -1170.24) rotate(158.11) scale(1 -1)" gradientUnits="userSpaceOnUse"><stop offset="0" stop-color="#ff9085"/><stop offset="1" stop-color="#fb6fbb"/></linearGradient><clipPath id="uuid-fa93f6ff-ad6d-4cd7-a0bd-a4b3a7d2e67b"><path class="uuid-89f64b74-f272-4846-8494-658b8c4a2d0c" d="m855.64,1591.43l-353.28,143.62c-40.43-38.63-103.32-114.66-38.43-166.08,90.21-71.49,19.39-242.2-34.7-290.54-66.94-59.83-219.71-202.28-82-314.83,114.64-93.7,208.03-132.44,148.49-295.38-59.54-162.94-10-300.58,147.67-354.89C809.32,256.18,854.51-.98,1016.13,11.65c281.62,22.01,224.1,459.44-12.6,677.52-236.7,218.08-34.7,246.25,29.13,373.32,87.14,173.48-185.05,241.7-222.44,339.58-29.31,76.74,13.16,148.2,45.41,189.35Z"/></clipPath><clipPath id="uuid-3a104edc-37a6-4d40-bd43-7d6cf8a789af"><circle class="uuid-89f64b74-f272-4846-8494-658b8c4a2d0c" cx="1361.55" cy="1485.48" r="1164.09"/></clipPath><linearGradient id="uuid-e16b5988-09d6-48a0-b119-ab31336bf6fb" x1="1673.3" y1="2232.2" x2="842.82" y2="239.03" gradientUnits="userSpaceOnUse"><stop offset="0" stop-color="#24abb5"/><stop offset="1" stop-color="#40cf9f"/></linearGradient><linearGradient id="uuid-fe20e2e1-195b-4835-b0d4-8d901d4cd245" x1="186.33" y1="1485.48" x2="2536.76" y2="1485.48" xlink:href="#uuid-e16b5988-09d6-48a0-b119-ab31336bf6fb"/><linearGradient id="uuid-2b8e9b5d-1bc5-4975-8e2b-37ee0de10aaa" x1="788.88" y1="2688.29" x2="857.72" y2="2688.29" gradientTransform="translate(1271.79 -17.73) rotate(178.34) scale(1 -1)" gradientUnits="userSpaceOnUse"><stop offset="0" stop-color="#444b8c"/><stop offset="1" stop-color="#26264f"/></linearGradient><linearGradient id="uuid-85156a96-0fd0-44ff-b573-27986b2363ef" x1="1199.11" y1="2674.43" x2="1229.31" y2="2611.93" gradientTransform="translate(1383.95 -108.01) rotate(172.96) scale(1 -1)" xlink:href="#uuid-caf42596-70f9-423d-82f3-10d43f857ebe"/><linearGradient id="uuid-bb78d796-9fd7-4175-926c-363d124dfe9d" x1="1310.83" y1="2609.62" x2="1383.96" y2="2609.62" gradientTransform="translate(1380.55 -199.3) rotate(164.63) scale(1 -1)" xlink:href="#uuid-2b8e9b5d-1bc5-4975-8e2b-37ee0de10aaa"/><linearGradient id="uuid-3ebfdf93-7fe8-4998-83ee-5727b7c95ae6" x1="1135.63" y1="2645.59" x2="1166.47" y2="2581.76" gradientTransform="translate(1354.36 -142.27) rotate(168.59) scale(1 -1)" xlink:href="#uuid-caf42596-70f9-423d-82f3-10d43f857ebe"/><linearGradient id="uuid-044cab06-8291-414d-b64c-15fe033da5ae" x1="784.44" y1="2545.37" x2="589.39" y2="2105.68" gradientTransform="matrix(1,0,0,1,0,0)" xlink:href="#uuid-2b8e9b5d-1bc5-4975-8e2b-37ee0de10aaa"/><linearGradient id="uuid-bd870a74-8e8c-4d41-adfa-4bfd624e9182" x1="784.44" y1="2545.37" x2="589.39" y2="2105.68" gradientTransform="matrix(1,0,0,1,0,0)" xlink:href="#uuid-2b8e9b5d-1bc5-4975-8e2b-37ee0de10aaa"/><linearGradient id="uuid-9a2fbab7-53a6-4103-905b-3993156813a2" x1="216.99" y1="2574.22" x2="21.94" y2="2134.54" gradientTransform="translate(133.82 46.8) rotate(-7.04)" xlink:href="#uuid-2b8e9b5d-1bc5-4975-8e2b-37ee0de10aaa"/><linearGradient id="uuid-feb8d5ec-4640-438f-a060-14865b80adbd" x1="551.76" y1="2069.92" x2="482.42" y2="1711.64" gradientTransform="matrix(1,0,0,1,0,0)" xlink:href="#uuid-e2dc4696-1eb9-4792-a58a-f4a7f511c748"/><linearGradient id="uuid-9e42c5e1-fc40-4dc6-84d1-7ff76e820013" x1="503.05" y1="1505.22" x2="499.2" y2="1641.35" gradientUnits="userSpaceOnUse"><stop offset="0" stop-color="#311944"/><stop offset="1" stop-color="#a03976"/></linearGradient><linearGradient id="uuid-92566ee9-403f-4eaf-b7e9-246379098961" x1="-824.62" y1="840.03" x2="-878.13" y2="704.11" gradientTransform="translate(-385.83 791.48) rotate(178.45) scale(1 -1)" gradientUnits="userSpaceOnUse"><stop offset="0" stop-color="#311944"/><stop offset="1" stop-color="#6b3976"/></linearGradient><linearGradient id="uuid-17fbed08-91bb-40e9-bab0-06d079febf00" x1="500.79" y1="1416.09" x2="508.5" y2="1568.91" xlink:href="#uuid-9e42c5e1-fc40-4dc6-84d1-7ff76e820013"/><linearGradient id="uuid-ceed641e-7548-4888-8746-fe0201dc2cae" x1="390.47" y1="2101.14" x2="321.13" y2="1742.86" gradientTransform="matrix(1,0,0,1,0,0)" xlink:href="#uuid-e2dc4696-1eb9-4792-a58a-f4a7f511c748"/><linearGradient id="uuid-cb19bfd9-d0b6-4bf2-b718-6498a4eecac4" x1="746.23" y1="1721.3" x2="151.59" y2="2172.59" gradientUnits="userSpaceOnUse"><stop offset="0" stop-color="#ebeff2"/><stop offset=".47" stop-color="#d2d9e1"/><stop offset=".99" stop-color="#b7c0ce"/></linearGradient><linearGradient id="uuid-9f26569f-7dc5-4d9f-9690-4eb54fe1f0fa" x1="112.72" y1="1937.35" x2="890.97" y2="1937.35" xlink:href="#uuid-cb19bfd9-d0b6-4bf2-b718-6498a4eecac4"/><linearGradient id="uuid-e2edde1e-5584-423d-9bd5-a12117a6f732" x1="732.56" y1="1333.9" x2="101.07" y2="1813.16" gradientUnits="userSpaceOnUse"><stop offset="0" stop-color="#aa80f9"/><stop offset="1" stop-color="#6165d7"/></linearGradient><linearGradient id="uuid-82a77acf-2e3a-4698-85a9-24f81994a8c4" x1="797.43" y1="1382.29" x2="150.99" y2="1872.89" xlink:href="#uuid-e2edde1e-5584-423d-9bd5-a12117a6f732"/><linearGradient id="uuid-588f1f09-6daa-43ef-883a-cfae9c3d53b1" x1="864.96" y1="1431.1" x2="203.03" y2="1933.46" xlink:href="#uuid-e2edde1e-5584-423d-9bd5-a12117a6f732"/><linearGradient id="uuid-9087f3cb-3147-492d-a9fc-d3a167aa2111" x1="935.31" y1="1480.31" x2="257.31" y2="1994.87" xlink:href="#uuid-e2edde1e-5584-423d-9bd5-a12117a6f732"/><linearGradient id="uuid-ee057971-9f4a-44ef-9133-04cf707493a2" x1="1008.62" y1="1529.89" x2="313.93" y2="2057.12" xlink:href="#uuid-e2edde1e-5584-423d-9bd5-a12117a6f732"/><linearGradient id="uuid-fa7b335c-2001-4da9-8eff-3782e03643f6" x1="753.13" y1="1391.72" x2="144.12" y2="1853.91" xlink:href="#uuid-e2edde1e-5584-423d-9bd5-a12117a6f732"/><linearGradient id="uuid-3020b2d2-21f7-4ab5-8edc-2662a56b3fda" x1="815.61" y1="1441.13" x2="192.46" y2="1914.06" xlink:href="#uuid-e2edde1e-5584-423d-9bd5-a12117a6f732"/><linearGradient id="uuid-dac199da-d06b-4383-8cd5-a0c93f3b2e04" x1="880.61" y1="1491.01" x2="242.79" y2="1975.08" xlink:href="#uuid-e2edde1e-5584-423d-9bd5-a12117a6f732"/><linearGradient id="uuid-c2d67c66-ea19-422a-8f31-eef071eacc79" x1="948.26" y1="1541.36" x2="295.22" y2="2036.97" xlink:href="#uuid-e2edde1e-5584-423d-9bd5-a12117a6f732"/><linearGradient id="uuid-64a284de-1c7a-41a5-bbb6-ea1b0f91ef52" x1="1018.68" y1="1592.15" x2="349.86" y2="2099.73" xlink:href="#uuid-e2edde1e-5584-423d-9bd5-a12117a6f732"/><linearGradient id="uuid-76122ca2-762f-4fee-9c12-d05a13c948c3" x1="774.48" y1="1446.67" x2="188.28" y2="1891.55" xlink:href="#uuid-e2edde1e-5584-423d-9bd5-a12117a6f732"/><linearGradient id="uuid-9b44cd92-5182-4cb7-b92a-479d2c010677" x1="834.79" y1="1496.98" x2="235.04" y2="1952.14" xlink:href="#uuid-e2edde1e-5584-423d-9bd5-a12117a6f732"/><linearGradient id="uuid-d06cc515-9832-4fe1-8e0f-587a44c492db" x1="897.32" y1="1547.93" x2="283.75" y2="2013.59" xlink:href="#uuid-e2edde1e-5584-423d-9bd5-a12117a6f732"/><linearGradient id="uuid-1c56054a-b4b5-444f-8ac7-983df3ac61db" x1="962.4" y1="1599.25" x2="334.36" y2="2075.89" xlink:href="#uuid-e2edde1e-5584-423d-9bd5-a12117a6f732"/><linearGradient id="uuid-8834de5b-1450-421a-ad1c-0df8bea37ba6" x1="1030.07" y1="1651.15" x2="387.1" y2="2139.12" xlink:href="#uuid-e2edde1e-5584-423d-9bd5-a12117a6f732"/><linearGradient id="uuid-d293f968-cf1e-47bb-8089-7c495a3f0242" x1="796.61" y1="1498.8" x2="233.52" y2="1926.15" xlink:href="#uuid-e2edde1e-5584-423d-9bd5-a12117a6f732"/><linearGradient id="uuid-0be58aea-5ae3-45ec-9c8e-7f63812ff93d" x1="854.57" y1="1550.06" x2="278.78" y2="1987.05" xlink:href="#uuid-e2edde1e-5584-423d-9bd5-a12117a6f732"/><linearGradient id="uuid-ce562fea-265a-4e4e-8127-dab63f5db0f1" x1="914.77" y1="1601.9" x2="325.81" y2="2048.87" xlink:href="#uuid-e2edde1e-5584-423d-9bd5-a12117a6f732"/><linearGradient id="uuid-409ed7e6-a075-497a-a1c2-d0524192e8ce" x1="977.68" y1="1654" x2="374.63" y2="2111.68" xlink:href="#uuid-e2edde1e-5584-423d-9bd5-a12117a6f732"/><linearGradient id="uuid-f2739b16-a430-4b46-b915-a40b6a00e65f" x1="1042.7" y1="1706.94" x2="425.53" y2="2175.33" xlink:href="#uuid-e2edde1e-5584-423d-9bd5-a12117a6f732"/><linearGradient id="uuid-89d6d67b-2d04-40e9-afd9-a1a467dc7c22" x1="826.72" y1="1542.52" x2="273.7" y2="1962.22" xlink:href="#uuid-e2edde1e-5584-423d-9bd5-a12117a6f732"/><linearGradient id="uuid-34d68eef-1b3f-4ff0-8855-bc6361aedade" x1="883.38" y1="1593.98" x2="318.23" y2="2022.89" xlink:href="#uuid-e2edde1e-5584-423d-9bd5-a12117a6f732"/><linearGradient id="uuid-5e3b3a00-e806-4ec3-980f-2b3f04727f31" x1="942.16" y1="1646.04" x2="364.45" y2="2084.48" xlink:href="#uuid-e2edde1e-5584-423d-9bd5-a12117a6f732"/><linearGradient id="uuid-4d18f28d-b067-4ce2-b6bb-fc6ae38e1015" x1="1001.85" y1="1699.68" x2="412.83" y2="2146.71" xlink:href="#uuid-e2edde1e-5584-423d-9bd5-a12117a6f732"/><linearGradient id="uuid-03279ab4-13a9-42fa-830e-3034da82b32a" x1="1066.25" y1="1752.13" x2="462.38" y2="2210.42" xlink:href="#uuid-e2edde1e-5584-423d-9bd5-a12117a6f732"/><linearGradient id="uuid-3760b72c-4332-4948-ac63-7db8f07190ed" x1="849.21" y1="1589.58" x2="319.76" y2="1991.4" xlink:href="#uuid-e2edde1e-5584-423d-9bd5-a12117a6f732"/><linearGradient id="uuid-915abae1-2c37-4047-a4b1-1927083984b0" x1="903.77" y1="1641.85" x2="362.81" y2="2052.39" xlink:href="#uuid-e2edde1e-5584-423d-9bd5-a12117a6f732"/><linearGradient id="uuid-03894c88-974a-4db2-b2db-fc3515f26478" x1="960.31" y1="1694.75" x2="407.47" y2="2114.32" xlink:href="#uuid-e2edde1e-5584-423d-9bd5-a12117a6f732"/><linearGradient id="uuid-6260b2fe-5250-4770-96e7-552fa7901680" x1="1019.1" y1="1748.27" x2="453.77" y2="2177.32" xlink:href="#uuid-e2edde1e-5584-423d-9bd5-a12117a6f732"/><linearGradient id="uuid-3c29573a-1c24-4ed5-ab0c-d27f3dcb2415" x1="1079.89" y1="1802.46" x2="501.88" y2="2241.13" xlink:href="#uuid-e2edde1e-5584-423d-9bd5-a12117a6f732"/><linearGradient id="uuid-43d92791-6231-4537-be83-837923e694c1" x1="876.81" y1="1631.65" x2="364.29" y2="2020.61" xlink:href="#uuid-e2edde1e-5584-423d-9bd5-a12117a6f732"/><linearGradient id="uuid-fc5425b3-cebb-465c-8ded-d335b1f95f1b" x1="929.75" y1="1684.36" x2="406.3" y2="2081.62" xlink:href="#uuid-e2edde1e-5584-423d-9bd5-a12117a6f732"/><linearGradient id="uuid-e087ff22-c514-4dc7-ab87-1114a094e0a6" x1="984.59" y1="1737.73" x2="449.82" y2="2143.58" xlink:href="#uuid-e2edde1e-5584-423d-9bd5-a12117a6f732"/><linearGradient id="uuid-0542f71f-06ae-4115-8664-3bb760f92871" x1="1041.45" y1="1791.65" x2="494.88" y2="2206.46" xlink:href="#uuid-e2edde1e-5584-423d-9bd5-a12117a6f732"/><linearGradient id="uuid-a5b44755-2f6e-4d09-b7e7-11409678cc64" x1="1100.35" y1="1846.35" x2="541.68" y2="2270.34" xlink:href="#uuid-e2edde1e-5584-423d-9bd5-a12117a6f732"/><linearGradient id="uuid-116efa25-bd55-4375-ba89-808495ee4666" x1="903.92" y1="1671.52" x2="408.52" y2="2047.49" xlink:href="#uuid-e2edde1e-5584-423d-9bd5-a12117a6f732"/><linearGradient id="uuid-8bfe087b-f327-4d14-a4d9-72d37a4af895" x1="955.3" y1="1724.63" x2="449.48" y2="2108.51" xlink:href="#uuid-e2edde1e-5584-423d-9bd5-a12117a6f732"/><linearGradient id="uuid-8ede5db6-661c-4540-bc2b-2f4de4b1d7e7" x1="1008.46" y1="1778.44" x2="491.89" y2="2170.48" xlink:href="#uuid-e2edde1e-5584-423d-9bd5-a12117a6f732"/><linearGradient id="uuid-2914bf89-9c69-4c24-b276-a9c23dfa4e37" x1="1063.47" y1="1832.81" x2="535.73" y2="2233.32" xlink:href="#uuid-e2edde1e-5584-423d-9bd5-a12117a6f732"/><linearGradient id="uuid-2383910d-4713-4896-957f-02bcff96ab5f" x1="1120.6" y1="1887.98" x2="581.23" y2="2297.33" xlink:href="#uuid-e2edde1e-5584-423d-9bd5-a12117a6f732"/><linearGradient id="uuid-1c063f87-2eca-45fe-b5c0-49a033b70864" x1="213.91" y1="1727.52" x2="144.63" y2="1780.1" xlink:href="#uuid-e2edde1e-5584-423d-9bd5-a12117a6f732"/><linearGradient id="uuid-bcd7af58-efb6-466c-b645-83aa7d6ab05c" x1="231.25" y1="1811.98" x2="156.67" y2="1868.58" xlink:href="#uuid-e2edde1e-5584-423d-9bd5-a12117a6f732"/><linearGradient id="uuid-cd2201ad-dc80-46d0-99b7-2ddac53e6917" x1="245.37" y1="1901.32" x2="169" y2="1959.28" xlink:href="#uuid-e2edde1e-5584-423d-9bd5-a12117a6f732"/><linearGradient id="uuid-fcf06d51-d9c8-4aba-9db0-1eb8a6d59c9f" x1="259.86" y1="1992.92" x2="181.64" y2="2052.29" xlink:href="#uuid-e2edde1e-5584-423d-9bd5-a12117a6f732"/><linearGradient id="uuid-957fb7d4-129d-42b1-b26d-10fe3b8fe1f6" x1="274.73" y1="2086.86" x2="194.58" y2="2147.69" xlink:href="#uuid-e2edde1e-5584-423d-9bd5-a12117a6f732"/><linearGradient id="uuid-185ae2c9-ce55-4fbe-a7c0-1ef94ef040bf" x1="273.13" y1="1762.33" x2="239.2" y2="1788.08" xlink:href="#uuid-e2edde1e-5584-423d-9bd5-a12117a6f732"/><linearGradient id="uuid-9d87efaa-03b7-416b-b55b-fadd00e3a47a" x1="319.39" y1="1817.71" x2="249.11" y2="1871.04" xlink:href="#uuid-e2edde1e-5584-423d-9bd5-a12117a6f732"/><linearGradient id="uuid-b681d7c4-51d4-445b-90a3-93d6fc530375" x1="335.98" y1="1904.35" x2="262.39" y2="1960.2" xlink:href="#uuid-e2edde1e-5584-423d-9bd5-a12117a6f732"/><linearGradient id="uuid-2515bbd5-539a-431b-9a77-de2fc30a3bc4" x1="351.33" y1="1994.38" x2="275.98" y2="2051.56" xlink:href="#uuid-e2edde1e-5584-423d-9bd5-a12117a6f732"/><linearGradient id="uuid-7174f0b0-9ded-40cf-9804-a1012e9ba93d" x1="367.07" y1="2086.67" x2="289.9" y2="2145.24" xlink:href="#uuid-e2edde1e-5584-423d-9bd5-a12117a6f732"/><linearGradient id="uuid-1f7bb18f-d32d-48c7-bab0-fe6150a22571" x1="353.74" y1="1859.5" x2="337.62" y2="1871.73" xlink:href="#uuid-e2edde1e-5584-423d-9bd5-a12117a6f732"/><linearGradient id="uuid-d52b7114-bd1c-420d-ac49-49e118f3b8c0" x1="400.04" y1="1925.38" x2="353.05" y2="1961.05" xlink:href="#uuid-e2edde1e-5584-423d-9bd5-a12117a6f732"/><linearGradient id="uuid-5d2b4bea-dcfd-4d28-bdf4-27cdddc898e6" x1="439.92" y1="1995.78" x2="367.46" y2="2050.77" xlink:href="#uuid-e2edde1e-5584-423d-9bd5-a12117a6f732"/><linearGradient id="uuid-9505990c-37db-47dd-ad18-aa9a8bea1d70" x1="456.46" y1="2086.48" x2="382.28" y2="2142.78" xlink:href="#uuid-e2edde1e-5584-423d-9bd5-a12117a6f732"/><linearGradient id="uuid-870e642d-06c1-4d2d-a8f3-5c2b7504a5e4" x1="522.75" y1="1999.22" x2="455.93" y2="2049.94" xlink:href="#uuid-e2edde1e-5584-423d-9bd5-a12117a6f732"/><linearGradient id="uuid-cf0a4ef6-5537-4f3f-bed5-1427fdd8ff07" x1="542.81" y1="2086.32" x2="471.6" y2="2140.36" xlink:href="#uuid-e2edde1e-5584-423d-9bd5-a12117a6f732"/><linearGradient id="uuid-fd5072e3-6cf6-469d-8337-6cca37f968c8" x1="610.75" y1="2001.89" x2="543.24" y2="2053.12" xlink:href="#uuid-e2edde1e-5584-423d-9bd5-a12117a6f732"/><linearGradient id="uuid-270894c3-4195-4886-ac4a-00f47eb2c2d5" x1="626.74" y1="2085.68" x2="557.06" y2="2138.56" xlink:href="#uuid-e2edde1e-5584-423d-9bd5-a12117a6f732"/><linearGradient id="uuid-f1c3ef83-8c04-4253-b746-4addc24a674c" x1="688.5" y1="1999.99" x2="623.27" y2="2049.49" xlink:href="#uuid-e2edde1e-5584-423d-9bd5-a12117a6f732"/><linearGradient id="uuid-9c0abbb0-e66b-494d-8569-7d0c2b064747" x1="706.68" y1="2085.7" x2="639.99" y2="2136.31" xlink:href="#uuid-e2edde1e-5584-423d-9bd5-a12117a6f732"/><linearGradient id="uuid-023bc36d-0bab-4885-8645-52cea2d598bb" x1="766.34" y1="2000.44" x2="703.28" y2="2048.3" xlink:href="#uuid-e2edde1e-5584-423d-9bd5-a12117a6f732"/><linearGradient id="uuid-437818ce-c78a-4aa8-b4d0-d151d98ac83d" x1="785.52" y1="2085.28" x2="721.06" y2="2134.2" xlink:href="#uuid-e2edde1e-5584-423d-9bd5-a12117a6f732"/><linearGradient id="uuid-585a0817-85b6-403b-840b-7ad2145b1bab" x1="824.73" y1="2015.06" x2="780.82" y2="2048.38" xlink:href="#uuid-e2edde1e-5584-423d-9bd5-a12117a6f732"/><linearGradient id="uuid-400ede3b-311d-460b-8251-a47cd9bd1fd5" x1="860.96" y1="2085.03" x2="798.73" y2="2132.26" xlink:href="#uuid-e2edde1e-5584-423d-9bd5-a12117a6f732"/><linearGradient id="uuid-b969f93d-ca5a-44ec-80c8-51d619374bf6" x1="62.52" y1="1805.63" x2="111.32" y2="1677.21" xlink:href="#uuid-9e42c5e1-fc40-4dc6-84d1-7ff76e820013"/><linearGradient id="uuid-7b4d99a3-b29a-4e7f-bf70-ff15643694c1" x1="-3819" y1="-1871.23" x2="-3798.91" y2="-1549.77" gradientTransform="translate(4492.83 122.87) rotate(-49.96)" xlink:href="#uuid-9e42c5e1-fc40-4dc6-84d1-7ff76e820013"/><linearGradient id="uuid-855bb154-648e-4ad7-9789-5408c5005500" x1="836.35" y1="2199.21" x2="740.82" y2="1705.6" gradientTransform="matrix(1,0,0,1,0,0)" xlink:href="#uuid-e2dc4696-1eb9-4792-a58a-f4a7f511c748"/><linearGradient id="uuid-766dea11-6ced-492c-8c69-b09d239d7b5a" x1="2109.4" y1="2507.51" x2="2132.71" y2="2927.12" gradientTransform="matrix(1,0,0,1,0,0)" xlink:href="#uuid-2b8e9b5d-1bc5-4975-8e2b-37ee0de10aaa"/><linearGradient id="uuid-d819b9a8-ed83-4dba-be1a-4a21c5785c60" x1="2133.84" y1="2642.08" x2="2168.75" y2="2642.08" xlink:href="#uuid-9e42c5e1-fc40-4dc6-84d1-7ff76e820013"/><linearGradient id="uuid-1cd183ee-9afe-409d-8b6c-c403d2416e42" x1="2531.33" y1="2484.07" x2="2554.64" y2="2903.67" gradientTransform="matrix(1,0,0,1,0,0)" xlink:href="#uuid-2b8e9b5d-1bc5-4975-8e2b-37ee0de10aaa"/><linearGradient id="uuid-fceb359c-0536-41d0-a54b-2b6b572a3381" x1="2488.29" y1="2620.55" x2="2557.72" y2="2620.55" xlink:href="#uuid-9e42c5e1-fc40-4dc6-84d1-7ff76e820013"/><linearGradient id="uuid-6d4384ea-79f8-4d7f-8ff8-38817ff0a8c0" x1="2115.11" y1="2600.03" x2="2103.45" y2="2149.35" gradientUnits="userSpaceOnUse"><stop offset="0" stop-color="#311944"/><stop offset="1" stop-color="#893976"/></linearGradient><linearGradient id="uuid-f6d2acca-efdb-449f-b55e-f82a50e35220" x1="2374.25" y1="2593.33" x2="2362.59" y2="2142.64" xlink:href="#uuid-6d4384ea-79f8-4d7f-8ff8-38817ff0a8c0"/><linearGradient id="uuid-9ebcd05d-735c-47ee-8d0f-3c9450451e8d" x1="2081.49" y1="1191.29" x2="2614.29" y2="1191.29" gradientTransform="matrix(1,0,0,1,0,0)" xlink:href="#uuid-92566ee9-403f-4eaf-b7e9-246379098961"/><linearGradient id="uuid-e7e20edb-1e60-47a1-beb4-ea5154dedd5a" x1="1962.85" y1="1156.53" x2="2288.82" y2="1739.56" gradientTransform="matrix(1,0,0,1,0,0)" xlink:href="#uuid-caf42596-70f9-423d-82f3-10d43f857ebe"/><linearGradient id="uuid-de71dbbf-3da0-49d4-8ac9-ae62b1597a78" x1="1922.92" y1="1578.52" x2="2379.63" y2="1578.52" gradientTransform="matrix(1,0,0,1,0,0)" xlink:href="#uuid-caf42596-70f9-423d-82f3-10d43f857ebe"/><linearGradient id="uuid-7fe4db92-c802-485b-95d1-bf209db9080e" x1="-1755.99" y1="2178.31" x2="-1792.21" y2="2274.88" gradientTransform="translate(4777.26 -115.12) rotate(25.9)" xlink:href="#uuid-9e42c5e1-fc40-4dc6-84d1-7ff76e820013"/><linearGradient id="uuid-d5abf7d5-5b64-4d83-929d-bc78120da2d2" x1="-1768.33" y1="2056.07" x2="-1890.77" y2="2207.83" gradientTransform="translate(4777.26 -115.12) rotate(25.9)" xlink:href="#uuid-9e42c5e1-fc40-4dc6-84d1-7ff76e820013"/><linearGradient id="uuid-3478899c-6aa9-4a7e-9d5a-c4ef8b8f0b9b" x1="2142.95" y1="1325.67" x2="1690.31" y2="1524.98" gradientTransform="matrix(1,0,0,1,0,0)" xlink:href="#uuid-caf42596-70f9-423d-82f3-10d43f857ebe"/><linearGradient id="uuid-02fbd736-a127-42b8-9187-4e2c48f79f61" x1="2227.38" y1="1380.74" x2="2509.95" y2="1380.74" gradientTransform="matrix(1,0,0,1,0,0)" xlink:href="#uuid-caf42596-70f9-423d-82f3-10d43f857ebe"/><linearGradient id="uuid-0d9262c1-893f-4451-8739-6a7d49b1c815" x1="2289.31" y1="1603.54" x2="2235.29" y2="1383.74" xlink:href="#uuid-9e42c5e1-fc40-4dc6-84d1-7ff76e820013"/><linearGradient id="uuid-d32ce419-ab02-474b-a40e-21349e6d1096" x1="2241.4" y1="1615.31" x2="2187.38" y2="1395.51" xlink:href="#uuid-9e42c5e1-fc40-4dc6-84d1-7ff76e820013"/><linearGradient id="uuid-17f1aace-889c-4e95-b04d-996179d54f54" x1="2184.68" y1="845.34" x2="2645.92" y2="845.34" gradientTransform="translate(1305.17 -1460.28) rotate(45)" gradientUnits="userSpaceOnUse"><stop offset="0" stop-color="#e38ddd"/><stop offset="1" stop-color="#9571f6"/></linearGradient><linearGradient id="uuid-b43022fc-e65e-4902-bb15-8f3f625dac34" x1="2184.68" y1="848.18" x2="2562.93" y2="848.18" gradientTransform="matrix(1,0,0,1,0,0)" xlink:href="#uuid-17f1aace-889c-4e95-b04d-996179d54f54"/></defs><g class="uuid-348096cf-542b-4886-96f9-15e9386bad35"><g id="uuid-3140d205-e89f-4f87-b39e-7192c0822426"><path class="uuid-bd58a7d4-8a5e-4962-be72-35503a91fe94" d="m2059.08,227.57c92.97,130.16-12.19,343.86,124.76,441.05,133.31,94.6,294.17-64.45,419.72,16.86,186.25,120.63,158.37,681.87-108.38,1033.2-80.22,105.66-147.74,147.15-176.59,265.99-61.94,255.19,166.76,404.19,124.87,530.52-94.33,284.45-1588.47,538.02-2197.95-307.44C-39.14,1812.89-87.15,1238.88,158.85,799.94,603.37,6.79,1850.47-64.48,2059.08,227.57Z"/><g class="uuid-0e5a1f09-cd5a-4487-b12c-6ed0dbd4a2fe"><path class="uuid-968750d8-0771-4c46-9c16-cb33a13ec527" d="m761.09,1530.32l268.04,84.75s93.93-121.54,58.92-239.35c-71.42-240.36,144.07-286.13,231.46-318.81,131.79-49.28,212.12-141.39,106.99-250.86-118.96-123.86,73.74-292.5,298.05-341.41,219.51-47.86,261.09-465.67-223.52-405.71-289.4,35.81-334.55,316.37-391.04,452.63-56.48,136.26-268.53,81.97-251.33,275.68,14.69,165.46,96.73,308.66-23.38,381.25-120.11,72.59-164.88,182.4-74.2,361.83Z"/><g class="uuid-afb68662-ea95-4f62-b7f8-75ff95d63304"><path class="uuid-f342ce2d-bbc5-45e5-ab59-c6e49590f9c5" d="m869.23,1591.87l5.89.74c.46-3.65,47.63-368.62,203.5-716.34,143.59-320.34,411.5-691.15,872.38-638.52l.67-5.9c-205.16-23.43-389.79,33.65-548.76,169.65-126.99,108.64-237.94,267.59-329.75,472.45-156.2,348.52-203.46,714.26-203.92,717.92Z"/><path class="uuid-f342ce2d-bbc5-45e5-ab59-c6e49590f9c5" d="m1338.93,461.2l5.84,1.07c35.82-194.25,190.96-437.21,192.52-439.65l-4.99-3.21c-1.57,2.44-157.34,246.4-193.37,441.78Z"/><path class="uuid-f342ce2d-bbc5-45e5-ab59-c6e49590f9c5" d="m1447.34,373.49c228.01-58.45,387.97,54.76,389.56,55.91l3.48-4.81c-1.61-1.17-163.71-116.02-394.51-56.86l1.47,5.75Z"/><path class="uuid-f342ce2d-bbc5-45e5-ab59-c6e49590f9c5" d="m989.1,1109.15c147.62-246.78,531.15-197.49,534.85-196.69l1.62-5.7c-3.55-1.12-392.63-49.62-541.56,199.35l5.09,3.05Z"/><path class="uuid-f342ce2d-bbc5-45e5-ab59-c6e49590f9c5" d="m1023.1,995.55l5.91.6c18.53-182.56-130.01-359.17-131.52-360.93l-4.52,3.85c1.49,1.75,148.4,176.48,130.12,356.49Z"/><path class="uuid-f342ce2d-bbc5-45e5-ab59-c6e49590f9c5" d="m883.81,1535.34c40.99-101.26,215.24-136.61,216.99-136.95l-1.14-5.82c-7.29,1.43-179.15,36.3-221.35,140.55l5.5,2.23Z"/><path class="uuid-f342ce2d-bbc5-45e5-ab59-c6e49590f9c5" d="m893.82,1448.76l5.88.81c11.81-85.56-82.31-214.79-113.24-257.26-4.37-6-8.14-11.18-8.63-12.24l-5.42,2.42c.67,1.5,3.17,4.95,9.25,13.31,30.58,41.99,123.63,169.76,112.15,252.96Z"/></g></g><path class="uuid-48ad6ed4-d610-4142-b8dc-a7da4afb9aaa" d="m610.79,1442.55c59.01,39.09,64.64,107.51,60.96,157.65-5.94,3.31-8.52,6.72-13.76,11.37-47.28,41.97-76.4,49.8-129.53,83.81-11.44,7.32-51.54,18.6-68.22,22.15l-31.21,6.13s-123.77-105.93-71.62-182.59c52.16-76.65-52.63-192.18-100.61-260.22-29.46-41.78-29.55-70.33-37.91-87.42-88.49-180.91-170.54-202.99-163.18-279.5,8.13-84.46,110.45-81.73,124.14-173.13,15.46-103.22-104.62-176-68.16-270.41,6.25-16.19,13.11-32.65,29.26-49.23,39.85-40.93,94.34-35,106.25-93.5,23.93-117.59,121.27-208.48,236.81-164.41,114.04,43.5,126.16,248.03-1.1,487.62-71.08,180.71-54.38,213.96,1.93,286.36,39.44,50.71,179.96,162.07,132.2,263.55-47.76,101.49-73.72,197.07-6.26,241.76Z"/><g class="uuid-cf40ae4b-f1f2-4725-a667-63c9bcac3122"><g class="uuid-afb68662-ea95-4f62-b7f8-75ff95d63304"><path class="uuid-3f8bddfe-2014-49d4-b9b7-f760160c30fe" d="m558.44,1681.62l-4.31,1.75c-9.9-23.68-19.57-47.69-28.74-71.36-67.88-175.29-115.6-350.98-141.83-522.2-22.22-145.08-29.37-288.98-21.24-427.71,6.54-111.56,22.95-220.4,48.78-323.5,18.16-72.47,40.75-141.38,67.14-204.8,4.6-11.05,9.95-22.14,15.12-32.87,6.89-14.29,14.02-29.07,19.42-43.87l4.36,1.24c-5.48,15.01-12.65,29.88-19.59,44.27-5.15,10.67-10.47,21.71-15.02,32.65-26.31,63.22-48.83,131.92-66.94,204.19-25.77,102.84-42.14,211.42-48.66,322.72-8.12,138.44-.98,282.06,21.2,426.85,26.19,170.93,73.83,346.34,141.6,521.36,9.15,23.64,18.81,47.62,28.7,71.27Z"/><path class="uuid-3f8bddfe-2014-49d4-b9b7-f760160c30fe" d="m364.44,830.96l-4.61.44c-10.63-185.51-232.38-417.32-234.62-419.63l3.48-3c2.25,2.33,225.03,235.2,235.75,422.2Z"/><path class="uuid-3f8bddfe-2014-49d4-b9b7-f760160c30fe" d="m442.7,1345.3l-4.55.94c-22.96-124.58,142.23-321.14,143.9-323.11l3.56,2.61c-1.66,1.95-165.51,196.93-142.91,319.56Z"/><path class="uuid-3f8bddfe-2014-49d4-b9b7-f760160c30fe" d="m462.28,1414.63l-4.34,1.67c-30.17-76.86-115.76-164.55-241-246.9q-6.3-4.14-6.61-4.9l4.32-1.72-2.16.86,1.69-1.54c.38.32,2.76,1.89,5.52,3.7,125.95,82.82,212.1,171.19,242.57,248.83Z"/><path class="uuid-3f8bddfe-2014-49d4-b9b7-f760160c30fe" d="m541.02,1638.14l-4.61.46c-5.62-91.23,101.5-187.24,102.58-188.2l3.08,3.1c-1.07.95-106.54,95.52-101.05,184.65Z"/><path class="uuid-3f8bddfe-2014-49d4-b9b7-f760160c30fe" d="m552.46,1685.29c-51.56-53.47-121.83-94.01-214.83-123.94l1.68-4.12c93.72,30.16,164.58,71.07,216.64,125.06l-3.48,3Z"/><path class="uuid-3f8bddfe-2014-49d4-b9b7-f760160c30fe" d="m401.43,400.32l-4.61.2c.22-103.73-25.13-211.6-33.45-247.05-2.02-8.58-2.72-11.6-2.76-12.71l4.61-.38c.05.84,1.2,5.75,2.66,11.96,8.35,35.56,33.78,143.79,33.56,247.99Z"/><path class="uuid-3f8bddfe-2014-49d4-b9b7-f760160c30fe" d="m374.55,570.1l-4.41-1.09c30.66-94.25,214.05-192.44,221.84-196.57l2.12,3.76c-1.89,1-189.47,101.41-219.55,193.9Z"/></g></g><path class="uuid-803edba7-5c93-4330-ae86-fea80a801fe0" d="m899.04,1936.37c-15.89,4.36-30.46-80.91-115.78-162.36-21.32-20.35-106.73,222.79-232.45,62.34-14.5-18.51-54.92-142.76-76.94-134.51-38.93-40.99-68.03-86.84-9.94-132.87,90.21-71.49,19.39-242.2-34.7-290.54-66.94-59.83-219.71-202.28-82-314.83,114.64-93.7,208.03-132.44,148.49-295.38-59.54-162.94-10-300.58,147.67-354.89C809.32,256.18,854.51-.98,1016.13,11.65c281.62,22.02,224.1,459.44-12.6,677.52-236.7,218.08-34.7,246.25,29.13,373.32,5.26,12.13,12.47,31.34,16.68,55.64,25.92,149.57-107.03,232.43-162.59,386.81-75.78,210.53,39.05,424.1,12.28,431.43Z"/><g class="uuid-8dc2ab6a-d760-45ed-b59e-0db4fe741b3d"><g class="uuid-afb68662-ea95-4f62-b7f8-75ff95d63304"><path class="uuid-3f8bddfe-2014-49d4-b9b7-f760160c30fe" d="m667.25,1606.82l-8.1,1.67C549.33,1048.44,727.38,432.11,1123.83,0l6.13,5.05c-394.77,430.28-572.08,1044.05-462.71,1601.77Z"/><path class="uuid-3f8bddfe-2014-49d4-b9b7-f760160c30fe" d="m635.02,1295.8l-7.64,3.15c-88.25-206.32-345.02-289.82-347.6-290.64l2.82-7.44c2.62.83,262.78,85.37,352.43,294.94Z"/><path class="uuid-3f8bddfe-2014-49d4-b9b7-f760160c30fe" d="m650.01,1503.19l-8.18-.64c26.95-227.57,420.27-420.01,424.24-421.93l3.55,6.97c-3.93,1.9-393.16,192.36-419.6,415.6Z"/><path class="uuid-3f8bddfe-2014-49d4-b9b7-f760160c30fe" d="m715.26,737.22l-8.24.03c5.16-181.14-200.78-371.89-202.86-373.8l5.8-5.73c2.11,1.93,210.55,195.01,205.3,379.5Z"/><path class="uuid-3f8bddfe-2014-49d4-b9b7-f760160c30fe" d="m855.38,394.66l-6.62-4.47c129.08-169.53,417.98-224.06,420.89-224.59l1.32,7.7c-2.87.52-288.52,54.47-415.59,221.36Z"/></g></g><g class="uuid-3f33a6ad-66c0-4849-b0d9-607c29a21d2d"><path class="uuid-3934c945-f978-4aba-92d1-7530aa913fa8" d="m2539.9,1486.47c0,249.45-78.34,480.86-211.18,671.33-.52.78-2.4,1.53-2.4,2.32v.03c-208.43,305.39-565.57,503.25-966.21,503.25-32.77,0-64.15-1.53-96.24-5.97h-.03c-.13,0-.2,1.95-.33,1.95-15.8-1.31-31.46-1.91-47.06-3.84-5.55-.65-11.1-.88-16.61-1.66-4.9-.65-9.76-1.09-14.62-1.84-4.24-.62-8.45-1.15-12.63-1.83-.95-.16-1.89-.26-2.84-.4-10.28-1.7-20.53-3.46-30.74-5.42-.07,0-.1-.02-.16-.02-544.7-104.05-956.26-582.91-956.26-1157.92,0-121.58,17.66-238.87,51.87-349.22,5.35-17.3,12.02-34.4,16.45-51.34v-.03c13.3-28.23,22.22-55.94,34.46-83.13,4.93-10.87,10.38-21.67,15.57-32.38,28.69-58.81,62.3-114.89,100-167.73,3.43-4.8,6.98-9.56,10.48-14.33,13.97-19,28.54-37.53,43.65-55.65,22.62-27.15,46.43-53.3,71.37-78.3,64.92-65.15,137.42-122.75,216.04-171.35,24.32-15.05,49.26-29.24,74.71-42.49,61.65-32.18,126.48-59.04,193.94-80,110.71-34.43,228.4-52.97,350.44-52.97,280.66,0,538.4,98.04,740.82,261.76,148.89,120.43,269.99,276.35,346.17,454.91,17.04,39.88,28.55,80.88,46.29,122.85v.03c0,.2-2.03.33-1.97.52,32.18,107.31,47.02,221.06,47.02,338.85Z"/><g class="uuid-abed2540-8861-4528-9476-bed19ff3a397"><path class="uuid-34b1d07a-ccd2-4833-835d-0e4ea3589df3" d="m1263.85,2661.41v-.03h.1l-.07.03h-.03Z"/><path class="uuid-34b1d07a-ccd2-4833-835d-0e4ea3589df3" d="m1618.39,1883.94c-25.29,35.64-103.56,81.4-50.46,171.28,52.65,89.66-3.65,106.47-39.88,98.08-36.39-8.29-149.52-12.92-130.65,38.48,18.8,51.47,51.21,70.76,9.76,90.64-41.42,19.78-58.94,71.45-101.34,142.56-42.1,71.25-142.17,9.63-112.54,81.04,29.57,71.44,52.65,64.53,49.87,114.3-.65,13.68,8.42,27.71,20.69,41.06-15.8-1.31-31.66-2.91-47.39-4.83-5.55-.65-11.1-1.37-16.61-2.15-4.9-.65-9.76-1.34-14.62-2.09-4.24-.62-8.45-1.27-12.63-1.96-.95-.16-.7-.33-1.65-.46-10.12-1.7-15.37-3.53-28.67-5.45v-.03c-8.87-8.42-3.31-17.56-1.97-27.42,13.22-91.91-113.59-155.06-134.84-219.46-20.89-64.23-.26-102.55-5.1-155.78-4.96-53.13,12.42-123.6-18.16-168.38-30.58-44.62-153.87-59.56-177.33-149.61-23.63-89.85,31.33-224.42,52.67-247.33,21.08-22.91-102.08-127.16-160.7-130.49-58.88-3.59-35.32-122.13-134.87-104.08-99.74,17.49-278.93-38.15-241.92-98.01,30.55-49.32,81.83-158.1-85.57-206.6,5.35-17.3,11.98-34.4,16.42-51.34v-.03c13.3-28.23,22.22-55.94,34.46-83.13,4.93-10.87,10.38-21.67,15.57-32.38,28.72-58.81,62.34-114.89,100-167.73,3.43-4.8,6.98-9.56,10.48-14.33,14-19,28.57-37.57,43.65-55.65,22.62-27.15,46.43-53.3,71.37-78.3,64.92-65.15,137.42-122.75,216.04-171.35,33.16,23.24,71.03,37.57,103.73,19.91,80.19-44.88,27.32-51.76-5.51-53.43-8.55-.42-16.84-3.82-23.5-8.98,61.65-32.18,126.47-59.04,193.94-80-4.99,45.27-66.52,117.99-21.25,109.11,52.68-10.02,74.19-152.35,112.86-105.06,39.23,47.49-42.92,109.73,34.24,73.66,77.25-35.71,87.57-115.41,173.67-76.63,86.52,39.26,78.63,85.74,102.78,81.14,24.05-4.54,101.86,47.75,54.8,90.77-47.49,43.15-91.03-11.81-162.21-28.4-71.22-16.38-69.49,41.87-102.25,55.19-33.32,12.86-194.07-64.82-233.53,5.38-39.88,69.65-56.86,118.25,2.35,116.45,59.14-1.66,62.96-16.97,58.32,26.76-4.73,43.77,6.04,76.54,59.63,35.38,53.43-41.09,41.45-81.17,83.23-61.59,41.81,19.65,46.74,1.86,91.19-30.42,44.42-32.28,102.87-35.64,118.18,36.78,15.34,72.46-10.87,88.71-89,92.37-78.17,3.79-87.01-20.86-111.92,44.48-24.77,65.37-128.17,149.32-218.93,183.92-90.6,34.66-126.11,85.87-124.02,154.96,2.15,69.23-31.92,142.24-54.67,85.19-22.85-57.22-86.88-153.56-152.22-89.17-65.47,64.53-179.41,178.59-53.49,199.45,125.66,21.25,60.09-96.48,123.6-72.95,63.42,23.69-40.18,75.59,2.22,94.32,42.46,18.9,60.25,10.05,59.92,67.92-.33,57.83,14.07,114,65.6,89.46,51.5-24.45,117.66-137.83,192.17-70.76,74.61,67.23,69.32,58.49,108.46,38.9,39.1-19.55,64,39.07,80.03,65.77,16.02,26.67,78.89-.56,129.84,78.89,50.91,79.44,70.89,93.61,128.95,65.02,58.09-28.56,81.73-7.34,96.87,32.77,15.08,40.11,50.85.91,68.08,53.92,17.14,52.97,8.91,44.75-16.22,80.42Z"/><path class="uuid-34b1d07a-ccd2-4833-835d-0e4ea3589df3" d="m1817.22,921.47c-41.16-88.32,162.76-78.4,198.8-71.61,36.26,6.04,121.31-60.45,132.12-91.35,11.1-31.14,29.31-16.35,93.83-17.23,64.49-.69,7.5-15.28-63.48-38.68-70.86-23.34-10.28-25.69-75.59-77.25-28.1-22.59-19.26-41.78-.52-56.04,148.9,120.43,267.86,276.35,344.04,454.91-2.16-.65-4.18-1.01-6.07-1.04-45.17-.26-55.13-100.13-78.4-119.59-22.95-19.42.65,54.86,6.27,85.38,5.65,30.55-12.37,4.86-34.89,32.9-22.62,28.07-63.45,28.59-67.14-13.51-3.75-42.01-33.35-83.26-93.44-102.45-60.09-19.19-112.08-3.43-160.9,15.4-48.56,18.51-153.17,87.8-194.62.16Z"/><path class="uuid-34b1d07a-ccd2-4833-835d-0e4ea3589df3" d="m2329.18,2160.12c4.08-30.32,10.74-61.65-1.93-73.11-30.78-28.56-37.5-106.37-26.83-145.79,10.64-39.52,93.57-37.27,37.3-102.91-56.43-65.83-107.28-143.97-83.59-188.65,23.7-44.62,16.52-47.88-27.9-47.62-44.49.26-63.97,2.22-108.26-37.34-44.32-40.08-105.29,94.58-272.1-13.41-166.78-109.08-71.8-292.93-9.3-293.38,62.89-1.04,136.36-32.8,84.83-109.5-51.37-76.99,28.92-87.86,68.15-70.37,39.3,17.3,108.98-29.18,180-50.13,71.18-20.86,68.05,95.11,107.57,118.31,39.75,23.24,114.23,4.8,152.94-32.34,27.65-26.5,33.68,4.41,61,33.75,32.18,107.31,49.45,221.06,49.45,338.85,0,250.46-78.1,482.72-211.33,673.65Z"/><path class="uuid-34b1d07a-ccd2-4833-835d-0e4ea3589df3" d="m2030.82,774.47c.04-.07,52.01-23.53,33.18-61.33-18.67-37.81-48.27-153.68-69.9-117.17-21.77,36.68,10.32,107.9,3.32,138.63-7.07,30.82-7.26,46.96,33.41,39.87Z"/><path class="uuid-34b1d07a-ccd2-4833-835d-0e4ea3589df3" d="m1978.93,739.1c-.73-12.18,6.94-61.65-31.99-60.1.07-.08-56.31,23.45-23.33,63.42,33.13,39.85,56.16,8.83,55.32-3.32Z"/></g><path class="uuid-cc223f1b-ab91-4b76-98c6-2b69894f3453" d="m2536.76,1484.41c0,249.45-76.78,480.86-209.61,671.33-.52.78-.83,1.53-.83,2.32v.03c-212.86,305.39-567.14,502.32-967.77,502.32-32.77,0-65.72-2.5-97.8-6.93h-.03c-.13,0-.2,2.92-.33,2.92-15.8-1.31-31.46-1.46-47.06-3.39-5.55-.65-11.1-.63-16.61-1.42-4.9-.65-9.76-.97-14.62-1.72-4.24-.62-8.45-1.07-12.63-1.76-.95-.16-1.89-.24-2.84-.37-10.28-1.7-20.53-3.45-30.75-5.41-.07,0-.1-.01-.16-.01-503.7-96.22-893.53-513.24-949.38-1030.13,118.12,338.81,410.19,593.39,769.28,664.34h.13c8.81,4.43,17.66,3.54,26.53,5.01.82.1,1.67.38,2.48.51,3.59.59,7.24,1.19,10.9,1.71,4.18.65,8.39,1.18,12.63,1.74,4.77.69,9.53,1.1,14.33,1.65,13.48,1.66,26.99,4.74,40.63,5.84.13,0,.2,1.28.29,1.28h.03c27.71,0,55.32,2.23,83.62,2.23,172.98,0,336.01-43.98,478.64-119.86,142.63-75.88,264.86-185.29,356.24-317.15,0-.69,1.11-1.6,1.53-2.29,114.72-164.46,181.86-364.44,181.86-579.85,0-101.7-14.93-200.01-42.74-292.67-.03-.16-.41-.36-.41-.52v-.03c-8.87-36.23-23.16-71.64-37.84-106.07-65.8-154.21-168.26-288.85-296.85-392.83-94.13-76.14-202.08-135.81-319.55-174.68,237.93,21.9,455.4,114.56,631.16,256.7,148.89,120.43,269.34,276.35,345.52,454.91,17.04,39.88,27.9,80.88,45.64,122.85v.03c0,.2-1.38.33-1.32.52,32.18,107.31,47.68,221.06,47.68,338.85Z"/></g><path class="uuid-34b1d07a-ccd2-4833-835d-0e4ea3589df3" d="m1514.68,678.76c-230.55-114.03-524.59,76.2-639.73,284.19-30.93,55.88-47.8,111.01-56.96,159.27-47.86,91.06-72.77,170.78-74.93,177.85-3.42,11.18,2.86,23.01,14.04,26.43.55.17,1.1.31,1.65.43,10.67,2.36,21.53-3.84,24.79-14.47,1.1-3.59,112.45-359.58,317.07-420.12,205.07-60.66,443.66,119.76,446.04,121.59,0,0-417.54-285.56-605.54,86.39,21.94-10.37,45.73-18.29,71.5-22.25,147.08-22.59,229.05,100.29,406.11,118.36,76.57,7.81,187.4-2.29,329.24-88.21-5.87-187.11-89.87-358.55-233.29-429.48Z"/><path class="uuid-34b1d07a-ccd2-4833-835d-0e4ea3589df3" d="m2082.84,2134.36c192.21-170.91,126.22-514.85-23.37-699.62-40.19-49.64-84.96-85.96-126.26-112.56-66.44-78.53-130.99-131.53-136.74-136.19-9.08-7.37-22.4-5.98-29.77,3.09-.36.45-.7.9-1.02,1.37-6.19,9-4.52,21.4,4.11,28.41,2.91,2.37,291.11,239.17,270.44,451.55-20.73,212.85-277.49,366.3-280.08,367.82,0,0,421.37-279.88,147.15-593.71,1.38,24.23-.21,49.25-6.21,74.63-34.25,144.81-178.91,174.68-262.1,332.02-35.98,68.04-68.2,174.56-41.78,338.29,175.64,64.77,366.07,51.24,485.64-55.08Z"/><path class="uuid-34b1d07a-ccd2-4833-835d-0e4ea3589df3" d="m522.5,1854.08c18.67,256.53,331.76,413.45,569.4,407.18,63.84-1.68,119.91-15.11,166.16-31.7,102.75-4.94,184.09-23.91,191.28-25.64,11.37-2.72,18.38-14.14,15.66-25.51-.13-.56-.29-1.11-.46-1.64-3.38-10.39-14.23-16.61-25.04-14.02-3.65.87-366.93,85.48-522.89-60.16-156.29-145.96-121.82-443.1-121.46-446.08,0,0-34.31,504.69,381.6,478.05-20.07-13.65-38.95-30.13-55.44-50.34-94.07-115.3-29.75-248.27-103.98-410.03-32.1-69.95-97.03-160.34-243.02-239-158.28,99.96-263.42,259.32-251.8,418.89Z"/><path class="uuid-44a66a25-336c-4319-9710-1ccefa74d2de" d="m497.29,2678.2c-3.76,3.06-4.46,10.7-4.91,15.69-.2,2.23-.3,3.35-.05,4.14,1.82,5.75,12.97,6.35,30.45,8.14,27.63,2.82,35.85,5,38.01.89,2.03-3.85-2.88-10.16-3.43-10.86-2.97-3.74-6.61-5.1-13.66-7.42-13.03-4.29-21.84-6.64-24.51-7.35-16.65-4.45-19.43-5.24-21.9-3.23Z"/><path class="uuid-da56cc9f-fb98-4c83-afb6-51c33c866f1d" d="m513.72,2652.96l2.76,31.48c-.78,1.52-10.14,6.08-17.57,2.17l-7.1-30.94,21.91-2.71Z"/><path class="uuid-2f1ee2a9-e474-4807-9dbb-3e7aae9caa2f" d="m740.5,2665.22c-4.51,4.98-5.54,14.16-1.62,18.67,3.86,4.44,9.65,1.11,26.1,1.6,17.61.53,22.21,4.69,34.18,1.38,4.84-1.34,13.38-4.58,13.21-8.03-.11-2.43-4.46-3.68-18.99-8.55-20.61-6.91-20.52-7.28-24.9-8.01-11-1.82-22.04-3.65-27.99,2.93Z"/><path class="uuid-6f981acf-98fb-4acb-bbd5-0d1d6b1baa37" d="m751.79,2636.5l8.83,29.39c-.67,1.58-9.65,6.84-17.36,3.5l-13.12-28.52,21.64-4.37Z"/><path class="uuid-34214ee6-cc04-4ef6-ba7c-369220f8c628" d="m673.29,1992.85c1.27,98.77,8.01,209.82,24.18,330.47,15.98,119.24,38.38,226.99,62.81,321.73-11.27,3.03-22.54,6.07-33.82,9.1-28.6-26.67-64.67-68.64-82.08-127.96-10.8-36.82-7.2-55.74-14.06-101.02-10.91-72.1-33.01-109.88-55.86-168.02-20.53-52.25-44.79-128.93-57.8-231.42,52.21-10.96,104.42-21.91,156.62-32.87Z"/><path class="uuid-7ff696f2-4f81-4f1f-87dd-551e7ad07ca9" d="m681.69,2467.12c-11.31-31.25-25.08-40.88-31.23-73.62-5.36-28.56,2-37.84,2.23-66.93.46-57.97-28.33-77.17-37.92-124.93-5.2-25.89,28.81-91.26,60-147.74-.73-20.82-1.22-41.2-1.47-61.05-52.21,10.96-104.41,21.91-156.62,32.87,13.01,102.49,37.28,179.17,57.8,231.42,22.84,58.14,44.95,95.92,55.86,168.02,6.85,45.28,3.25,64.2,14.06,101.02,17.41,59.32,53.48,101.3,82.08,127.96,1.06-.29,2.13-.57,3.19-.86-28.83-37.57-37.78-69.49-39.05-94.71-1.31-26.07,5.21-52.42-8.92-91.46Z"/><path class="uuid-b4114990-8017-4aff-a5f2-d4a2333c9d4b" d="m547.42,1992.36c-6.9,125.61-12.57,253.57-16.87,383.78-3.23,97.72-5.6,194.19-7.17,289.4-11.51,1.42-23.03,2.84-34.54,4.26-11.13-20.71-25.9-52.38-36.03-92.97-12.3-49.3-9.45-78.58-14.84-129.67-6.05-57.31-14.84-69.79-30.4-142.08-31.59-146.71-47.39-220.07-12.15-265.7,11.44-14.81,47.31-51.97,152.01-47.02Z"/><path class="uuid-cbb45b05-38c4-4f9e-b63a-6375f71c4d7a" d="m362.92,2112.99c-12.11-6.09-23.14-349.39-14.53-405.79,8.61-56.39-2.59-112.96,140.85-118.92,143.44-5.97,175.5,18.83,192.96,131.82,17.46,112.99,24.49,403.29,24.49,403.29,0,0-248.81,37.4-343.77-10.41Z"/><path class="uuid-28659dca-8785-4ed0-9d73-95ad226f28f7" d="m492.7,1537.8s7.95,31.2-20.69,44.01c-25.06,11.21-27.01,10.56-27.01,10.56,0,0,51.62,27.33,111.3-3.99,0,0-37.11-4.73-43.69-45.45l-19.91-5.14Z"/><path class="uuid-ec2e3543-fcf4-4953-a03d-3ba5f43daf78" d="m533.53,1513.96c10.71-13.5-3.35-48.81-16.24-49.64-6.62-.42-6.99,8.62-20.64,16.34-15.8,8.93-27.7,3.82-31.61,11.73-3.15,6.36,1.38,16.09,4.08,20.24,2.06,3.16,6.68,8.66,9.43,12.78,1.72,2.59,2.57,3.89,3.14,4.78.9,1.4,1.1,1.75,1.83,2.8,2.96,4.21,8.69,11.33,19.28,19.65.66-3.02,1.68-6.76,3.35-10.83.64-1.57,3.22-7.69,7.23-12.81,7.97-10.2,15.35-8.98,20.16-15.04Z"/><path class="uuid-71ffc748-54ea-45fb-bfd9-a3bc550bb467" d="m489.2,1544.4s10.81,16.84,31.52,15.01c18.54-1.64,20.29-43.34,8.22-51.89-4.02-2.86-11.98-3.89-18.38-1.94-3.78,1.15-5.03,2.77-11.24,4.53-5.73,1.63-7.38,1.03-9.08,2.53-2.14,1.88-3.63,6.41.29,18.5-3.62-3.51-7.91-4.78-10.89-3.29-.48.24-1.73,1.14-2.42,2.47-2.48,4.82,2,10.79,11.97,14.08Z"/><path class="uuid-34deaf2a-0540-4ffd-ad89-847718780869" d="m354.3,1840.91c-41.28,28.83-94.34,47.37-129.42,20.96-24.94-18.77-39.44-49.83-38.53-79.47,1.15-37.32,26.37-60.56,73.6-104.07,13.45-12.39,57.56-51.45,125.97-74.25,24.85-8.28,43.8-7.71,50.74-.66,15.83,16.07-17.48,82.9-69.17,129.58-33.19,29.97-68.3,42.76-64.85,58.43,3.29,14.95,25.83,5.56,45.68,23.37,8.42,7.56,7.56,18.79,5.98,26.1Z"/><path class="uuid-f0f15ab9-6ccf-42c8-ba4b-13d9769070bb" d="m858.64,2145.45l-91.24-393.18c-2.28-9.81-11.96-17.59-21.36-18.2l-641.43-42.17c-12.2-.8-21,6.8-19.47,17.97l61.98,451.56c1.74,12.68,13.69,23,26.57,22.66l671.55-18.05c9.76-.26,15.94-9.64,13.4-20.59Z"/><path class="uuid-c48c3637-0b71-405d-9367-5b9616ba3996" d="m777.19,1733.96l-644.73-42.07c-12.26-.8-21.1,6.78-19.56,17.93l62.29,450.42c1.75,12.65,13.75,22.95,26.7,22.6l675.04-17.93c9.81-.26,16.03-9.61,13.47-20.54l-91.73-392.25c-2.29-9.78-12.02-17.54-21.48-18.16Z"/><path class="uuid-d0c98ca9-9f34-49d4-9c84-661fb2d9e61b" d="m215.61,1723.93l9.29,60.95c.61,4.02-2.18,7.13-6.25,6.93l-63.25-2.99c-4.18-.2-8.18-3.67-8.75-7.75l-8.75-61.81c-.57-4,2.48-7.04,6.62-6.78l62.64,3.85c4.04.25,7.86,3.65,8.46,7.6Z"/><path class="uuid-8ca431b4-bbb1-486e-978a-a0318f6c486e" d="m228.79,1810.39l9.52,62.45c.63,4.12-2.19,7.36-6.3,7.24l-63.88-1.96c-4.22-.13-8.27-3.63-8.86-7.81l-8.97-63.35c-.58-4.1,2.49-7.27,6.67-7.08l63.26,2.87c4.08.18,7.95,3.61,8.56,7.66Z"/><path class="uuid-4419af2d-0593-4ce5-b343-03bbb066cf87" d="m242.3,1898.97l9.76,64.01c.64,4.22-2.19,7.61-6.34,7.55l-64.52-.88c-4.26-.06-8.36-3.59-8.97-7.87l-9.2-64.96c-.6-4.21,2.5-7.51,6.72-7.39l63.88,1.83c4.12.12,8.03,3.57,8.66,7.72Z"/><path class="uuid-5460d2ea-f004-411a-b9f7-141f32c3e958" d="m256.15,1989.78l10.01,65.63c.66,4.33-2.19,7.86-6.39,7.88l-65.17.26c-4.31.02-8.45-3.54-9.08-7.94l-9.44-66.63c-.61-4.31,2.51-7.76,6.77-7.72l64.52.74c4.16.05,8.12,3.53,8.77,7.78Z"/><path class="uuid-b9700d8d-b815-40d4-870e-e78425231dad" d="m270.35,2082.88l10.26,67.31c.68,4.44-2.2,8.12-6.43,8.22l-65.84,1.46c-4.35.1-8.55-3.49-9.19-8.01l-9.68-68.36c-.63-4.43,2.51-8.03,6.83-8.05l65.18-.41c4.2-.03,8.21,3.48,8.87,7.84Z"/><path class="uuid-aa95f633-1ddf-4732-ac3c-ab5e5a2923b3" d="m304.12,1729.28l9.89,59.96c.65,3.95-1.83,7.02-5.77,6.83l-61.13-2.89c-4.04-.19-7.97-3.6-8.59-7.61l-9.39-60.79c-.61-3.94,2.39-6.93,6.39-6.68l60.42,3.72c3.9.24,7.53,3.58,8.17,7.47Z"/><path class="uuid-43b47398-a30b-4029-92e5-c5a200394ca3" d="m318.14,1814.33l10.12,61.41c.67,4.05-1.83,7.24-5.81,7.12l-61.71-1.9c-4.07-.13-8.05-3.57-8.69-7.67l-9.62-62.28c-.62-4.03,2.39-7.15,6.43-6.97l60.99,2.77c3.94.18,7.61,3.55,8.27,7.52Z"/><path class="uuid-6185d117-34e7-4388-b424-f215e6089d3a" d="m332.5,1901.43l10.37,62.92c.68,4.15-1.83,7.48-5.84,7.43l-62.3-.85c-4.11-.06-8.14-3.52-8.79-7.74l-9.86-63.83c-.64-4.13,2.4-7.38,6.48-7.27l61.57,1.76c3.98.11,7.69,3.51,8.36,7.58Z"/><path class="uuid-6bd9f817-9d51-4939-b394-7f50d1ba75e7" d="m347.22,1990.68l10.63,64.48c.7,4.25-1.83,7.73-5.88,7.74l-62.9.25c-4.15.02-8.23-3.48-8.9-7.8l-10.1-65.44c-.65-4.24,2.41-7.63,6.53-7.58l62.16.71c4.02.05,7.77,3.46,8.46,7.64Z"/><path class="uuid-24751e1f-5013-4e7f-a948-7b6a8bdae916" d="m362.3,2082.15l10.9,66.1c.72,4.36-1.82,7.98-5.91,8.07l-63.51,1.4c-4.2.09-8.32-3.43-9-7.86l-10.36-67.11c-.67-4.35,2.41-7.88,6.57-7.9l62.76-.4c4.05-.03,7.85,3.42,8.56,7.7Z"/><path class="uuid-18c94170-a26a-413d-a65e-2eaac11468e6" d="m389.96,1734.46c-.68-3.83-4.08-7.11-7.87-7.35l-58.42-3.6c-3.87-.24-6.45,2.71-5.8,6.59l9.97,59.79c.66,3.95,4.42,7.3,8.32,7.49l58.75,2.79c3.81.18,6.16-2.84,5.47-6.73l-10.43-58.99Z"/><path class="uuid-1b4767e5-ec61-4cc0-89f3-874036053a6f" d="m404.76,1818.14l10.68,60.41c.7,3.98-1.63,7.13-5.47,7.01l-59.43-1.83c-3.94-.12-7.63-3.5-8.31-7.54l-10.22-61.25c-.66-3.97,2.03-7.04,5.93-6.86l58.83,2.67c3.81.17,7.28,3.48,7.97,7.39Z"/><path class="uuid-d6787ab7-079d-464a-9f7e-6c8001673b66" d="m419.91,1903.81l10.94,61.86c.06.33.31.67.32.98.18,3.62-2.15,6.37-5.71,6.32l-60.03-.82c-3.97-.05-7.77-3.46-8.46-7.6l-10.47-62.75c-.68-4.06,2.03-7.26,5.97-7.15l59.37,1.7c3.84.11,7.35,3.44,8.06,7.45Z"/><path class="uuid-c6b99207-2c1c-4670-b6e2-646b1371d551" d="m435.43,1991.56l11.21,63.37c.74,4.18-1.61,7.59-5.52,7.61l-60.53.25c-4.01.02-7.79-3.41-8.5-7.66l-10.73-64.31c-.69-4.16,2.03-7.5,6.01-7.45l59.91.68c3.88.04,7.43,3.4,8.15,7.51Z"/><path class="uuid-00249f9d-7fef-4ee2-957a-7ed9103ad6e9" d="m451.32,2081.45l11.48,64.94c.76,4.28-1.61,7.84-5.55,7.93l-61.09,1.36c-4.05.09-7.88-3.37-8.6-7.72l-10.99-65.92c-.71-4.27,2.03-7.74,6.05-7.77l60.46-.39c3.91-.02,7.5,3.36,8.25,7.56Z"/><path class="uuid-751c8020-e673-4c29-b8de-f7abc6c52cf5" d="m472.96,1739.46c-.71-3.77-3.99-7-7.65-7.23l-56.2-3.48c-3.75-.23-5.87,2.68-5.18,6.49l10.52,58.85c.69,3.89,4.08,7.18,7.85,7.36l56.62,2.7c3.69.17,5.7-2.8,4.98-6.63l-10.94-58.06Z"/><path class="uuid-171c934c-557d-4b77-8a4d-3c873f1a1cbc" d="m488.48,1821.83c-.73-3.86-4.05-7.11-7.74-7.28l-56.68-2.58c-3.78-.17-5.91,2.86-5.21,6.77l10.77,60.24c.71,3.98,4.13,7.3,7.94,7.42l57.11,1.76c3.72.11,5.74-2.98,5-6.91l-11.2-59.42Z"/><path class="uuid-2d8c8033-272d-4da4-b77b-e9a4eef39dc5" d="m504.36,1906.12c-.74-3.95-4.1-7.22-7.82-7.33l-57.17-1.64c-3.81-.11-5.95,3.05-5.24,7.05l11.03,61.69c.73,4.07,4.19,7.42,8.03,7.47l57.6.78c3.75.05,5.78-3.18,5.02-7.19l-11.46-60.83Z"/><path class="uuid-9952caca-9445-46e0-acd2-a206a4e0d2b2" d="m520.62,1992.41l11.74,62.3c.77,4.11-1.39,7.47-5.17,7.48l-58.13.25c-3.87.02-7.23-3.34-7.98-7.51l-11.3-63.21c-.73-4.09,1.54-7.38,5.39-7.34l57.68.65c3.75.04,7.01,3.34,7.77,7.37Z"/><path class="uuid-0deea96e-c3a9-44f5-bf4d-f162c15468d2" d="m537.27,2080.78l12.02,63.81c.79,4.21-1.38,7.71-5.19,7.79l-58.64,1.33c-3.91.09-7.31-3.3-8.07-7.57l-11.58-64.77c-.75-4.19,1.53-7.62,5.41-7.65l58.19-.38c3.78-.02,7.08,3.29,7.86,7.43Z"/><path class="uuid-4f0acbb1-3884-4d28-afd5-6210161fcc5d" d="m554.38,1744.31c-.74-3.71-4.44-6.89-7.99-7.11l-55.08-3.37c-3.63-.22-6.3,2.64-5.59,6.4l11.02,57.92c.73,3.82,4.48,7.07,8.13,7.24l55.49,2.62c3.57.17,6.18-2.75,5.43-6.53l-11.42-57.17Z"/><path class="uuid-6ac1a369-f79f-45da-823d-58f00657f2c5" d="m570.58,1825.4c-.76-3.8-4.5-7-8.07-7.16l-55.53-2.51c-3.66-.17-6.35,2.81-5.62,6.66l11.27,59.27c.74,3.91,4.54,7.19,8.22,7.3l55.95,1.72c3.6.11,6.22-2.93,5.45-6.79l-11.68-58.48Z"/><path class="uuid-56932bfa-bd1b-49e2-b9ca-8538e6502a51" d="m587.15,1908.37c-.78-3.88-4.56-7.12-8.16-7.22l-55.99-1.6c-3.69-.11-6.39,2.99-5.64,6.93l11.54,60.67c.76,4.01,4.6,7.3,8.31,7.35l56.42.77c3.63.05,6.27-3.11,5.48-7.06l-11.95-59.85Z"/><path class="uuid-9e0b06cb-174f-4cd0-a90b-c871cdfdfc97" d="m604.11,1993.26l12.24,61.27c.81,4.04-1.74,7.33-5.39,7.34l-56.89.22c-3.74.01-7.74-3.31-8.52-7.41l-11.82-62.14c-.77-4.03,1.83-7.25,5.55-7.2l56.25.65c3.29.04,6.82,2.71,7.99,6.18.13.35.52.73.6,1.1Z"/><path class="uuid-6a79a94c-9166-43c4-9edd-452ca46eaad1" d="m621.47,2080.16l12.53,62.74c.83,4.14-1.73,7.55-5.42,7.64l-57.37,1.26c-3.78.08-7.82-3.27-8.62-7.47l-12.1-63.65c-.78-4.12,1.83-7.48,5.57-7.5l56.97-.34c3.66-.02,7.62,3.26,8.44,7.33Z"/><path class="uuid-b9128b00-1740-4a07-af27-d4688b9e7f17" d="m631.24,1749c-.77-3.65-3.88-6.78-7.31-6.99l-53.02-3.26c-3.51-.22-5.74,2.61-4.99,6.31l11.48,57.03c.76,3.76,4.37,6.96,7.91,7.12l53.17,2.53c3.46.16,5.39-2.72,4.6-6.44l-11.84-56.29Z"/><path class="uuid-008c41ba-e8f6-442b-9b66-f389d2a75b22" d="m648.04,1828.84c-.79-3.74-3.93-6.89-7.39-7.04l-53.43-2.42c-3.54-.16-5.78,2.78-5.01,6.56l11.75,58.34c.78,3.85,4.42,7.07,7.99,7.18l53.59,1.65c3.48.11,5.42-2.89,4.62-6.69l-12.11-57.57Z"/><path class="uuid-5024393e-9548-4182-bd31-612b956e4e69" d="m665.22,1910.5c-.8-3.82-3.98-6.99-7.46-7.09l-53.86-1.54c-3.57-.1-5.81,2.95-5.03,6.83l12.02,59.69c.79,3.94,4.48,7.18,8.08,7.23l54.02.73c3.51.05,5.45-3.07,4.63-6.96l-12.39-58.89Z"/><path class="uuid-2f9bde5a-3f62-49ae-bdc7-5ae109a1a7e6" d="m682.8,1994.03l12.68,60.27c.84,3.97-1.04,7.22-4.57,7.24l-54.68.22c-3.62.01-7.19-3.24-8.01-7.27l-12.3-61.11c-.22-1.07-.09-2.09.13-3,.53-2.45,2.51-4.12,5.13-4.09l54.05.62c3.51.04,6.74,3.23,7.57,7.13Z"/><path class="uuid-61269b64-716c-4ef4-ba68-e5da0b0fc5f4" d="m700.78,2079.5l12.98,61.68c.86,4.07-1.02,7.45-4.58,7.52l-55.12,1.23c-3.65.08-7.26-3.2-8.09-7.33l-12.6-62.57c-.82-4.05,1.59-7.35,5.22-7.37l54.52-.35c3.54-.02,6.84,3.19,7.68,7.19Z"/><path class="uuid-59ab8bd8-6185-4687-a3cc-becedbaee46a" d="m707.7,1753.55c-.8-3.6-4.32-6.68-7.65-6.89l-51.15-3.16c-3.4-.21-5.29,2.57-4.52,6.22l11.92,56.16c.79,3.71,3.86,6.84,7.28,7.01l51.76,2.45c3.35.16,5.42-2.68,4.61-6.34l-12.26-55.45Z"/><path class="uuid-1359c517-d241-4d49-bbed-5d97a56c2422" d="m725.08,1832.2c-.81-3.68-4.38-6.79-7.73-6.94l-51.54-2.35c-3.43-.16-5.32,2.74-4.53,6.47l12.19,57.43c.8,3.79,3.91,6.95,7.36,7.05l52.15,1.6c3.37.1,5.45-2.85,4.62-6.59l-12.53-56.69Z"/><path class="uuid-2046d4cc-8b60-4bb3-9c52-69c5f5d9220c" d="m742.85,1912.6c-.83-3.76-4.43-6.89-7.81-6.99l-51.92-1.49c-3.46-.1-5.35,2.91-4.54,6.73l12.47,58.75c.82,3.88,3.96,7.06,7.44,7.1l52.54.72c3.4.05,5.48-3.02,4.63-6.85l-12.81-57.97Z"/><path class="uuid-ea7500dd-e23d-4422-b204-fe55760f361d" d="m761.03,1994.82l13.11,59.31c.86,3.91-1.4,7.09-4.82,7.1l-52.68.22c-3.5.01-6.77-3.18-7.61-7.15l-12.76-60.12c-.83-3.9.97-7.03,4.45-6.99l52.61.6c3.4.04,6.85,3.18,7.7,7.03Z"/><path class="uuid-a8d8edde-10a1-4908-98a6-9324225a54c8" d="m779.62,2078.93l13.41,60.67c.88,4-1.39,7.3-4.83,7.38l-53.08,1.2c-3.53.08-6.83-3.14-7.69-7.2l-13.06-61.53c-.85-3.99.95-7.25,4.46-7.27l53.01-.33c3.42-.02,6.92,3.15,7.78,7.08Z"/><path class="uuid-3b024342-ad26-4133-8c70-476a6874a322" d="m780.76,1757.96c-.82-3.55-4.22-6.58-7.45-6.78l-49.53-3.07c-3.3-.2-5.03,2.54-4.23,6.13l12.32,55.32c.81,3.65,3.8,6.74,7.12,6.9l50.09,2.38c3.25.15,5.14-2.65,4.3-6.25l-12.63-54.63Z"/><path class="uuid-cfc8c2c5-d27b-40ca-9d51-b118a3ae7e03" d="m798.67,1835.44c-.84-3.62-4.27-6.68-7.52-6.83l-49.88-2.27c-3.32-.15-5.05,2.7-4.23,6.38l12.59,56.56c.83,3.73,3.85,6.84,7.19,6.94l50.45,1.55c3.27.1,5.16-2.81,4.31-6.49l-12.91-55.83Z"/><path class="uuid-c2e3482f-addf-41d0-8a12-ccec2787555c" d="m816.97,1914.62c-.86-3.7-4.33-6.78-7.6-6.88l-50.24-1.44c-3.35-.1-5.08,2.87-4.24,6.63l12.88,57.83c.85,3.82,3.9,6.94,7.26,6.99l50.81.69c3.29.04,5.19-2.98,4.32-6.74l-13.19-57.07Z"/><path class="uuid-5b14cade-ed45-4858-a4e8-88ae347cc9c4" d="m835.68,1995.56l13.49,58.37c.89,3.85-1.2,6.98-4.51,6.99l-50.94.22c-3.39.01-6.53-3.13-7.4-7.03l-13.17-59.16c-.2-.89-.62-1.76-.51-2.54.31-2.56,1.91-4.38,4.5-4.35l50.97.58c3.29.04,6.7,3.13,7.57,6.92Z"/><path class="uuid-feed2f93-4272-4fcd-86a7-475b0d5021de" d="m854.81,2078.33l13.8,59.69c.91,3.94-1.18,7.18-4.52,7.26l-51.3,1.16c-3.42.08-6.59-3.09-7.47-7.08l-13.48-60.52c-.87-3.92.79-7.13,4.18-7.15l51.24-.32c3.31-.02,6.66,3.09,7.55,6.96Z"/><path class="uuid-7be6f97c-ae40-42e6-b509-02f6f97dc07e" d="m189.79,1715.27c8.76,4.84,18.03,10.15,26.93,15.95l8.18,53.66c.61,4.02-2.18,7.13-6.25,6.93l-63.25-2.99c-4.18-.2-8.18-3.67-8.75-7.75l-8.75-61.81c-.57-4,2.47-7.04,6.62-6.78l45.28,2.78Z"/><path class="uuid-6c513096-f47d-48eb-b4ef-cea04a2a293d" d="m228.79,1810.39l9.52,62.45c.63,4.12-2.19,7.36-6.3,7.24l-63.88-1.96c-4.22-.13-8.27-3.63-8.86-7.81l-8.97-63.35c-.58-4.1,2.49-7.27,6.67-7.08l63.26,2.87c4.08.18,7.95,3.61,8.56,7.66Z"/><path class="uuid-c72a1982-9d3c-44e2-a19d-e260301a3cd6" d="m242.3,1898.97l9.76,64.01c.64,4.22-2.19,7.61-6.34,7.55l-64.52-.88c-4.26-.06-8.36-3.59-8.97-7.87l-9.2-64.96c-.6-4.21,2.5-7.51,6.72-7.39l63.88,1.83c4.12.12,8.03,3.57,8.66,7.72Z"/><path class="uuid-31987500-03b3-4868-a234-8f68b83b4be3" d="m256.15,1989.78l10.01,65.63c.66,4.33-2.19,7.86-6.39,7.88l-65.17.26c-4.31.02-8.45-3.54-9.08-7.94l-9.44-66.63c-.61-4.31,2.51-7.76,6.77-7.72l64.52.74c4.16.05,8.12,3.53,8.77,7.78Z"/><path class="uuid-e0741053-7165-4d2d-9706-5a202ac38333" d="m270.35,2082.88l10.26,67.31c.68,4.44-2.2,8.12-6.43,8.22l-65.84,1.46c-4.35.1-8.55-3.49-9.19-8.01l-9.68-68.36c-.63-4.43,2.51-8.03,6.83-8.05l65.18-.41c4.2-.03,8.21,3.48,8.87,7.84Z"/><path class="uuid-8693269b-c9e0-402c-aff1-931de0bc7494" d="m238.52,1785.56l-6.83-44.21c22.57,15.05,44.84,32.97,66.69,54.25l-51.31-2.43c-4.04-.19-7.93-3.6-8.55-7.61Z"/><path class="uuid-5aad647c-8edb-4a55-a65e-466e782b6bbb" d="m309.55,1806.78c3.06,3.19,5.66,6.45,8.96,9.77l9.76,59.18c.67,4.05-1.83,7.24-5.81,7.12l-61.71-1.9c-4.07-.13-8.05-3.57-8.69-7.67l-9.62-62.28c-.62-4.03,2.31-7.15,6.35-6.97l60.76,2.75Z"/><path class="uuid-cdefe0dd-6c6e-455d-842f-62582f1d549d" d="m332.5,1901.43l10.37,62.92c.68,4.15-1.83,7.48-5.84,7.43l-62.3-.85c-4.11-.06-8.14-3.52-8.79-7.74l-9.86-63.83c-.64-4.13,2.4-7.38,6.48-7.27l61.57,1.76c3.98.11,7.69,3.51,8.36,7.58Z"/><path class="uuid-290d39f3-a6bd-4cb8-b2bf-ea0bf4154b24" d="m347.22,1990.68l10.63,64.48c.7,4.25-1.83,7.73-5.88,7.74l-62.9.25c-4.15.02-8.23-3.48-8.9-7.8l-10.1-65.44c-.65-4.24,2.41-7.63,6.53-7.58l62.16.71c4.02.05,7.77,3.46,8.46,7.64Z"/><path class="uuid-ce180849-9c56-4e9e-9612-fe2df6561dd0" d="m362.3,2082.15l10.9,66.1c.72,4.36-1.82,7.98-5.91,8.07l-63.51,1.4c-4.2.09-8.32-3.43-9-7.86l-10.36-67.11c-.67-4.35,2.41-7.88,6.57-7.9l62.76-.4c4.05-.03,7.85,3.42,8.56,7.7Z"/><path class="uuid-9b7e02a0-4d60-425f-b713-339b345d0ab1" d="m342.23,1876.18l-6.69-40.1c12.17,14.76,23.64,30.8,34.54,48.24l-19.47-.6c-3.94-.12-7.71-3.5-8.38-7.54Z"/><path class="uuid-ae567ba2-9bcd-40ce-8104-6b1211148bbe" d="m356.97,1964.56l-10.47-62.75c-.68-4.06,2.03-7.26,5.97-7.15l24.33.7c2.74,4.64,5.44,9.37,8.07,14.19,13.72,25.18,29.37,43.71,46.49,57.11.18,3.62-2.25,6.37-5.81,6.32l-60.08-.82c-3.97-.05-7.82-3.46-8.51-7.6Z"/><path class="uuid-3d09566d-d5bf-4725-8383-d5ec4cd1da4e" d="m435.43,1991.56l11.21,63.37c.74,4.18-1.61,7.59-5.52,7.61l-60.53.25c-4.01.02-7.79-3.41-8.5-7.66l-10.73-64.31c-.69-4.16,2.03-7.5,6.01-7.45l59.91.68c3.88.04,7.43,3.4,8.15,7.51Z"/><path class="uuid-03d7a47e-c4fd-4bb8-bf61-a88621f6cb8f" d="m451.32,2081.45l11.48,64.94c.76,4.28-1.61,7.84-5.55,7.93l-61.09,1.36c-4.05.09-7.88-3.37-8.6-7.72l-10.99-65.92c-.71-4.27,2.03-7.74,6.05-7.77l60.46-.39c3.91-.02,7.5,3.36,8.25,7.56Z"/><path class="uuid-eaab265f-7564-4aad-92d5-25ced32f97a5" d="m460.8,1984.44c19.32,8.5,40.34,12.32,60.82,13.29l10.74,56.98c.77,4.11-1.39,7.47-5.17,7.48l-58.13.25c-3.87.02-7.23-3.34-7.98-7.51l-11.3-63.21c-.73-4.09,1.41-7.39,5.25-7.34l5.76.06Z"/><path class="uuid-49f10e71-042d-45fb-8f7b-ed603ca2a143" d="m537.27,2080.78l12.02,63.81c.79,4.21-1.38,7.71-5.19,7.79l-58.64,1.33c-3.91.09-7.31-3.3-8.07-7.57l-11.58-64.77c-.75-4.19,1.53-7.62,5.41-7.65l58.19-.38c3.78-.02,7.08,3.29,7.86,7.43Z"/><path class="uuid-9180a736-1cc1-496f-aab5-7c30e98773d2" d="m603.36,1992.16c.13.35.68.73.75,1.1l12.24,61.27c.81,4.04-1.74,7.33-5.39,7.34l-56.89.22c-3.74.01-7.74-3.31-8.52-7.41l-10.78-56.68c23.34-.02,45.57-2.7,68.6-5.85Z"/><path class="uuid-086ee2a7-743a-44e9-b293-7fe4cf3f82d6" d="m621.47,2080.16l12.53,62.74c.83,4.14-1.73,7.55-5.42,7.64l-57.37,1.26c-3.78.08-7.82-3.27-8.62-7.47l-12.1-63.65c-.78-4.12,1.83-7.48,5.57-7.5l56.97-.34c3.66-.02,7.62,3.26,8.44,7.33Z"/><path class="uuid-7c339df9-5dd5-497f-a1fe-3e5ba5d9da1f" d="m682.8,1994.03l12.68,60.27c.84,3.97-1.04,7.22-4.57,7.24l-54.68.22c-3.62.01-7.19-3.24-8.01-7.27l-12.3-61.11c-.22-1.07-.09-2.09.13-3,9.25-1.32,18.56-2.63,27.8-3.83l31.38.36c3.51.04,6.74,3.23,7.57,7.13Z"/><path class="uuid-7b9fbdc0-25b1-473d-9bb8-94580165421f" d="m700.78,2079.5l12.98,61.68c.86,4.07-1.02,7.45-4.58,7.52l-55.12,1.23c-3.65.08-7.26-3.2-8.09-7.33l-12.6-62.57c-.82-4.05,1.59-7.35,5.22-7.37l54.52-.35c3.54-.02,6.84,3.19,7.68,7.19Z"/><path class="uuid-be41e48a-b74d-4afa-992b-b6846d05ec9a" d="m761.03,1994.82l13.11,59.31c.86,3.91-1.4,7.09-4.82,7.1l-52.68.22c-3.5.01-6.77-3.18-7.61-7.15l-12.76-60.12c-.83-3.9.97-7.03,4.45-6.99l52.61.6c3.4.04,6.85,3.18,7.7,7.03Z"/><path class="uuid-4f5f26ad-67c4-4101-966d-6450ad813da4" d="m779.62,2078.93l13.41,60.67c.88,4-1.39,7.3-4.83,7.38l-53.08,1.2c-3.53.08-6.83-3.14-7.69-7.2l-13.06-61.53c-.85-3.99.95-7.25,4.46-7.27l53.01-.33c3.42-.02,6.92,3.15,7.78,7.08Z"/><path class="uuid-92f01e24-389b-4f54-b2e9-3405bbd5bae4" d="m846.95,2044.34l2.22,9.59c.89,3.85-1.2,6.98-4.51,6.99l-50.94.22c-3.39.01-6.53-3.13-7.4-7.03l-13.17-59.16c-.2-.89-.62-1.76-.51-2.54,22.8,8.08,44.87,21.61,66,43.28,2.86,2.93,4.57,5.77,8.31,8.65Z"/><path class="uuid-d0cccadf-d812-48ac-9f0a-a2246465d099" d="m854.81,2078.33l13.8,59.69c.91,3.94-1.18,7.18-4.52,7.26l-51.3,1.16c-3.42.08-6.59-3.09-7.47-7.08l-13.48-60.52c-.87-3.92.79-7.13,4.18-7.15l51.24-.32c3.31-.02,6.66,3.09,7.55,6.96Z"/><path class="uuid-195fc73a-c2c9-49ab-8d93-c4b68ec45526" d="m88.47,1751.26c0-4.58-10.61-42.41,5.13-62.88,15.74-20.47,33.67-13.57,33.67-13.57,0,0-10.03,24.82-20.13,29.77-10.1,4.94-18.67,46.68-18.67,46.68Z"/><path class="uuid-058c662b-308e-403a-be1a-bc4346386993" d="m818.12,1948.84s-9.78,18.35-23.36,20.56c-13.58,2.2-19.92,9.56-19.92,9.56,0,0,12.69,3.48,17.16.96,4.48-2.52-9.97,20.15-24.4,30.65-14.43,10.49,18.48-.05,31.14-7.03,12.65-6.98,20.07-29.22,20.07-29.22l6.47-19.45-7.17-6.02Z"/><path class="uuid-ed230348-892e-415a-ab2b-eebd93abe04f" d="m604.52,1596.22s423.19,129.45,221.33,382.21l-14.85-27.73s57.82-114.63-172.74-232.63l-33.74-121.86Z"/><path class="uuid-6a4e6504-4f08-4329-b1c8-0dcf624d7fb5" d="m2167.79,2656.72s2.92,23.2.96,30.97c-1.96,7.77-69.4,13.39-92.29,10.69-22.89-2.7,13.64-26.09,28.22-30.47,14.59-4.39,63.11-11.18,63.11-11.18Z"/><path class="uuid-83739b6d-e6bc-4bdb-92e0-0423caf6d4ac" d="m2133.84,2618.02l7.11,46.54s18.13,8.15,26.84.1l.96-48.71-34.91,2.08Z"/><path class="uuid-4783a8d7-a79f-4d97-a18a-cf37ae2c6bfd" d="m2514.03,2615.94s-14.31,10.62-10.49,23.34c3.81,12.72,37.2,63.67,61,78.14,23.8,14.46,16.34-15.67,9.41-34.44-6.92-18.77-24.62-60.11-31.53-67.04-6.91-6.93-28.39,0-28.39,0Z"/><path class="uuid-ed305168-3414-43d6-bc93-01439d60eb74" d="m2488.29,2564.81c6.92,19.28,13.57,35.13,18.77,46.83,11.51,25.87,17.81,35.57,24.93,43.99,6.21,7.33,20.93,22.97,24.88,20.37,4.02-2.64-6.75-21.66-27.5-77.35-3.01-8.08-12.53-33.84-12.53-33.84h-28.57Z"/><path class="uuid-e10a83eb-a4fa-4e50-9bdc-28b1fe4aa3c6" d="m1992.61,1759.12c-4.94,48.47-9.67,123.69-2.59,214.98,9.23,118.95,33.01,194.21,62.84,321.04,18.23,77.51,42.79,191.58,65.02,334.25,5.16,2.95,20.33,10.71,39.86,7.82,10.94-1.62,19.12-5.97,23.95-9.1,58.32-178.2,41.09-288.64,12.95-357.44-12-29.33-26.54-52.47-34.32-97.55-10.29-59.64,2.43-92.99,20.57-231.15,12.93-98.47,10.69-113.7,2.09-128.46-34.39-59.05-139.56-57.89-190.38-54.39Z"/><path class="uuid-ca603db3-2eb9-4554-ba7a-c6a39bf21f7d" d="m2193.34,1779.84c35.73,184.5,70.79,281.4,97.32,336.21,6.54,13.52,28.38,57.12,49.02,119.65,18.27,55.34,25.89,96.05,29.79,113.97,12.32,56.55,42.76,139.13,124.67,247.44,1.02.6,14.99,8.5,28.34,1.46,6.76-3.57,10.13-9.25,11.46-11.9-10.71-103.55-23-190.56-33.67-257.72-2.24-14.08-12.1-75.71-27.56-157.12-6.05-31.86-14.92-78.55-25.54-126.5-13.22-59.71-33.5-140.95-64.75-238.29-63.03-9.07-126.05-18.13-189.08-27.2Z"/><path class="uuid-8a38bb55-be15-4de1-89bd-c500af3d013d" d="m2186.59,1195.48c-51.69-42.8-97.8-75.26-104.31-132.25-5.13-44.85,14.87-99.57,52.16-115.49,31.23-13.34,57.08,8.03,117.35,29.8,111.4,40.25,136.27,8.14,206.76,39.12,60.74,26.69,153.93,99.59,155.72,209.58,1.67,102.45-76.48,205.53-155.16,212.38-73.72,6.42-73.26-78.16-272.52-243.14Z"/><path class="uuid-1f802018-7348-4e82-9c56-8fd059da3a1e" d="m1948.17,1810.17c-45.62-71.1,44.4-120.22,14.9-288.72-16.53-94.39-61.71-175.72-27.94-271.95,7.96-22.68,16.6-35.63,24.22-44.7,10.84-12.91,48.44-52.33,186.27-54.02,113.67-1.39,170.51-2.08,204.55,28.67,69.19,62.51.58,160.47,35.74,394.16,20.8,138.23,53.76,163.51,29.4,211.74-64.32,127.35-391.17,143.21-467.14,24.82Z"/><path class="uuid-8991f0ec-82d5-41e6-91fb-b46fa59b3977" d="m2218.26,1667.36c-56.27-103.36-41.64-195.61-130.39-260.78-56.26-41.31-100.12-32.12-134.11-79.47-13.15-18.32-20.48-39.06-23.82-60.6-23.29,88.94,17.59,166.17,33.13,254.95,29.5,168.5-60.52,217.62-14.9,288.72,66.42,103.51,324.63,104.39,431.47,17.85-87.81-52.69-134.55-111.38-161.38-160.66Z"/><path class="uuid-bc3cf33a-e12e-41c1-936f-3c7a056dd717" d="m2157.37,1033.8s16.18,79.21,47.12,95.26c30.94,16.04,80.51,36.3,86.27,42.39,5.76,6.08-180.82,40.84-277.69.98h0c30.23-8.78,38.4-11.78,38.4-11.78,8.16-3,23.37-8.58,38.28-18.68,10.15-6.86,26.34-19.99,40.32-43.5l-3.76-44.26,31.06-20.41Z"/><path class="uuid-fbee695c-9ad3-4c8a-bc7c-c6b8f2d11632" d="m2164.05,1061.78s-17.21,27.91-48.25,19.23c-27.79-7.77-17.05-78.83,3.78-88.44,6.95-3.21,20.17-3.05,29.37,1.75,6.47,3.38,24.54,22.58,16.86,46.26,6.68-2.51,12.82-1.17,14.59,2.09,2.24,4.14-3.09,10.43-4.3,11.85-4.19,4.94-9.56,6.64-12.05,7.26Z"/><path class="uuid-65949258-eb73-49bc-8c60-adfb77ed33ce" d="m2020.81,1174.99c-36.29-23.03-125.03,59.33-137.45,71.08-61.78,58.4-172.28,200.65-115.32,297.02,43.69,73.92,157.9,73.47,171.18,73.24,145.82-2.52,226.44-140.91,231.79-150.44-4.63-8.38-9.26-16.77-13.88-25.15-187.73,29.9-231.02,21.59-235.04,8.07-3.89-13.11,30.79-25.57,63.33-67.06,56.87-72.5,69.23-185.28,35.39-206.76Z"/><path class="uuid-040a9ce7-dfd1-41ff-a8cb-801f7018bf56" d="m2227.38,1353.14c6.26-6.26,12.53-12.53,18.79-18.79,36.54,28.07,76.03,52.31,93.16,39.95,35.27-25.46-54.33-184.57-25.28-203.34,17.69-11.43,72.77,33.47,110.65,83.52,88.94,117.52,110.59,299.87,54.06,332.39-49.51,28.48-149.25-63.52-159.59-73.21-62.73-58.82-84.15-128.66-91.78-160.52Z"/><path class="uuid-520b2a89-4f78-47c9-b93f-466bf313e877" d="m2081.49,1744.98c-1.23,0-2.47-.2-3.7-.63-5.82-2.04-8.89-8.42-6.85-14.25l238.9-681.13c2.04-5.83,8.41-8.9,14.25-6.85,5.82,2.04,8.89,8.42,6.85,14.24l-238.9,681.13c-1.62,4.6-5.93,7.48-10.55,7.48Z"/><path class="uuid-6b97581d-e855-445f-bd90-620da4565425" d="m2246.18,1334.35s6.48-49.43-18.79-61.24c-25.27-11.81-34.05,28.94-38.97,37.75-4.92,8.8,22.37,23.49,22.37,23.49l16.6,18.79,18.79-18.79Z"/><path class="uuid-52d3c2fa-0b2e-4472-879b-206f7f5888bb" d="m2157.13,1440.74s.16-22.36,13.88-47.5c13.72-25.14,31.78-9.24,51.3-1.79,19.52,7.45-.22,48.71-13.93,48.69l-13.72-.02-23.65,25.77-13.88-25.15Z"/><circle class="uuid-cc66479e-1533-4ecc-ab91-ac270ae32f8b" cx="2415.3" cy="845.34" r="230.62" transform="translate(109.68 1955.47) rotate(-45)"/><circle class="uuid-ecf20188-f18a-4519-aa43-07e24d98b7d9" cx="2415.3" cy="845.34" r="214.21" transform="translate(109.68 1955.47) rotate(-45)"/><path class="uuid-34b1d07a-ccd2-4833-835d-0e4ea3589df3" d="m2418,896.26l-1.16,2.84-2.03,4.99,4.67,1.91,51.47,21.09,8.69,3.56.36.14c5.38,2.15,11.06,3.15,16.79,3,.13,0,.25,0,.38-.01l-44.93,40.02c-8.05,7.17-18.94,9.38-28.45,5.75l-28.58-11.21-4.5-1.77-2.14,4.7-3.03,6.64-5.44-49.86,37.9-31.79Z"/><path class="uuid-34b1d07a-ccd2-4833-835d-0e4ea3589df3" d="m2530.25,843l3.19,48.13c.43,6.54-2.23,12.98-7.12,17.23l-25.68,22.31c-5.73.15-11.41-.85-16.79-3l-.36-.14-8.69-3.56-5.78-66.38c-.08-.94.43-1.51.74-1.76.31-.25.96-.63,1.79-.28l28.52,12.16,2.83,1.2,2.36-2.24,24.99-23.68Z"/><path class="uuid-34b1d07a-ccd2-4833-835d-0e4ea3589df3" d="m2315.36,862.27l60.7,26.16c.85.36,1.05,1.11,1.09,1.52.04.41,0,1.19-.74,1.8l-26.13,21.28-2.62,2.13.62,3.29,6.54,34.81-44-19.02c-6.08-2.63-10.3-8.24-11.27-15.01l-5.08-35.49c3.27-5.72,7.57-10.77,12.74-14.93l8.15-6.55Z"/><path class="uuid-34b1d07a-ccd2-4833-835d-0e4ea3589df3" d="m2503.37,747.43c9.18,4.09,15.51,13.25,16.55,23.91l3.13,32.09.49,5.03,4.7-.48,6.64-.68-37.87,30.78-42.8-17.88,2.86-.43,5.02-.75-.55-5.31-6.22-59.74-1.07-10.32c-.68-6.54-2.53-12.78-5.43-18.46-.06-.12-.12-.24-.19-.36l54.08,22.32c.22.09.45.19.67.28Z"/><path class="uuid-34b1d07a-ccd2-4833-835d-0e4ea3589df3" d="m2443.89,723.17c2.9,5.67,4.75,11.91,5.43,18.46l1.07,10.32-52.93,41.02c-.74.58-1.46.41-1.82.25-.37-.16-1.02-.57-1.13-1.56l-3.75-33.99-.38-3.41-3.08-1.1-32.99-11.75,39.87-29.46c5.41-4,12.26-4.83,18.33-2.23l31.37,13.45Z"/><path class="uuid-34b1d07a-ccd2-4833-835d-0e4ea3589df3" d="m2317.76,754.53l46.11,20.3,6.28,50.28-1.77-2.44-3.13-4.29-4.2,3.37-47.19,37.9-8.15,6.55c-5.17,4.16-9.48,9.21-12.74,14.93-.07.12-.14.24-.21.36l-9.79-62.65c-1.77-11.34,2.68-22.8,11.61-29.87l26.1-20.65,4.09-3.24-2.89-4.36-4.11-6.19Z"/><path class="uuid-c567fadf-9acf-4fa1-946d-15b267743962" d="m2371.06,927.02c-27.08-72.82,63.31-141.97,39.74-233.46-7.37-28.59-24.17-52.73-46.27-73.17-102.92,23.14-179.84,115.03-179.84,224.94,0,127.37,103.25,230.62,230.62,230.62,56.17,0,107.63-20.1,147.63-53.47-132.03-18.16-177.86-57.78-191.88-95.47Z"/></g></g></svg>