<?xml version="1.0" encoding="UTF-8"?>
<svg xmlns="http://www.w3.org/2000/svg" xmlns:xlink="http://www.w3.org/1999/xlink" viewBox="0 0 3600 2000">
  <defs>
    <style>
      .cls-1 {
        fill: url(#_Íîâûé_îáðàçåö_ãðàäèåíòà_10-2);
      }

      .cls-2 {
        fill: #b7d972;
      }

      .cls-3 {
        fill: #99c049;
      }

      .cls-4 {
        fill: url(#_Íîâûé_îáðàçåö_ãðàäèåíòà_7-6);
      }

      .cls-5 {
        fill: url(#_Íîâûé_îáðàçåö_ãðàäèåíòà_7-4);
      }

      .cls-6 {
        fill: url(#_Íîâûé_îáðàçåö_ãðàäèåíòà_7-12);
      }

      .cls-7 {
        fill: url(#_Íîâûé_îáðàçåö_ãðàäèåíòà_9-8);
      }

      .cls-8 {
        opacity: .5;
      }

      .cls-8, .cls-9 {
        fill: #847d3d;
      }

      .cls-10 {
        fill: #fff;
      }

      .cls-11 {
        fill: #edfdfc;
      }

      .cls-12 {
        fill: url(#_Íîâûé_îáðàçåö_ãðàäèåíòà_7-10);
      }

      .cls-13 {
        fill: url(#_Íîâûé_îáðàçåö_ãðàäèåíòà_7-5);
      }

      .cls-14 {
        fill: url(#_Íîâûé_îáðàçåö_ãðàäèåíòà_11-3);
      }

      .cls-15 {
        fill: url(#_Íîâûé_îáðàçåö_ãðàäèåíòà_9-4);
      }

      .cls-16 {
        fill: url(#_Íîâûé_îáðàçåö_ãðàäèåíòà_7-8);
      }

      .cls-17 {
        fill: url(#_Íîâûé_îáðàçåö_ãðàäèåíòà_10);
      }

      .cls-18 {
        fill: #768c33;
      }

      .cls-19 {
        fill: url(#_Íîâûé_îáðàçåö_ãðàäèåíòà_11-2);
      }

      .cls-20 {
        fill: url(#_Íîâûé_îáðàçåö_ãðàäèåíòà_8-4);
      }

      .cls-21 {
        fill: #87a535;
      }

      .cls-22 {
        fill: url(#_Íîâûé_îáðàçåö_ãðàäèåíòà_8-8);
      }

      .cls-23 {
        fill: url(#_Íîâûé_îáðàçåö_ãðàäèåíòà_9-6);
      }

      .cls-24 {
        fill: url(#_Íîâûé_îáðàçåö_ãðàäèåíòà_8-2);
      }

      .cls-25, .cls-26, .cls-27 {
        mix-blend-mode: multiply;
        opacity: .3;
      }

      .cls-25, .cls-28 {
        fill: none;
      }

      .cls-26, .cls-29 {
        fill: #f99893;
      }

      .cls-30 {
        fill: url(#_Íîâûé_îáðàçåö_ãðàäèåíòà_8-7);
      }

      .cls-31 {
        fill: url(#_Íîâûé_îáðàçåö_ãðàäèåíòà_8-6);
      }

      .cls-32 {
        fill: url(#_Íîâûé_îáðàçåö_ãðàäèåíòà_11-4);
      }

      .cls-33 {
        fill: url(#_Íîâûé_îáðàçåö_ãðàäèåíòà_9);
      }

      .cls-34 {
        fill: url(#_Íîâûé_îáðàçåö_ãðàäèåíòà_9-9);
      }

      .cls-35 {
        fill: url(#_Íîâûé_îáðàçåö_ãðàäèåíòà_7-11);
      }

      .cls-36 {
        fill: url(#_Íîâûé_îáðàçåö_ãðàäèåíòà_7-9);
      }

      .cls-37 {
        fill: url(#_Íîâûé_îáðàçåö_ãðàäèåíòà_7-13);
      }

      .cls-38 {
        fill: #333;
      }

      .cls-39 {
        fill: #ffc0bb;
      }

      .cls-40 {
        fill: #473b1e;
      }

      .cls-41 {
        fill: url(#_Íîâûé_îáðàçåö_ãðàäèåíòà_9-2);
      }

      .cls-28 {
        isolation: isolate;
      }

      .cls-27 {
        fill: url(#_Íîâûé_îáðàçåö_ãðàäèåíòà_7-7);
      }

      .cls-42 {
        fill: #d9f9f0;
      }

      .cls-43 {
        fill: url(#_Íîâûé_îáðàçåö_ãðàäèåíòà_7-2);
      }

      .cls-44 {
        fill: url(#_Íîâûé_îáðàçåö_ãðàäèåíòà_7-3);
      }

      .cls-45 {
        fill: url(#_Íîâûé_îáðàçåö_ãðàäèåíòà_8);
      }

      .cls-46 {
        fill: #97f9e3;
      }

      .cls-47 {
        fill: url(#_Íîâûé_îáðàçåö_ãðàäèåíòà_9-10);
      }

      .cls-48 {
        fill: url(#_Íîâûé_îáðàçåö_ãðàäèåíòà_8-3);
      }

      .cls-49 {
        fill: url(#_Íîâûé_îáðàçåö_ãðàäèåíòà_9-3);
      }

      .cls-50 {
        fill: url(#_Íîâûé_îáðàçåö_ãðàäèåíòà_7);
      }

      .cls-51 {
        fill: url(#_Íîâûé_îáðàçåö_ãðàäèåíòà_9-7);
      }

      .cls-52 {
        fill: url(#_Íîâûé_îáðàçåö_ãðàäèåíòà_9-5);
      }

      .cls-53 {
        fill: #002a24;
      }

      .cls-54 {
        fill: url(#_Íîâûé_îáðàçåö_ãðàäèåíòà_8-5);
      }

      .cls-55 {
        fill: #f4afab;
      }

      .cls-56 {
        fill: url(#_Íîâûé_îáðàçåö_ãðàäèåíòà_11);
      }
    </style>
    <linearGradient id="_Íîâûé_îáðàçåö_ãðàäèåíòà_9" data-name="Íîâûé îáðàçåö ãðàäèåíòà 9" x1="2466.8472" y1="740.1566" x2="2816.3774" y2="740.1566" gradientUnits="userSpaceOnUse">
      <stop offset="0" stop-color="#53cd9f"/>
      <stop offset="1" stop-color="#0d7a5c"/>
    </linearGradient>
    <linearGradient id="_Íîâûé_îáðàçåö_ãðàäèåíòà_8" data-name="Íîâûé îáðàçåö ãðàäèåíòà 8" x1="3760.1145" y1="183.272" x2="1861.515" y2="1754.4326" gradientUnits="userSpaceOnUse">
      <stop offset="0" stop-color="#c9cd55"/>
      <stop offset=".5065" stop-color="#659c52"/>
      <stop offset="1" stop-color="#287f50"/>
    </linearGradient>
    <linearGradient id="_Íîâûé_îáðàçåö_ãðàäèåíòà_8-2" data-name="Íîâûé îáðàçåö ãðàäèåíòà 8" x1="3491.0255" y1="283.8996" x2="3087.4589" y2="843.3906" xlink:href="#_Íîâûé_îáðàçåö_ãðàäèåíòà_8"/>
    <linearGradient id="_Íîâûé_îáðàçåö_ãðàäèåíòà_8-3" data-name="Íîâûé îáðàçåö ãðàäèåíòà 8" x1="4048.9618" y1="532.3148" x2="2150.3621" y2="2103.4755" xlink:href="#_Íîâûé_îáðàçåö_ãðàäèåíòà_8"/>
    <linearGradient id="_Íîâûé_îáðàçåö_ãðàäèåíòà_9-2" data-name="Íîâûé îáðàçåö ãðàäèåíòà 9" x1="2613.8392" y1="1082.6874" x2="3240.8971" y2="1082.6874" xlink:href="#_Íîâûé_îáðàçåö_ãðàäèåíòà_9"/>
    <linearGradient id="_Íîâûé_îáðàçåö_ãðàäèåíòà_8-4" data-name="Íîâûé îáðàçåö ãðàäèåíòà 8" x1="3739.3377" y1="158.1644" x2="1840.7384" y2="1729.3247" xlink:href="#_Íîâûé_îáðàçåö_ãðàäèåíòà_8"/>
    <linearGradient id="_Íîâûé_îáðàçåö_ãðàäèåíòà_9-3" data-name="Íîâûé îáðàçåö ãðàäèåíòà 9" x1="1945.8262" y1="1062.6249" x2="2552.9288" y2="1062.6249" xlink:href="#_Íîâûé_îáðàçåö_ãðàäèåíòà_9"/>
    <linearGradient id="_Íîâûé_îáðàçåö_ãðàäèåíòà_9-4" data-name="Íîâûé îáðàçåö ãðàäèåíòà 9" x1="3279.2325" y1="1624.4106" x2="3394.7992" y2="1200.6655" xlink:href="#_Íîâûé_îáðàçåö_ãðàäèåíòà_9"/>
    <linearGradient id="_Íîâûé_îáðàçåö_ãðàäèåíòà_8-5" data-name="Íîâûé îáðàçåö ãðàäèåíòà 8" x1="3723.2374" y1="138.7052" x2="1824.6387" y2="1709.8651" xlink:href="#_Íîâûé_îáðàçåö_ãðàäèåíòà_8"/>
    <linearGradient id="_Íîâûé_îáðàçåö_ãðàäèåíòà_9-5" data-name="Íîâûé îáðàçåö ãðàäèåíòà 9" x1="3403.253" y1="1131.9285" x2="3117.0859" y2="1885.8671" xlink:href="#_Íîâûé_îáðàçåö_ãðàäèåíòà_9"/>
    <linearGradient id="_Íîâûé_îáðàçåö_ãðàäèåíòà_8-6" data-name="Íîâûé îáðàçåö ãðàäèåíòà 8" x1="3411.9255" y1="1590.2851" x2="3213.8099" y2="2113.0893" xlink:href="#_Íîâûé_îáðàçåö_ãðàäèåíòà_8"/>
    <linearGradient id="_Íîâûé_îáðàçåö_ãðàäèåíòà_9-6" data-name="Íîâûé îáðàçåö ãðàäèåíòà 9" x1="2378.6403" y1="1853.6171" x2="2496.1841" y2="1853.6171" xlink:href="#_Íîâûé_îáðàçåö_ãðàäèåíòà_9"/>
    <linearGradient id="_Íîâûé_îáðàçåö_ãðàäèåíòà_9-7" data-name="Íîâûé îáðàçåö ãðàäèåíòà 9" x1="1575.9739" y1="1565.705" x2="3248.5169" y2="1565.705" xlink:href="#_Íîâûé_îáðàçåö_ãðàäèåíòà_9"/>
    <linearGradient id="_Íîâûé_îáðàçåö_ãðàäèåíòà_8-7" data-name="Íîâûé îáðàçåö ãðàäèåíòà 8" x1="2850.6093" y1="1255.4528" x2="3085.4116" y2="974.7907" xlink:href="#_Íîâûé_îáðàçåö_ãðàäèåíòà_8"/>
    <linearGradient id="_Íîâûé_îáðàçåö_ãðàäèåíòà_7" data-name="Íîâûé îáðàçåö ãðàäèåíòà 7" x1="2986.0938" y1="933.355" x2="3123.2149" y2="999.852" gradientUnits="userSpaceOnUse">
      <stop offset="0" stop-color="#fb9a2b"/>
      <stop offset="1" stop-color="#e65925"/>
    </linearGradient>
    <linearGradient id="_Íîâûé_îáðàçåö_ãðàäèåíòà_7-2" data-name="Íîâûé îáðàçåö ãðàäèåíòà 7" x1="2979.0303" y1="947.9201" x2="3116.1515" y2="1014.4171" xlink:href="#_Íîâûé_îáðàçåö_ãðàäèåíòà_7"/>
    <linearGradient id="_Íîâûé_îáðàçåö_ãðàäèåíòà_7-3" data-name="Íîâûé îáðàçåö ãðàäèåíòà 7" x1="2974.6923" y1="956.8656" x2="3111.8133" y2="1023.3625" xlink:href="#_Íîâûé_îáðàçåö_ãðàäèåíòà_7"/>
    <linearGradient id="_Íîâûé_îáðàçåö_ãðàäèåíòà_7-4" data-name="Íîâûé îáðàçåö ãðàäèåíòà 7" x1="2988.4509" y1="928.4944" x2="3125.5719" y2="994.9914" xlink:href="#_Íîâûé_îáðàçåö_ãðàäèåíòà_7"/>
    <linearGradient id="_Íîâûé_îáðàçåö_ãðàäèåíòà_7-5" data-name="Íîâûé îáðàçåö ãðàäèåíòà 7" x1="2995.5576" y1="913.8399" x2="3132.6789" y2="980.337" xlink:href="#_Íîâûé_îáðàçåö_ãðàäèåíòà_7"/>
    <linearGradient id="_Íîâûé_îáðàçåö_ãðàäèåíòà_8-8" data-name="Íîâûé îáðàçåö ãðàäèåíòà 8" x1="2738.6537" y1="1222.837" x2="2751.3653" y2="1222.837" xlink:href="#_Íîâûé_îáðàçåö_ãðàäèåíòà_8"/>
    <linearGradient id="_Íîâûé_îáðàçåö_ãðàäèåíòà_7-6" data-name="Íîâûé îáðàçåö ãðàäèåíòà 7" x1="2641.6123" y1="1389.2407" x2="2789.9092" y2="1389.2407" xlink:href="#_Íîâûé_îáðàçåö_ãðàäèåíòà_7"/>
    <linearGradient id="_Íîâûé_îáðàçåö_ãðàäèåíòà_7-7" data-name="Íîâûé îáðàçåö ãðàäèåíòà 7" x1="2641.6123" y1="1459.6391" x2="2789.9092" y2="1459.6391" xlink:href="#_Íîâûé_îáðàçåö_ãðàäèåíòà_7"/>
    <linearGradient id="_Íîâûé_îáðàçåö_ãðàäèåíòà_11" data-name="Íîâûé îáðàçåö ãðàäèåíòà 11" x1="2104.5965" y1="998.7489" x2="1974.3547" y2="1168.8887" gradientUnits="userSpaceOnUse">
      <stop offset="0" stop-color="#00503e"/>
      <stop offset="1" stop-color="#023222"/>
    </linearGradient>
    <linearGradient id="_Íîâûé_îáðàçåö_ãðàäèåíòà_11-2" data-name="Íîâûé îáðàçåö ãðàäèåíòà 11" x1="1985.0005" y1="1189.817" x2="2022.1468" y2="1063.244" xlink:href="#_Íîâûé_îáðàçåö_ãðàäèåíòà_11"/>
    <linearGradient id="_Íîâûé_îáðàçåö_ãðàäèåíòà_10" data-name="Íîâûé îáðàçåö ãðàäèåíòà 10" x1="2462.9584" y1="1073.4782" x2="2221.5062" y2="1329.376" gradientUnits="userSpaceOnUse">
      <stop offset="0" stop-color="#c7a44f"/>
      <stop offset="1" stop-color="#609a3f"/>
    </linearGradient>
    <linearGradient id="_Íîâûé_îáðàçåö_ãðàäèåíòà_10-2" data-name="Íîâûé îáðàçåö ãðàäèåíòà 10" x1="2457.7657" y1="1068.5789" x2="2216.3132" y2="1324.4771" xlink:href="#_Íîâûé_îáðàçåö_ãðàäèåíòà_10"/>
    <linearGradient id="_Íîâûé_îáðàçåö_ãðàäèåíòà_7-8" data-name="Íîâûé îáðàçåö ãðàäèåíòà 7" x1="2308.1486" y1="1248.5973" x2="2338.0595" y2="1248.5973" xlink:href="#_Íîâûé_îáðàçåö_ãðàäèåíòà_7"/>
    <linearGradient id="_Íîâûé_îáðàçåö_ãðàäèåíòà_7-9" data-name="Íîâûé îáðàçåö ãðàäèåíòà 7" x1="2183.1444" y1="1505.8105" x2="2216.0055" y2="1505.8105" xlink:href="#_Íîâûé_îáðàçåö_ãðàäèåíòà_7"/>
    <linearGradient id="_Íîâûé_îáðàçåö_ãðàäèåíòà_7-10" data-name="Íîâûé îáðàçåö ãðàäèåíòà 7" x1="2460.7962" y1="1493.2541" x2="2499.7239" y2="1493.2541" xlink:href="#_Íîâûé_îáðàçåö_ãðàäèåíòà_7"/>
    <linearGradient id="_Íîâûé_îáðàçåö_ãðàäèåíòà_11-3" data-name="Íîâûé îáðàçåö ãðàäèåíòà 11" x1="1789.5056" y1="1348.0894" x2="1866.4086" y2="1348.0894" xlink:href="#_Íîâûé_îáðàçåö_ãðàäèåíòà_11"/>
    <linearGradient id="_Íîâûé_îáðàçåö_ãðàäèåíòà_9-8" data-name="Íîâûé îáðàçåö ãðàäèåíòà 9" x1="1885.591" y1="978.7142" x2="1694.8137" y2="1291.4785" xlink:href="#_Íîâûé_îáðàçåö_ãðàäèåíòà_9"/>
    <linearGradient id="_Íîâûé_îáðàçåö_ãðàäèåíòà_11-4" data-name="Íîâûé îáðàçåö ãðàäèåíòà 11" x1="1689.7929" y1="1350.9529" x2="1852.1169" y2="1350.9529" xlink:href="#_Íîâûé_îáðàçåö_ãðàäèåíòà_11"/>
    <linearGradient id="_Íîâûé_îáðàçåö_ãðàäèåíòà_9-9" data-name="Íîâûé îáðàçåö ãðàäèåíòà 9" x1="1859.3467" y1="962.7058" x2="1668.5696" y2="1275.4697" xlink:href="#_Íîâûé_îáðàçåö_ãðàäèåíòà_9"/>
    <linearGradient id="_Íîâûé_îáðàçåö_ãðàäèåíòà_7-11" data-name="Íîâûé îáðàçåö ãðàäèåíòà 7" x1="1685.0071" y1="856.7033" x2="1801.7269" y2="856.7033" xlink:href="#_Íîâûé_îáðàçåö_ãðàäèåíòà_7"/>
    <linearGradient id="_Íîâûé_îáðàçåö_ãðàäèåíòà_9-10" data-name="Íîâûé îáðàçåö ãðàäèåíòà 9" x1="1890.8968" y1="981.9506" x2="1700.1195" y2="1294.715" xlink:href="#_Íîâûé_îáðàçåö_ãðàäèåíòà_9"/>
    <linearGradient id="_Íîâûé_îáðàçåö_ãðàäèåíòà_7-12" data-name="Íîâûé îáðàçåö ãðàäèåíòà 7" x1="1685.0805" y1="1562.6664" x2="1755.2977" y2="1562.6664" xlink:href="#_Íîâûé_îáðàçåö_ãðàäèåíòà_7"/>
    <linearGradient id="_Íîâûé_îáðàçåö_ãðàäèåíòà_7-13" data-name="Íîâûé îáðàçåö ãðàäèåíòà 7" x1="1815.4901" y1="1562.6664" x2="1885.7075" y2="1562.6664" xlink:href="#_Íîâûé_îáðàçåö_ãðàäèåíòà_7"/>
  </defs>
  <g class="cls-28">
    <g id="Layer_2" data-name="Layer 2">
      <g id="_Ñëîé_2" data-name="Ñëîé 2">
        <rect class="cls-10" width="3600" height="2000"/>
        <polygon class="cls-46" points="1800 2000 3600 2000 3600 0 2468 0 1800 2000"/>
        <polygon class="cls-46" points="873 2000 0 1379 0 2000 873 2000"/>
      </g>
      <g id="Layer_1-2" data-name="Layer 1">
        <g>
          <path class="cls-33" d="m2670.0978,956.4314c34.1511.6332,67.8249-8.7266,96.435-27.3863,22.9932-14.9971,44.552-37.0919,48.5358-68.2552,9.1058-71.2299-31.9293-68.8791-41.995-97.9274-10.0647-29.0481,19.7934-42.0588,6.9032-94.9743-6.925-28.425-28.8243-40.7342-62.985-86.4146-34.1606-45.6799-75.5389-69.0921-105.7341-52.0588-30.1952,17.0333-28.9837,53.6732-51.437,65.8752-22.4523,12.2022-56.9571,54.7855-43.7943,135.7544,13.1619,80.9684-75.876,50.7728-41.0351,144.4564,25.5443,68.6863,137.2915,79.8584,195.1065,80.9306Z"/>
          <g class="cls-25">
            <path class="cls-18" d="m2484.5004,801.088c-2.6869,24.7883,1.0182,50.2716,10.8252,73.2039,2.1242,4.9671,4.6787,10.0064,9.0047,13.242,4.9454,3.699,11.4426,4.4833,17.6134,4.7163,24.3999.9232,48.5288-4.7538,72.8765-6.5866,24.3476-1.833,50.5816.8077,69.7305,15.9563,5.4356,4.3,10.2755,9.5814,16.6282,12.351,6.5183,2.8415,13.9633,2.7135,20.977,1.5443,22.2983-3.7182,42.6055-17.9779,53.6719-37.6907,11.0664-19.7128,12.6672-44.4745,4.2302-65.4476-7.6687-19.0609-22.9288-34.7041-28.3722-54.5154-7.5147-27.3463,5.0951-55.5974,14.3115-82.4182,5.2109-15.1651,9.0144-31.5282,7.8726-47.6626-.0583-.8222-.1603-1.6501-.2935-2.4818,13.4327,15.1637,22.407,26.1975,26.4004,42.5893,12.8911,52.9155-16.9679,65.9262-6.9032,94.9743,10.0657,29.0483,51.1008,26.6971,41.995,97.9274-3.9838,31.1633-25.5426,53.2581-48.5358,68.2552-28.6101,18.6597-62.2839,28.0195-96.435,27.3863-57.815-1.0722-169.5622-12.2443-195.1065-80.9306-16.3792-44.043-5.379-60.7062,9.5091-74.4128Z"/>
          </g>
          <path class="cls-40" d="m2629.4459,895.1944c3.1746,44.9923,7.8221,224.1647,1.0756,239.7348-10.0656,23.2276,42.7274-5.7126,42.7274-5.7126,0,0-14.0285-106.9692-22.158-159.2197-3.6179-23.2531-10.2511-93.2227-10.3138-99.3099.2769-.5539.56-1.1074.8544-1.6596.9502-1.7954,1.9979-3.5661,3.0883-5.3154,2.1949-3.4948,4.6126-6.8902,7.2229-10.1532,15.9359-19.8983,37.8831-34.2194,62.2342-43.1733-25.5687,6.4607-49.5453,18.7604-68.3239,37.7337-1.5887,1.6073-3.1355,3.2626-4.6387,4.9658.5512-7.826,1.6174-14.0333,3.2808-18.0527,1.9153-4.6288,7.4746-12.467,14.2968-23.5607,5.6864-6.2439,12.2169-12.3998,18.5288-17.6391,2.5222-2.0847,5.1037-4.1022,7.7427-6.0493,10.7389-7.8821,22.1737-14.3232,35.0491-17.9164-13.4929,1.8451-26.0364,6.8479-37.9615,13.3169-2.977,1.6244-5.9113,3.3327-8.8002,5.1217-.7856.4886-1.5677.9846-2.3464,1.4854,15.5832-30.6899,30.8955-75.6208,24.5907-135.3506,0,0-1.7707,40.1559-11.6657,76.8136-1.6295-5.953-3.8836-11.6442-6.479-17.1147-5.7204-11.4291-8.7992-15.5209-14.3734-23.1914-1.8734-2.366-3.793-4.688-5.6778-7.0217,1.5956,2.5528,3.2139,5.0777,4.7747,7.6296,4.1431,7.4501,6.884,12.0236,11.2457,24.2322,6.7377,20.191,4.7389,33.6119,4.7389,33.6119-1.9649,5.2376-4.1457,10.2199-6.5653,14.7894-15.4612,29.2045-34.1659,50.2197-42.1299,67.3288-2.9857-5.5571-6.0226-11.0764-9.1094-16.5647-6.6053-11.7048-13.39-23.2977-20.4587-34.7194-1.1453-1.8534-2.2993-3.7016-3.4585-5.5467-2.7776-8.207-4.4768-17.9055-5.3722-26.1788-1.1122-10.5215-1.1313-16.2829-.9598-24.9668-1.0764,8.6508-1.6617,14.4231-1.6487,25.1197.0157,4.2163.2186,8.4365.5574,12.659.0541.6976.1246,1.3943.1925,2.0915-.0391-.0592-.0775-.1188-.1166-.1781-3.6868-5.6124-7.4302-11.1861-11.3259-16.6557-3.8898-5.4727-7.8875-10.8691-12.0724-16.1158-4.185-5.2432-8.578-10.3339-13.3308-15.0502,4.4226,5.0273,8.4378,10.3762,12.2404,15.8641,3.7999,5.4901,7.4013,11.1121,10.8904,16.8003,3.4943,5.6848,6.8326,11.4666,10.11,17.2785,3.2792,5.8115,6.4539,11.6822,9.5692,17.5829.4007.7569.7961,1.5163,1.1941,2.2749-.2569-.0692-.5139-.1415-.7716-.2077-2.2619-.6027-4.5325-1.1322-6.8057-1.6348-4.5481-.9972-9.118-1.8172-13.6949-2.5293-11.8694-1.7009-16.2546-2.021-27.571-2.7156,11.3973,1.7911,15.5979,2.5106,27.0554,5.2776,4.441,1.1287,8.8489,2.3594,13.1915,3.752,3.793,1.2233,8.1992,2.7623,11.8703,4.3544,4.6291,9.0018,9.1058,18.0811,13.4685,27.2069,2.8671,6.0192,5.6803,12.0628,8.4169,18.1277,1.0956,2.4483,2.706,4.7341,3.2582,7.3491,2.0111,9.5236,4.664,51.0015,4.664,51.0015Z"/>
        </g>
        <g>
          <path class="cls-45" d="m2940.3469,568.7206c26.3953-5.1517,46.8479-26.1252,51.7566-52.5665,13.8866-74.807,57.8106-206.4921,195.0578-208.9086,161.6574-2.8463,190.4869,116.5867,186.6713,203.5792-.9598,21.8767,17.1413,39.7444,39.0205,38.849,47.82-1.9575,117.5566,8.9656,117.5566,89.3336,0,0,43.2439,151.3536-79.7309,187.8405-122.9747,36.487-182.4349-11.4866-235.1391,37.1625-48.6769,44.9335-207.4471,91.5954-284.1236-10.6731-11.9904-15.9931-26.9082-29.5812-43.7594-40.3324-28.7921-18.3698-66.6883-62.964-35.0081-165.2209,12.3031-39.7112,44.9379-70.0501,85.6142-78.64.6897-.1454,1.3839-.2865,2.0841-.4233Z"/>
          <path class="cls-24" d="m3530.4097,639.0073c0-36.0516-14.0372-58.122-33.8289-71.3314.9616,7.8334,1.83,15.6781,2.5798,23.5346,3.5361,37.1006,3.9655,77.2752-16.7528,108.2547-21.4961,32.1422-61.6934,47.202-100.2716,49.8309-38.5789,2.6286-77.0029-5.1234-115.4993-8.7631-38.4962-3.6393-79.1812-2.7244-113.2182,15.6245-18.3136,9.8723-33.8724,24.3812-52.4873,33.6712-18.615,9.2901-42.7658,12.3501-59.0831-.557-10.9758-8.6821-16.6981-23.2406-28.847-30.1873-8.5459-4.8861-18.8867-5.1748-28.286-8.0999-18.8005-5.8507-32.9988-22.3557-39.7793-40.8414-6.7812-18.486-6.9693-38.7789-4.7075-58.3389,2.2236-19.2272,7.8003-39.8732,23.4453-51.2688,11.0977-8.0829,25.378-10.0874,37.9755-15.5453,21.7146-9.408,37.4154-28.5303,52.2443-46.9724,12.0897-15.0336,24.702-31.334,26.2149-50.566,1.6949-21.5484-10.8687-41.2886-17.1822-61.9608-6.7508-22.1061-5.238-45.9264,2.5544-67.5422-45.2374,45.7108-64.9018,112.5503-73.3772,158.2054-4.9087,26.4413-25.3613,47.4148-51.7566,52.5665-.7002.1368-1.3944.2779-2.0841.4233-40.6763,8.5899-73.3111,38.9288-85.6142,78.64-31.6802,102.2569,6.216,146.8511,35.0081,165.2209,16.8512,10.7512,31.769,24.3393,43.7594,40.3324,76.6765,102.2685,235.4467,55.6066,284.1236,10.6731,52.7042-48.6491,112.1644-.6755,235.1391-37.1625,122.9748-36.4869,79.7309-187.8405,79.7309-187.8405Z"/>
          <path class="cls-40" d="m3247.6876,691.1615c-12.7874,8.5755-24.8763,18.3767-35.8582,29.4723-2.774,2.8053-5.474,5.6952-8.0973,8.6678.9624-13.6596,2.8236-24.494,5.7266-31.51,3.3435-8.0785,13.046-21.7599,24.9537-41.1226,9.9751-10.9492,21.3681-21.6811,32.3404-30.7875,4.4027-3.6384,8.9082-7.1601,13.5137-10.5586,18.797-13.7964,38.7533-25.0151,61.1761-31.2716-23.5594,3.2216-45.4492,11.9555-66.259,23.2436-5.1952,2.8345-10.3173,5.8167-15.3593,8.939-1.3717.8532-2.7356,1.7194-4.0952,2.5929,27.1982-53.5665,53.9253-131.9896,42.9199-236.2422,0,0-3.0893,70.0885-20.3613,134.0707-7.4406-27.1865-19.8682-47.6091-36.3955-70.3507-3.2696-4.13-6.6201-8.1826-9.9106-12.2552,2.7853,4.4549,5.6098,8.8624,8.3342,13.3165,35.0194,62.9819,27.8994,100.9617,27.8994,100.9617-3.4307,9.1416-7.236,17.8377-11.4584,25.8135-26.9866,50.974-59.6343,87.6544-73.534,117.5164-5.2117-9.6989-10.5124-19.3322-15.9001-28.9118-11.5289-20.43-23.3722-40.6641-35.7084-60.5995-1.9997-3.2351-4.0143-6.4612-6.0375-9.6815-1.4684-4.3383-3.6249-10.3426-6.1759-24.2444-1.3204-7.0874-2.4204-14.2441-3.2008-21.4481-1.9745-18.6791-1.9641-28.9036-1.6748-43.578-1.8552,14.8982-2.902,25.0483-2.8777,43.8449.027,7.3591.3814,14.7252.9728,22.0948.095,1.2172.2186,2.4339.3354,3.6502-.068-.1032-.1342-.2073-.2021-.311-6.4355-9.7952-12.9694-19.5242-19.7699-29.0707-6.7891-9.5518-13.7663-18.9716-21.071-28.1289-7.3047-9.1511-14.9717-18.0367-23.2667-26.2684,7.7184,8.7748,14.7261,18.1106,21.3628,27.689,6.6341,9.5822,12.9197,19.3953,19.0095,29.3242,6.0993,9.9219,11.9251,20.0133,17.6456,30.1578,5.7239,10.1427,11.265,20.3899,16.7023,30.6889.6994,1.3218,1.39,2.6473,2.0843,3.9708-12.3494-3.3088-24.4958-5.6648-37.129-7.6301-20.7479-2.9742-28.4567-3.5334-48.122-4.7397,19.8029,3.111,27.179,4.3726,47.2223,9.2108,13.6915,3.4808,26.7079,7.3705,39.8175,12.5209.9058.3723,1.8282.7268,2.7157,1.1122.3998.1681.8092.3423,1.2098.5164,8.0799,15.7117,15.8932,31.5592,23.5089,47.4873,5.0045,10.5063,9.9141,21.0549,14.6903,31.6405,2.3708,5.2954,4.7415,10.5961,7.0139,15.8994l.0592.1384c-.0201,1.3439.0201,2.6773.1385,3.9985.8457,9.426,2.8916,32.1166,5.0933,61.0528-43.1324-19.5355-78.785-20.5384-109.3974-21.3589-8.5902-.2073-17.1639-.3793-25.7175-.6449-.1559-.0889-.3284-.1907-.4869-.287-1.917-1.1919-3.442-2.2362-5.6516-3.979-6.0114-4.7672-11.7502-10.9279-16.3245-17.9029-3.016-4.5456-5.5174-9.456-7.5355-14.5859-1.9787-5.1448-3.4541-10.5168-4.3966-16.0109.3763,5.5598,1.2978,11.11,2.7723,16.5478,1.5146,5.4217,3.5632,10.738,6.209,15.7787,3.6939,7.127,8.6704,14.0277,14.7001,20.0446-10.2294-.4407-20.4283-1.0943-30.5889-2.1922-11.0759-1.2219-22.1118-2.9595-32.8716-5.8654-10.7259-2.9151-21.2897-6.9925-30.4923-13.4794,8.7236,7.127,19.1306,12.0336,29.7894,15.7512,9.8523,3.4229,20.0207,5.8533,30.2545,7.8021-2.0677.29-4.1336.591-6.2021.9067-7.546,1.1745-15.0624,2.5061-22.5221,4.1131-7.4537,1.6361-14.8682,3.4411-22.1597,5.6673-7.2778,2.2632-14.4589,4.8512-21.3229,8.1024,7.0923-2.7274,14.397-4.7519,21.7601-6.4489,7.3778-1.6588,14.8401-2.8907,22.3147-3.952,7.4816-1.0316,14.9988-1.7872,22.5204-2.3851,7.5076-.5762,29.0786-1.2529,36.5235-1.3887l-.0069-.0035c12.9676,1.5268,25.9571,2.6781,38.8717,3.907,18.6479,1.8135,63.9569,4.1193,109.2693,31.2604.7438.446,1.4772.9046,2.2139,1.36,5.542,78.5303,6.4373,304.6441-5.3389,331.8202-17.568,40.5413,95.7687-10.934,95.7687-10.934,0,0-38.4606-99.1261-52.6502-190.3245-8.2794-53.2158-17.4653-121.4423-18.0019-173.3374.4843-.9663.9772-1.9327,1.4911-2.8963,1.6584-3.1337,3.4874-6.2243,5.3912-9.2775,3.8305-6.1001,8.0512-12.0265,12.6072-17.7218,9.1215-11.3912,19.5503-21.8658,30.9076-31.3479,17.7841-15.2948,45.5058-32.1622,77.7163-44.0077-33.5919,8.4879-63.376,22.5691-83.3949,36.3886Z"/>
        </g>
        <path class="cls-48" d="m3600,956.8793v194.6942c-37.6843-7.3469-177.7461-7.3052-365.9385-3.3187-42.913.908-88.32,2.0142-135.5952,3.2874-19.7553-26.5179-41.9318-63.3465-9.3715-59.4643,33.4683,3.9969,64.9122,21.4668,82.2358,32.7377,1.0749.6993,2.0872,1.3671,3.0472,2.0247,6.6688,4.4665,10.6032,7.5764,10.8432,7.7643-.1045-.3131-2.223-6.2616-4.6753-14.527-5.9485-20.0997-13.7862-53.8393,1.0227-52.7853,11.49.8245,22.6983,14.5896,30.5253,26.9458,6.512,10.3003,10.676,19.6197,10.676,19.6197,0,0-1.5759-12.0223-.5949-23.0322,1.0018-11.1875,4.6439-21.3208,15.2471-16.7812,21.0598,9.0167,30.2122,24.7855,30.2122,24.7855,0,0,5.4998-221.5668,65.0059-211.0473,59.5166,10.5091,71.424,182.5153,71.424,182.5153,0,0,21.9678-96.8983,45.7722-89.3844,23.815,7.5139,22.8967,82.6218,22.8967,82.6218,0,0,12.8155-69.1072,42.1196-60.0905,29.294,9.0167,31.1307,61.5933,31.1307,61.5933,0,0,14.6418-74.3565,54.0168-108.1588Z"/>
        <path class="cls-41" d="m3234.0615,1148.2548c-42.913.908-88.32,2.0142-135.5952,3.2874-106.6559,2.8804-222.7774,6.5956-340.9756,10.676-47.7134,1.6385-95.7504,3.3499-143.6515,5.0824,4.8421-19.6406,8.401-39.2499,8.401-39.2499,0,0,11.8969-24.5141,26.3715-45.1357,13.9009-19.8179,30.1707-36.0355,40.5545-23.481,6.1574,7.4513,11.0936,14.2973,14.9966,20.2563.5425.8348,1.0643,1.6489,1.5759,2.442,8.3175,13.139,11.3125,21.4043,11.3125,21.4043,0,0,49.0701-133.8731,113.7629-93.6214,64.6928,40.2621,72.4989,127.2879,72.4989,127.2879,0,0,14.5062-77.7691,41.2744-60.3931,26.7686,17.3864,40.1473,60.3931,40.1473,60.3931,0,0,29.0017-64.0457,42.3912-50.3223,13.3788,13.7232,17.8454,43.0067,17.8454,43.0067,0,0,49.0702-156.9262,91.4613-128.3315,36.1502,24.3889,35.7851,101.1979,34.898,123.2596-.1565,3.8092-.3236,5.9798-.3236,5.9798,0,0,1.2314-1.5133,3.3708-3.9551,1.5968-1.816,3.6944-4.1537,6.1679-6.7627,8.1294-8.5783,20.2562-20.0893,31.548-25.8395,3.4857-1.7741,6.898-3.0056,10.0811-3.4125,5.3642-.7202,10.1022.8661,13.525,5.9589,9.2882,13.8068,4.4771,35.1902-1.6383,51.4703Z"/>
        <path class="cls-20" d="m2757.4907,1162.2182c-47.7134,1.6385-95.7504,3.3499-143.6515,5.0824-20.5903.741-41.1494,1.4924-61.6456,2.2542-43.539,1.5967-86.7753,3.2039-129.3543,4.8005,1.1271-25.8396,7.2843-65.9243,37.2983-12.3771,0,0-.3236-23.5958,2.9847-46.4924,3.8718-26.6432,12.6798-52.3261,32.7064-38.6446,0,0,42.7563-202.6254,101.5006-105.5915,25.1613,41.5667,41.1909,80.6078,51.2824,111.6653,13.4731,41.4414,16.3848,68.6585,16.3848,68.6585,0,0,21.2684-95.9069,39.1663-71.8832.5323.7097,1.0541,1.5132,1.5759,2.442.052.094.1042.1878.1564.2818,18.2213,33.0925,14.8713,69.1594,14.8713,69.1594,0,0,26.0274-43.873,32.717-21.5712,3.1828,10.6239,4.0073,22.594,4.0073,32.2159Z"/>
        <path class="cls-2" d="m2150.5848,1184.7079c-68.1575,2.5985-131.4416,4.978-187.6602,7.0129-139.4774,5.0615-235.5408,7.9836-254.9204,6.6582-15.2471-1.0331-39.4272-4.9571-68.9925-10.7282-11.4379-2.2334-23.7002-4.7379-36.547-7.4618-4.7899-10.7908-8.9748-24.7646-8.9748-24.7646h48.2143s-4.4979-16.2697-6.2929-34.3136c-3.5899-36.1817,3.7153-79.4702,80.0337-12.9407,0,0,31.2245-183.9867,102.6069-154.4424,71.3823,29.5548,98.1611,201.6967,98.1611,201.6967,0,0,14.8504-17.0524,33.0716-32.3412,19.6302-16.4576,43.1633-30.8697,56.2292-19.651,24.9735,21.4146,7.6809,65.2459,7.3678,66.0494.8245-.7095,46.1793-39.4063,55.0186,17.449,0,0,44.4575-41.2325,82.6846-2.2227Z"/>
        <path class="cls-3" d="m2232.2152,1181.598c-23.7315.9078-47.0037,1.7949-69.7647,2.6611,14.7878-3.5901,43.8835-8.8184,69.7647-2.6611Z"/>
        <path class="cls-49" d="m2552.1936,1169.5548c-43.539,1.5967-86.7753,3.2039-129.3543,4.8005-65.5695,2.4733-129.563,4.9155-190.6241,7.2427-23.7315.9078-47.0037,1.7949-69.7647,2.6611-6.1051,1.4715-9.7785,2.6715-9.7785,2.6715-.6993-.7722-1.3984-1.5132-2.0872-2.2227-68.1575,2.5985-131.4416,4.978-187.6602,7.0129-4.5502-19.7136-10.123-44.6975-13.64-68.6376-5.3953-36.7347-5.9693-71.0066,9.3089-80.0755,33.0926-19.6302,102.6173,61.2593,102.6173,61.2593,0,0,39.4064-108.8474,79.1884,12.805,0,0-6.6895-188.4742,63.5762-183.444,70.2656,5.0301,92.5778,187.848,92.5778,187.848,0,0,33.4579-84.9176,70.2657-65.705,36.2964,18.9518,6.4285,83.2898,5.604,85.0534,1.0332-1.6697,36.1087-58.4103,50.2808-51.1991,14.3807,7.3157,19.964,41.1701,19.964,41.1701,0,0,8.3593-7.0338,20.4546-15.3096,21.9886-15.0382,56.3337-34.1675,75.2227-22.5313,15.8836,9.7994,15.4244,52.7122,13.8486,76.6003Z"/>
        <path class="cls-21" d="m2162.4505,1184.2591c-6.1051,1.4715-9.7785,2.6715-9.7785,2.6715-.6993-.7722-1.3984-1.5132-2.0872-2.2227,3.9447-.1462,7.9-.3027,11.8657-.4488Z"/>
        <path class="cls-15" d="m3193.0126,1269.2411s-11.8973-58.4961,6.4443-57.0085c18.3418,1.4875,35.6922,28.4898,35.6922,28.4898,0,0,4.4614-54.7631,23.7945-30.9685,19.3335,23.7945,22.3078,29.7431,22.3078,29.7431,0,0-11.4017-146.2379,41.1449-140.2893,52.5465,5.9486,60.9739,127.8965,60.9739,127.8965,0,0,19.829-69.8969,40.1537-57.9996,20.3247,11.8972,19.3331,70.8888,19.3331,70.8888,0,0,22.3074-43.6244,33.709-37.1794,11.4017,6.4442,11.4017,45.6068,11.4017,45.6068,0,0,67.9186-16.6553,82.788,23.8939,14.8694,40.55-123.4372,29.6438-123.4372,29.6438,0,0-228.0326-5.453-229.5198-6.9397-1.4871-1.4877-24.7861-25.7777-24.7861-25.7777Z"/>
        <path class="cls-54" d="m1312.4173,1999.1352s-47.0934-148.3475,42.6321-37.8013c0,0-48.0847-126.4098,31.2307-56.5129l28.0396,16.3496s-76.2487-233.372-3.3775-259.8735c72.8716-26.5006,134.9608,219.7294,134.9608,219.7294,0,0,11.8972-107.0764,39.4099-94.4353,27.5127,12.6411,24.5383,115.9993,24.5383,115.9993,0,0,29.7432-44.0731,37.179-32.4467,7.4362,11.6265-6.692,62.1898-6.692,62.1898,0,0,35.6922-44.6147,44.6152-35.6918,8.9229,8.923,0,46.5074,0,46.5074,0,0,116.7426-155.0704,164.3321-139.4559,47.5891,15.6154-75.8456,162.8454-75.8456,162.8454,0,0,101.8711-78.076,133.8453-58.7434,31.974,19.3335-11.154,60.9739-11.154,60.9739,0,0,90.7171-27.3907,53.5382,31.2308l-637.2521-.8648Z"/>
        <path class="cls-52" d="m2615.1221,2000s-32.3456-37.5513,72.4994-37.5513c0,0-162.43-96.6692,115.9992-66.9226,0,0-233.1142-66.7179-168.4221-110.8771,64.692-44.1601,360.2669,39.4935,360.2669,39.4935,0,0-79.1918-61.3458-55.7692-70.2688,23.4236-8.9229,167.3065,62.4607,167.3065,62.4607,0,0-42.3843-110.4217-13.384-97.0377,28.9994,13.3849,85.8833,85.8842,85.8833,85.8842,0,0,143.8838-200.7677,197.4224-167.3064,53.5377,33.4613,35.6918,159.736,35.6918,159.736,0,0,79.1918-167.5442,102.6152-143.0058,23.4218,24.5383,17.8459,81.4231,17.8459,81.4231,0,0,40.1529-188.4985,66.9226-192.9604v456.9326h-984.8779Z"/>
        <path class="cls-31" d="m3014.427,2000s-98.1533-135.7038-36.8075-126.7808c61.3459,8.923,117.1142,63.1792,117.1142,63.1792,0,0-30.1152-102.2181-4.4611-99.9867,25.6532,2.2305,50.1914,69.1531,50.1914,69.1531,0,0-7.8072-72.4994,17.8469-59.1145,25.6531,13.384,36.8075,36.8067,36.8075,36.8067,0,0,6.6915-329.0362,79.1909-313.4208,72.5001,15.6154,86.9998,271.0365,86.9998,271.0365,0,0,26.7688-143.8838,55.7691-132.7294,28.9994,11.1534,27.8837,122.6908,27.8837,122.6908,0,0,15.6154-102.6144,51.3071-89.2296,35.6927,13.3841,37.9233,91.4609,37.9233,91.4609,0,0,17.8459-110.4224,65.8077-160.6148v327.5494h-585.573Z"/>
        <path class="cls-42" d="m2371.2394,719.7188c-5.676-24.705-27.7835-43.1363-54.211-43.1363-4.8516,0-9.557.6241-14.0432,1.7911-13.0431-27.8928-41.3495-47.2197-74.1746-47.2197-8.4866,0-16.671,1.2916-24.3681,3.689-17.6708-29.2612-49.7747-48.8268-86.4508-48.8268-43.6357,0-80.8008,27.6947-94.8837,66.4649-9.9681-5.5575-21.4438-8.7361-33.6669-8.7361-38.2475,0-69.2536,31.006-69.2536,69.2541,0,2.2676.1171,4.5077.3296,6.7198h450.7223Z"/>
        <path class="cls-11" d="m2853.8333,425.2939c-2.5789-11.2249-12.6236-19.5992-24.6305-19.5992-2.2045,0-4.3427.2835-6.3807.8139-5.926-12.6732-18.7875-21.4542-33.7017-21.4542-3.8557,0-7.5738.5866-11.0716,1.6761-8.0284-13.2952-22.6144-22.1846-39.2793-22.1846-19.8256,0-36.7117,12.5832-43.1097,30.1983-4.5299-2.525-9.7434-3.9694-15.2967-3.9694-17.3781,0-31.4658,14.0877-31.4658,31.4659,0,1.0303.0531,2.0481.1498,3.0532h204.7862Z"/>
        <path class="cls-10" d="m2010.0131,367.9433c-2.5789-11.2244-12.6232-19.599-24.6305-19.599-2.2045,0-4.3423.2838-6.3807.8139-5.9265-12.6729-18.7875-21.4543-33.7017-21.4543-3.8557,0-7.5743.587-11.0711,1.6761-8.0289-13.2947-22.6153-22.1845-39.2793-22.1845-19.8261,0-36.7122,12.5831-43.1107,30.1981-4.5289-2.5248-9.7429-3.9689-15.2962-3.9689-17.3781,0-31.4658,14.0874-31.4658,31.4655,0,1.0304.0531,2.0481.1501,3.0531h204.7859Z"/>
        <path class="cls-2" d="m2119.2064,1763.0405h179.2041s51.3072-44.6156-25.2822-29.0002c0,0,22.3079-42.3842,5.2053-43.128-17.1021-.7429-46.1024,36.0637-46.1024,36.0637,0,0,8.1796-93.3196-9.6667-86.6272-17.8459,6.6925-31.2303,92.9477-31.2303,92.9477,0,0-24.5384-92.9477-37.179-86.999-12.6411,5.9487-14.1282,86.999-14.1282,86.999,0,0-36.4357-26.7688-44.6152-18.5889-8.1796,8.1792,23.7946,48.3329,23.7946,48.3329Z"/>
        <path class="cls-23" d="m2395.5722,1896.1419h75.35s38.6661-46.5979,20.3246-41.6404c-18.3414,4.9566-42.1369,22.9296-39.6581,20.6356,2.4787-2.2942,3.5657-64.7409-9.7217-64.0389-18.587.9824-18.0384,63.7279-18.0384,63.7279,0,0-23.7949-42.1369-31.7267-34.2051-7.9314,7.9319,4.4615,41.1449,4.4615,41.1449,0,0-39.6578-7.4362-.9912,14.376Z"/>
        <path class="cls-9" d="m2508.3098,1413.5222h53.961s27.6902-33.3708,14.5554-29.8208c-13.1358,3.5501-30.1761,16.421-28.4011,14.7784,1.7751-1.6426,2.5537-46.3636-6.9615-45.8602-13.3117.7028-12.919,45.6372-12.919,45.6372,0,0-17.0402-30.176-22.7206-24.4956-5.6795,5.6804,3.1956,29.4662,3.1956,29.4662,0,0-28.4011-5.3259-.7098,10.2948Z"/>
        <path class="cls-2" d="m1585.0515,1374.5248h-75.3495s-38.6666-46.598-20.3251-41.6414c18.3419,4.9575,42.1365,22.9297,39.6582,20.6356-2.4788-2.294-3.5658-64.7399,9.7212-64.0379,18.5879.9824,18.0392,63.727,18.0392,63.727,0,0,23.7945-42.136,31.7263-34.205,7.9314,7.9317-4.4615,41.1456-4.4615,41.1456,0,0,39.6577-7.4362.9912,14.3761Z"/>
        <path class="cls-2" d="m2556.6818,1714.2112h106.3325s20.5728-40.8966,11.8973-44.1192c-12.3929-4.603-35.1963,20.3247-35.1963,20.3247,0,0,16.6074-58.9907,4.9575-57.5041-11.649,1.4876-31.9737,53.7868-31.9737,53.7868,0,0-14.6242-64.692-29.7441-63.4526-15.1188,1.2384-4.7092,70.888-4.7092,70.888,0,0-51.3072-34.9489-21.564,20.0764Z"/>
        <path class="cls-40" d="m2126.7414,1874.9759l77.9119,1.31s-2.632-34.3167-38.3796-34.9176c-38.9561-.6559-39.5323,33.6076-39.5323,33.6076Z"/>
        <path class="cls-11" d="m3243.4275,1308.6518l77.9119,1.31s-2.6321-34.3157-38.3796-34.9176c-38.9557-.655-39.5323,33.6076-39.5323,33.6076Z"/>
        <path class="cls-40" d="m2271.8807,1819.4794l40.4516.6802s-1.3665-17.8171-19.9267-18.1289c-20.2253-.3406-20.5249,17.4487-20.5249,17.4487Z"/>
        <path class="cls-40" d="m3337.3158,1327.5203l40.4511.6802s-1.3665-17.8163-19.9266-18.129c-20.2254-.3405-20.5245,17.4488-20.5245,17.4488Z"/>
        <path class="cls-40" d="m2979.8875,1651.7871l62.0836,1.0443s-2.0973-27.3445-30.5828-27.8235c-31.0409-.5227-31.5008,26.7792-31.5008,26.7792Z"/>
        <path class="cls-11" d="m2527.1816,1791.5949l40.4517.6802s-1.3666-17.8163-19.9267-18.129c-20.2254-.3405-20.525,17.4488-20.525,17.4488Z"/>
        <path class="cls-11" d="m2948.8457,1695.4857l40.4516.6802s-1.3665-17.8163-19.9266-18.129c-20.2254-.3397-20.525,17.4488-20.525,17.4488Z"/>
        <path class="cls-11" d="m1951.1901,1686.1368l57.2222.9624s-1.9331-25.2037-28.188-25.6453c-28.611-.4816-29.0342,24.6829-29.0342,24.6829Z"/>
        <path class="cls-40" d="m2827.4092,1670.1879l83.7145,1.4083s-2.828-36.8729-41.238-37.5191c-41.8582-.7046-42.4765,36.1108-42.4765,36.1108Z"/>
        <path class="cls-11" d="m2244.9059,1863.5254l33.4277.5627s-1.1292-14.7236-16.4668-14.9814c-16.714-.2813-16.9609,14.4187-16.9609,14.4187Z"/>
        <path class="cls-11" d="m3384.31,1291.9364l33.4277.5618s-1.1292-14.7227-16.4667-14.9813c-16.7137-.2814-16.961,14.4195-16.961,14.4195Z"/>
        <path class="cls-29" d="m1761.0741,804.1015l-.8113-11.2323-16.8957,1.8382-.982,7.2045c3.2156,1.3405,9.2326,2.9504,18.689,2.1896Z"/>
        <path class="cls-39" d="m1797.3094,749.0192c.4638.0308.7808-.4647.5518-.8697-1.7751-3.1358-7.2969-13.0391-6.6019-13.6723.827-.7525,5.9765,7.9763,6.9956,7.7781,1.0194-.1977-4.2194-8.585-3.2061-9.2474,1.0139-.6619,5.5336,7.1457,6.058,7.0155.5247-.1297-3.0061-8.0733-2.6438-8.8205.3623-.7473,5.1634,7.2738,5.8446,7.2964.6811.023-.7913-6.6141-.2361-6.8065.5548-.1921.8923-.4129,8.4888,13.5791l4.448,8.0524-1.9274,3.4006-6.5958,2.339s-18.6424-8.5054-18.7761-9.3393c-.1276-.7956.4533-1.177,7.6004-.7054Z"/>
        <path class="cls-39" d="m1776.4992,778.4527c.3231-4.988.7347-9.9781.3689-14.3399-.0789-.9358-.1067-1.873-.1185-2.8106-.0466-3.7865-.7442-7.6888-2.2514-11.5667-4.8487-12.4756-16.9092-20.4274-29.3151-19.2978-16.7132,1.5212-27.8815,17.8834-24.8427,35.215-1.9322-.746-3.9389-.6498-5.5223.4803-3.0379,2.1678-3.3637,7.2886-.7278,11.4375,2.6365,4.1492,7.236,5.7548,10.2735,3.5869.4219-.3009.786-.6636,1.1026-1.0681,3.9807,14.5066,20.4244,21.7569,33.8336,19.2006,6.5579-1.2498,16.1972-5.3647,17.1992-20.8372Z"/>
        <path class="cls-29" d="m1759.2826,764.2422c-.1315,1.3909-.034,2.7853.2269,4.1662.1324.6933.3191,1.3766.5865,2.0576.281.6737.6224,1.3561,1.2403,1.944l.2587.2038.2299.1725c.0985.0835.2308.1424.3074.2395.1899.1676.3293.3662.4186.5844.2077.4333.1154.982-.1071,1.5068-.497,1.0699-1.6336,1.8716-2.8803,2.4621,1.3709-.0657,2.8837-.6114,3.7803-1.9509.4394-.6489.6768-1.5655.3937-2.4313-.0697-.2138-.1567-.4211-.2852-.6022-.1093-.1977-.2596-.3528-.4094-.5109-.1445-.1676-.3275-.2665-.4934-.3989-.1027-.071-.1223-.0979-.1759-.1406l-.1441-.1141c-.3845-.3523-.7034-.9028-.9855-1.4671-.297-.5666-.4986-1.1998-.7377-1.8208-.432-1.2646-.8096-2.5715-1.2237-3.9001Z"/>
        <path class="cls-38" d="m1751.0921,767.1189c.3397,1.4349-.5496,2.8724-1.9866,3.2117-1.4371.3393-2.8773-.5487-3.2169-1.9836-.3397-1.4344.55-2.8724,1.9866-3.2116,1.4371-.3393,2.8773.5491,3.2169,1.9835Z"/>
        <path class="cls-38" d="m1770.1852,764.0527c.3397,1.4345-.55,2.8724-1.9871,3.2117-1.4366.3388-2.8772-.5491-3.2164-1.9836-.3397-1.4345.5496-2.8724,1.9866-3.2117,1.4366-.3392,2.8768.5487,3.2169,1.9836Z"/>
        <path class="cls-40" d="m1751.5572,760.7871c-1.3901-.3109-2.6921-.5287-3.9711-.624-1.2769-.0937-2.5153-.0292-3.7081.2129-1.1841.2556-2.3681.6079-3.4839,1.2259-.5992.2395-1.1061.6462-1.7074.9545-.5754.3463-1.1009.77-1.749,1.117.2857-.644.6284-1.279,1.0404-1.8691.4621-.5408.898-1.1453,1.4955-1.5768,1.1-.9833,2.5319-1.6113,4.0016-1.9143,1.4806-.2984,3.0257-.2017,4.4257.2329,1.3927.4459,2.6939,1.1701,3.6563,2.241Z"/>
        <path class="cls-40" d="m1747.2651,744.1501c20.0982-.3933,19.9876-12.5806,19.9876-12.5806l-.5374.5361c-1.4906.9885-4.6574,1.2411-4.6574,1.2411,3.4633-8.6443-6.9263-10.373-6.9263-10.373,0,0,6.9263,6.9154-8.6577,6.9154s-19.0474,5.1865-19.0474,5.1865c-.2056.4829-.2944.9363-.287,1.3635-.0005-.0005-.0026-.0014-.0026-.0014,0,0-.1986.7965.2059,1.8778.3075.9067.8375,1.7498,1.4558,2.494.7914.9176,1.7067,1.752,2.7349,2.403,2.0393,1.3347,4.3509,2.2183,6.7006,2.7121.5836.1598,1.1798.2265,1.7721.3184.5944.0766,1.1861.1781,1.781.2325l1.7877.0828c.5944.0217,1.1893.0744,1.7832.0257,1.1867-.0567,2.3726-.0924,3.5471-.2352,1.1731-.1763,2.342-.3475,3.4969-.594-1.1845-.1241-2.3543-.1724-3.5205-.2264-.5826-.0005-1.1632-.085-1.7428-.1259-.5792-.0518-1.1574-.081-1.7349-.1219-1.1532-.1015-2.2941-.2565-3.4368-.3772l-1.6927-.2896c-.5631-.0953-1.1336-.1642-1.6797-.3205l-1.663-.381-1.6179-.5104c-.4258-.1062-.8195-.2813-1.2189-.4476,2.9722.8042,7.1885,1.3129,13.1702,1.1958Z"/>
        <path class="cls-40" d="m1767.2174,755.4956c1.3108-.6559,2.8197-1.0017,4.3291-.9472,1.4998.061,3.0153.4486,4.2612,1.2407.1563.0775.3043.1681.4477.2648.1015.5813.1864,1.1614.2556,1.7401-.4668-.1851-.9088-.3941-1.3875-.4999-1.2019-.429-2.4277-.5849-3.638-.645-1.2167-.0456-2.4491.0911-3.6937.3902-1.2467.3014-2.4961.7273-3.8173,1.2595.7751-1.2128,1.9408-2.1378,3.2429-2.8032Z"/>
        <path class="cls-29" d="m1747.1702,778.5899c1.2594,1.7397,2.7749,3.2173,4.6465,3.9415.9228.3606,1.9148.5901,2.939.5797.513.0539,1.0248-.0493,1.5517-.0611.5225-.0527,1.0386-.1711,1.5873-.2185-.4768.2464-.9707.4903-1.4867.6762-.53.125-1.0582.3349-1.6195.3471-1.1106.1681-2.2698-.0387-3.328-.4386-1.0556-.4258-2.0006-1.1065-2.7265-1.953-.7246-.8427-1.289-1.8186-1.5638-2.8733Z"/>
        <path class="cls-51" d="m3248.5167,1555.0256c.2822,14.8167-319.4112,34.5195-840.8177,44.4554-521.4061,9.9358-831.4427-10.968-831.7249-25.7847-.2822-14.8167,328.9681-31.5495,850.3742-41.4854,521.4062-9.9359,821.8862,7.998,822.1684,22.8147Z"/>
        <path class="cls-39" d="m2998.4955,1022.6385l6.5679-1.6113,22.8025-5.329,7.4371,4.7093s4.7093,20.201,4.3374,20.201-12.5174,7.0639-14.7479,6.5683c-2.2306-.496-27.2653,1.6109-28.2565-1.1156-.9912-2.7262-5.7004-11.8974-5.0811-12.2693.6201-.3714,6.9406-11.1534,6.9406-11.1534Z"/>
        <path class="cls-39" d="m2936.1916,1205.4192c-4.4993-3.7939-7.5372-1.2141-12.0793-5.0637l-3.0875,8.5527c-9.4961,8.3813-21.0597,17.7301-18.0776,16.9349,4.1562-.6915,11.6081-5.6995,5.6908.6698-11.1578,12.1951.9851,2.1016,5.0429.3153-5.5646,7.5294-13.0304,15.5518,2.5928,3.0701,4.9427-2.6311-9.2922,11.7483-5.966,10.5708,15.9402-10.7319,14.4604-17.906,16.6683-5.8545,3.0745,14.4639,5.3643-23.7345,9.2156-29.1954Z"/>
        <polygon class="cls-39" points="3022.7639 1316.2302 2953.6212 1559.3926 2933.4316 1552.1941 2971.6021 1295.41 3022.7639 1316.2302"/>
        <path class="cls-39" d="m3026.7511,1303.8373s2.3551,111.5373,9.5431,117.486c7.1879,5.9486,97.0376,125.4186,97.7195,124.9222.6812-.4956,18.0315-12.3928,18.0315-12.3928,0,0-70.3924-120.9568-71.3845-129.8798-.9912-8.9229,1.9832-95.6746,1.9832-95.6746l-55.8928-4.461Z"/>
        <path class="cls-40" d="m2974.7001,1219.5923s-13.0121,57.3516-14.1278,106.0572c0,0,38.3857,17.515,62.1916,11.8974,33.6067-7.9319,70.1669-6.6925,70.1669-6.6925l-21.5649-113.7687-52.0501-10.4106-44.6157,12.9172Z"/>
        <path class="cls-11" d="m2993.4144,1034.6599s19.8291,13.1366,41.3922,2.2305l1.4876,157.1446-5.7013,20.8202s-21.0676,10.6579-50.5635,0l5.9487-119.7174,7.4363-60.4779Z"/>
        <polygon class="cls-30" points="2973.3623 1047.7124 2917.3206 1205.1884 2936.6532 1213.6157 2975.4439 1146.445 2973.3623 1047.7124"/>
        <polygon class="cls-39" points="3026.6849 998.3662 3027.8659 1015.6982 3010.9694 1026.111 3004.2438 1022.8018 3003.8684 1001.3406 3026.6849 998.3662"/>
        <path class="cls-2" d="m2998.4955,1022.6385l-6.5069,202.8128s-10.9679,0-20.6347-4.8957c0,0-4.7214-126.8541,0-163.3406,4.09-31.6022,27.1416-34.5765,27.1416-34.5765Z"/>
        <path class="cls-29" d="m3004.1132,1015.2941l-.2448-13.9535,22.8165-2.9744.4895,7.1815c-4.4706,3.6188-12.2649,8.464-23.0612,9.7464Z"/>
        <path class="cls-50" d="m3050.1624,972.2101s11.0838-27.6386-4.7546-40.6676c-15.8383-13.029-34.3052-14.2893-47.6352-9.54-13.33,4.7498-23.7945,26.133-19.9179,39.6716l43.027-6.6676,29.2807,17.2036Z"/>
        <path class="cls-29" d="m2982.5588,967.4499c.9571,4.0469-.9851,7.8987-4.34,8.6033-3.3549.7041-6.8501-2.0054-7.8082-6.0523-.958-4.0469.9851-7.8987,4.34-8.6029,3.354-.7046,6.8501,2.005,7.8082,6.0519Z"/>
        <path class="cls-39" d="m2979.9172,989.7416c-.7012-1.7937-1.2333-3.6616-1.5869-5.5816-1.0539-5.176-1.1236-10.4954-.8109-15.0727.0671-.982.0749-1.9662.0636-2.9513-.0453-3.9772.668-8.0659,2.328-12.1163,5.3433-13.0295,19.2421-21.1899,33.7853-19.8034,19.5921,1.8682,33.0894,19.2395,29.9932,37.3998,2.2409-.7525,4.5908-.6188,6.4729.594,3.611,2.3268,4.1275,7.7124,1.154,12.0288-2.9743,4.3164-8.3124,5.9294-11.9233,3.6031-.5017-.3231-.9372-.7103-1.3187-1.1401-4.273,15.1773-19.479,24.895-35.2337,21.9935-7.7054-1.4188-14.1862-5.6107-18.6228-11.3539-.304-.3427-.6175-.7364-.9398-1.1875-1.4153-1.9793-2.5109-4.1479-3.3609-6.4124Z"/>
        <path class="cls-38" d="m3012.5196,971.8765c-.3074,1.6326.8205,3.2099,2.5189,3.5231,1.6992.3126,3.3261-.7574,3.6336-2.3899.3074-1.6331-.8213-3.2099-2.5197-3.5231-1.6992-.3127-3.3253.7573-3.6328,2.3899Z"/>
        <path class="cls-38" d="m2987.0712,968.4676c-.3075,1.6326.8204,3.2099,2.5196,3.523,1.6993.3127,3.3254-.7573,3.6328-2.3899s-.8204-3.2099-2.5197-3.523c-1.6983-.3127-3.3253.7572-3.6327,2.3899Z"/>
        <path class="cls-43" d="m3010.5783,966.5567c1.505-.53,3.0413-.8679,4.5794-1.0242,1.5399-.1425,3.0824-.0658,4.5639.2726.7429.1602,1.4649.4054,2.1652.7002.3553.1385.6916.3175,1.0356.4843.1724.0836.3318.1881.5007.2796.1673.0927.338.1828.4956.2913,1.3004.8204,2.4936,1.8281,3.645,2.926-.7804-1.3662-1.8473-2.5981-3.1363-3.604-.6437-.5035-1.3457-.949-2.099-1.3012-.7491-.3589-1.5425-.6437-2.3594-.8236-1.634-.3701-3.3419-.3801-4.9506-.0526-.8065.1555-1.5886.3993-2.3376.7006-.7438.3118-1.4659.6759-2.1025,1.151Z"/>
        <path class="cls-44" d="m2998.0853,964.8832c-.4895-.6258-1.0896-1.1671-1.7254-1.664-.6436-.4877-1.3334-.9285-2.0711-1.2907-1.4658-.7395-3.1163-1.1798-4.7894-1.2525-.8361-.0413-1.6757.0248-2.4936.1733-.8195.142-1.6139.3867-2.3672.7033-1.5076.6315-2.8611,1.539-3.9742,2.6512,1.3996-.756,2.8158-1.414,4.286-1.8634.1811-.0627.3693-.1054.5557-.1503.1864-.0439.3684-.1027.5565-.138.3754-.0706.7464-.155,1.1262-.1946.7533-.1002,1.5145-.1468,2.2731-.1059,1.5182.0636,3.0266.3955,4.4741.9381,1.4432.5556,2.8368,1.2859,4.1493,2.1935Z"/>
        <path class="cls-5" d="m3043.6895,971.6161s-21.2827-11.7305-31.4451-26.5964c0,0-.7081,7.3065,1.4702,10.1954-.864.4037-15.5788-7.6121-17.6438-19.5037-2.0642-11.8916,18.5845-4.6522,18.5845-4.6522,0,0,12.3283-.2967,12.8247.0296.4965.3261,8.4527,6.4563,8.7994,6.8923.3466.4359,9.5866,17.3855,9.5866,17.3855l2.1182,6.1273,2.1782,10.7162-6.4729-.594Z"/>
        <path class="cls-26" d="m3007.0065,988.8075s-3.4708-1.7402-7.1811-.0423c0,0-3.4019-2.7225-6.6018-.9864,0,0,.6428,5.4793,6.7691,5.9365,6.1254.4573,7.0138-4.9078,7.0138-4.9078Z"/>
        <path class="cls-29" d="m3010.4442,987.336c-.7595.4433-1.5416.8404-2.3534,1.171-.803.3453-1.6269.6415-2.47.8705-1.681.4582-3.4237.7055-5.1587.6145-1.7358-.0832-3.442-.52-5.0333-1.2276-1.5833-.7307-3.0378-1.7341-4.3826-2.8759.5801.6589,1.215,1.2776,1.9057,1.8416.6897.5648,1.4571,1.0395,2.2462,1.478.8029.4164,1.6522.7555,2.5327.9986.8831.2325,1.7898.3762,2.7026.432,1.8273.0801,3.6545-.2012,5.3503-.7887,1.694-.5866,3.2991-1.4079,4.6605-2.514Z"/>
        <path class="cls-39" d="m3116.4083,1211.7389c4.4993-3.7922,7.538-1.2133,12.0792-5.0638l3.0875,8.5537c9.497,8.3812,21.0598,17.73,18.0777,16.9349-4.1554-.6924-11.6073-5.6996-5.69.6697,11.1578,12.1952-.9851,2.1008-5.0428.3153,5.5637,7.5286,13.0303,15.5518-2.5928,3.0702-4.9436-2.6312,9.2921,11.7483,5.966,10.5707-15.9403-10.7319-14.4605-17.9059-16.6684-5.8545-3.0745,14.4631-5.3642-23.7344-9.2164-29.1962Z"/>
        <path class="cls-29" d="m3001.2399,968.9671c-1.0539,1.2377-1.9893,2.5563-2.8576,3.9163-.871,1.3595-1.6609,2.7687-2.3298,4.2541-.3179.7508-.6166,1.515-.7891,2.3586-.0357.2146-.0627.435-.0662.6693-.0026.1172.0148.247.0244.3689.0357.1362.0522.2665.1306.4106.0401.0723.0837.1433.1289.2108l.1141.1254c.0776.0805.1498.1672.2309.2417.1654.1441.3257.2944.499.4207.6776.5317,1.4136.9441,2.1634,1.3156.7561.3606,1.5251.6854,2.3255.9293-1.397-.8797-2.8063-1.7568-3.9637-2.8163-.1472-.1302-.2709-.2735-.4024-.4106l-.1777-.2126-.0862-.1045c-.0044-.02-.0105-.0374-.02-.053-.0784-.1682-.0366-.5671.0479-.9064.1733-.7141.4598-1.4453.7812-2.1573.6253-1.4379,1.3648-2.848,2.085-4.2694.7299-1.418,1.4677-2.8367,2.1618-4.2912Z"/>
        <path class="cls-13" d="m3027.8659,927.8313s19.5817-37.6749,52.2992-34.4528c32.7183,3.2221,39.9064,29.7436,38.4188,42.8802-1.4876,13.1366-10.4096,27.7605-1.9823,46.1024,8.4265,18.3415,6.4442,45.8593-19.3335,43.7499-25.7777-2.1094-20.0773-28.4611-20.3246-37.8409-.2482-9.3793-18.3424-8.4004-13.8805-25.4969,4.4619-17.0959,16.3592-34.694-.2482-37.1724-16.6065-2.4787-26.5206,5.2049-26.5206,5.2049l-8.4283-2.9744Z"/>
        <path class="cls-2" d="m3035.303,1020.4075s-21.1529,148.7172-8.5118,202.6268c0,0,26.7287,4.6474,48.4791-.9293v-95.9228l39.9674,92.3902s13.0129-1.8586,18.776-4.2747c0,0-25.9266-107.2687-51.207-158.7741-7.1662-14.6016-19.9197-25.6967-35.312-30.9529l-12.1917-4.1632Z"/>
        <path class="cls-10" d="m3053.2482,1078.779c2.8358,5.7101,5.562,11.4705,8.3385,17.2079l8.1426,17.299c5.3999,11.5454,10.6414,23.164,15.9272,34.7625,5.1526,11.6586,10.3487,23.299,15.3419,35.029,2.4726,5.8755,4.9549,11.7458,7.3657,17.6482,2.3725,5.9164,4.7319,11.8433,6.8736,17.8468-2.4961-5.8668-5.001-11.7204-7.6296-17.5263-2.5606-5.8327-5.1735-11.6438-7.7881-17.453l-15.6885-34.8602-15.5684-34.9174-7.7175-17.4897c-2.5267-5.8515-5.1039-11.6796-7.5974-17.5468Z"/>
        <path class="cls-39" d="m2909.9793,1552.7088l26.1165-9.5274,17.5254,16.2112-8.0163,3.5369-24.9755-1.572s-9.2235-3.1625-9.5823-3.5291c-.3597-.3668-1.0678-5.1196-1.0678-5.1196Z"/>
        <path class="cls-40" d="m2909.9793,1552.7088l-6.6506,2.5694c-3.0754,1.1557-2.7357,5.6107.479,6.2883l44.4196,9.3619c1.5669.3301,3.105-.6724,3.4351-2.2392l1.9588-9.2966c-31.5669,3.1833-41.1814-1.8351-43.6419-6.6838Z"/>
        <path class="cls-39" d="m3119.2354,1560.0397l5.8093-27.1869,23.0454-6.2317-1.2628,8.6703-14.6051,20.3221s-7.5808,6.1332-8.0816,6.2421c-.5017.1097-4.9052-1.8159-4.9052-1.8159Z"/>
        <path class="cls-40" d="m3119.2354,1560.0397l-1.357,6.999c-.655,3.2191,3.2992,5.2989,5.582,2.936l31.5356-32.6539c1.1122-1.1514,1.0799-2.9874-.0714-4.0997l-6.8345-6.6c-14.078,28.4341-23.4391,33.9107-28.8547,33.4186Z"/>
        <path class="cls-39" d="m2757.6769,1448.4431l-34.3488,19.6949,49.9275,79.4653c-.0043,0-.013-.0017-.013-.0017l-6.1167,10.0082-2.4552,4.0185.4128,4.306s2.7714-1.3186,3.0954-.83c.3239.4886,5.2919-1.2315,9.455-3.4838,4.1641-2.2531,3.9333-1.9658,11.009-5.2397,7.0756-3.2739,4.9801-4.2058,5.8536-5.264.5723-.6925-.1976-3.422-.7987-5.2319.0375-.054.0837-.1141.1203-.1672l-3.0658-6.4451c-.0201.0252-33.0754-90.8295-33.0754-90.8295Z"/>
        <path class="cls-11" d="m2745.8179,1503.9335l27.4377,43.6698c-.0043,0-.013-.0017-.013-.0017l-6.1167,10.0082-2.4552,4.0185.4128,4.306s2.7714-1.3186,3.0954-.83c.3239.4886,5.2919-1.2315,9.455-3.4838,4.1641-2.2531,3.9333-1.9658,11.009-5.2397,7.0756-3.2739,4.9801-4.2058,5.8536-5.264.5723-.6925-.1976-3.422-.7987-5.2319.0375-.054.0837-.1141.1203-.1672l-3.0658-6.4451c-.0104.0131-8.7879-24.0915-17.2963-47.4698-10.5796,6.5095-21.1913,10.2478-27.6381,12.1307Z"/>
        <path class="cls-53" d="m2778.1078,1558.9118c-6.8275,4.1292-10.9532,4.1806-13.4371,2.7165l-3.3498,5.48c-1.3421,2.1435.9459,4.7119,3.2295,3.625l31.5556-15.0092c1.1132-.5296,1.5861-1.8612,1.0574-2.9743l-4.0561-8.5258c-1.0364,3.0518-4.4096,8.2836-14.9995,14.6878Z"/>
        <path class="cls-39" d="m2707.751,1457.542l-39.4787,3.0309,10.9531,93.2072c-.0044-.0026-.0113-.0078-.0113-.0078l-9.8218,6.4102-3.9437,2.5745-1.4771,4.0657s3.0683,0,3.152.5809c.0827.5801,5.3075,1.1611,10.0351.9154,4.7276-.2465,4.3957-.0862,12.1917-.0034,7.7968.0826,6.304-1.6584,7.5477-2.2393.8134-.3798,1.2917-3.1747,1.5251-5.0672.0574-.0331.1253-.0671.1811-.1002v-7.1366c-.0287.0148,9.1468-96.2303,9.1468-96.2303Z"/>
        <path class="cls-39" d="m2831.2248,1243.0567c-.1934-.6732,6.2648-7.9413,5.406-8.0554-.8579-.1142-7.6417,5.8868-7.9379,5.4164-.2961-.4711,6.0392-7.3962,5.0594-8.1748-.9807-.7778-7.6644,7.0357-8.1844,6.1029-.5208-.9328,6.5314-8.7689,5.5202-9.3359-.8501-.4764-8.9526,8.1008-11.5106,10.8435-.3292.3536-.9232.2021-1.0399-.2614-1.7977-7.1383-2.362-7.5834-3.1128-7.2036-.5.2535-1.7097,8.7896-2.5267,14.9909-23.71,32.3978-68.1602,58.7234-68.1602,58.7234,0,0-11.6151,42.9468,11.1021,31.0827,19.9153-10.4001,56.5651-64.376,65.3026-77.5317h0l3.6136-4.4384.0061.0035c.0017-.0052.0044-.0131.0061-.0192,1.2158-1.0564,2.335-1.9013,2.335-1.9013,11.5132-11.9173,11.1866-12.1768,10.8191-12.6576-.3668-.4799-6.5044,3.0902-6.6977,2.416Z"/>
        <path class="cls-39" d="m2612.5494,1243.7492c.1933-.6733-6.2649-7.9414-5.4061-8.0556.8579-.1149,7.6427,5.8868,7.9379,5.4157.2962-.4712-6.0393-7.3953-5.0585-8.1739.9798-.7778,7.6635,7.0355,8.1843,6.1027.52-.9328-6.5321-8.7688-5.5209-9.3357.8509-.4764,8.9534,8.1008,11.5105,10.8425.3301.3544.9241.2029,1.0399-.2604,1.7977-7.1384,2.3621-7.5834,3.1129-7.2037.4999.2534,1.7097,8.7897,2.5266,14.9909,23.7109,32.3978,68.1611,58.7234,68.1611,58.7234,0,0,11.6141,42.9469-11.1029,31.0827-19.9154-10.401-56.5653-64.3759-65.3027-77.5325h0l-3.6136-4.4376-.006.0035c-.0018-.0062-.0044-.0131-.0062-.0192-1.215-1.0565-2.335-1.9012-2.335-1.9012-11.5132-11.9173-11.1866-12.177-10.819-12.6577.3675-.4808,6.5043,3.0893,6.6977,2.4161Z"/>
        <path class="cls-22" d="m2739.2404,1218.6368h0c1.0251-1.4501,3.0362-1.7845,4.4758-.7455l6.284,4.5359c1.559,1.1262,1.8255,3.3428.5775,4.8051h0c-1.1331,1.3282-3.1067,1.5399-4.4968.4825l-6.1672-4.6927c-1.3692-1.0416-1.6671-2.9804-.6733-4.3853Z"/>
        <path class="cls-53" d="m2744.9208,1215.052s3.4464-23.5106,29.5498-24.3781c26.1035-.8674,25.5095,28.6232,44.3622,29.3408,0,0-23.3895,18.5731-43.5313,7.9501-15.2791-8.0581-22.0726-7.3413-24.4625-6.5252-1.4363.4903-3.0362.4868-4.3617-.2526-1.499-.8378-2.7096-2.5667-1.5565-6.135Z"/>
        <rect class="cls-39" x="2705.3733" y="1289.6617" width="22.5273" height="22.5272"/>
        <path class="cls-29" d="m2727.9006,1303.1675v-13.5058h-22.5273v11.4896c4.8495,2.6059,12.0305,4.1066,22.5273,2.0162Z"/>
        <path class="cls-11" d="m2673.2063,1502.5583l6.0191,51.2218c-.0044-.0026-.0113-.0078-.0113-.0078l-9.8218,6.4102-3.9437,2.5745-1.4771,4.0657s3.0683,0,3.152.5809c.0827.5801,5.3075,1.1611,10.0351.9154,4.7276-.2465,4.3957-.0862,12.1917-.0034,7.7968.0826,6.304-1.6584,7.5477-2.2393.8134-.3798,1.2917-3.1747,1.5251-5.0672.0574-.0331.1253-.0671.1811-.1002v-7.1366c-.0148.0078,2.4126-25.5304,4.7703-50.2969-12.3493,1.3343-23.5377.1515-30.1682-.9171Z"/>
        <path class="cls-53" d="m2678.7499,1566.0763c-7.9396.7961-11.6874-.9302-13.3013-3.3193l-5.379,3.51c-2.133,1.3596-1.1697,4.6614,1.3587,4.6614h34.9437c1.2332,0,2.2322-.999,2.2322-2.2314v-9.4411c-2.2471,2.3106-7.5408,5.5862-19.8543,6.8204Z"/>
        <path class="cls-53" d="m2752.4842,1263.8499s10.1283-25.2559-4.3443-37.1628c-14.4736-11.906-31.3493-13.0574-43.5296-8.7174-12.1812,4.34-21.7434,23.8808-18.2012,36.2527l39.3184-6.0932,26.7567,15.7207Z"/>
        <path class="cls-29" d="m2690.7072,1259.5004c.8754,3.6981-.9005,7.2176-3.9655,7.8612-3.0657.6437-6.2604-1.8324-7.1356-5.5305-.8754-3.6981.9005-7.2176,3.9662-7.8613,3.0649-.6445,6.2596,1.8325,7.1349,5.5306Z"/>
        <path class="cls-39" d="m2688.293,1279.8703c-.6402-1.6391-1.1271-3.3462-1.4502-5.1003-.9624-4.7301-1.026-9.5909-.7403-13.7733.0618-.8979.0688-1.7968.0584-2.6974-.0419-3.6345.6096-7.3708,2.1277-11.0716,4.8817-11.9068,17.5829-19.364,30.8728-18.0967,17.9033,1.7071,30.2379,17.5811,27.4082,34.1763,2.0476-.688,4.1954-.5661,5.9146.5426,3.3001,2.126,3.7721,7.0478,1.0547,10.9916-2.7182,3.9454-7.5965,5.419-10.8957,3.293-.4589-.2952-.8561-.6489-1.2045-1.0416-3.9054,13.8691-17.8005,22.7493-32.1975,20.0973-7.0409-1.296-12.9633-5.1265-17.0176-10.3749-.2779-.3126-.5635-.6732-.8588-1.0852-1.2934-1.809-2.2941-3.7904-3.0718-5.8598Z"/>
        <path class="cls-38" d="m2718.0858,1263.5451c-.2814,1.492.7499,2.9334,2.3028,3.2191,1.552.2856,3.0387-.6916,3.3192-2.1835.2813-1.492-.7499-2.9334-2.302-3.2191-1.5529-.2865-3.0387.6916-3.32,2.1835Z"/>
        <path class="cls-38" d="m2694.8312,1260.4297c-.2813,1.4919.7499,2.9333,2.302,3.2199,1.5529.2857,3.0396-.6923,3.3201-2.1843.2804-1.4919-.75-2.9334-2.3029-3.2191-1.552-.2857-3.0378.6915-3.3192,2.1835Z"/>
        <path class="cls-53" d="m2716.3116,1258.6835c1.3762-.4843,2.7801-.7926,4.1859-.9355,1.4074-.1306,2.8157-.06,4.1701.2491.6794.1463,1.3386.3702,1.9788.6402.3249.1262.6314.29.9458.4424.1568.0758.3032.1716.4573.2552.1533.0845.3092.1672.4537.2665,1.1881.749,2.2785,1.6705,3.3306,2.673-.7142-1.2481-1.6887-2.3734-2.8663-3.2931-.5879-.4599-1.2298-.8675-1.9179-1.1888-.6854-.3275-1.4091-.5879-2.1564-.7526-1.4928-.3388-3.0536-.3474-4.5238-.0479-.7377.142-1.451.365-2.1365.6402-.6793.2848-1.3394.6175-1.9213,1.0513Z"/>
        <path class="cls-53" d="m2704.896,1257.154c-.4468-.5713-.9964-1.066-1.5773-1.5198-.5879-.4459-1.2176-.8491-1.8917-1.1801-1.3396-.6759-2.8481-1.0774-4.3774-1.1445-.7639-.0374-1.5312.0227-2.2784.1585-.7491.1298-1.4746.3537-2.1626.6428-1.3788.5766-2.6156,1.4066-3.6328,2.423,1.2794-.6907,2.5737-1.2925,3.9175-1.7027.1655-.0575.3371-.0967.507-.1377.1707-.04.337-.094.5086-.1262.3431-.0644.6828-.1411,1.0295-.1777.688-.0914,1.3839-.1341,2.0772-.0967,1.3874.0575,2.7653.3615,4.0891.8571,1.3186.5077,2.592,1.1748,3.7913,2.004Z"/>
        <g>
          <path class="cls-39" d="m2039.536,1570.5234l-23.2785-15.1973-20.7436,11.8171,7.006,5.2623,24.6825,4.1284s9.7006-.9904,10.1331-1.2664c.4329-.2752,2.2005-4.7441,2.2005-4.7441Z"/>
          <path class="cls-40" d="m2039.536,1570.5234l5.895,4.009c2.7331,1.8238,1.3932,6.0854-1.8913,6.0166l-45.3859-.9476c-1.6008-.034-2.8715-1.3587-2.8384-2.9595l.1985-9.4987c30.0253,10.2547,40.5265,7.5451,44.0221,3.3802Z"/>
          <polygon class="cls-39" points="1995.5139 1537.1248 2015.6609 1550.42 2016.2575 1555.3261 2012.6879 1564.4755 1995.5139 1567.1432 1995.5139 1537.1248"/>
        </g>
        <g>
          <path class="cls-39" d="m2113.8578,1570.5234l-23.2785-15.1973-20.7436,11.8171,7.006,5.2623,24.6825,4.1284s9.7002-.9904,10.1331-1.2664c.4328-.2752,2.2005-4.7441,2.2005-4.7441Z"/>
          <path class="cls-40" d="m2113.8578,1570.5234l5.895,4.009c2.7327,1.8238,1.3927,6.0854-1.8917,6.0166l-45.386-.9476c-1.6008-.034-2.8715-1.3587-2.8379-2.9595l.1985-9.4987c30.0249,10.2547,40.5264,7.5451,44.0221,3.3802Z"/>
          <polygon class="cls-39" points="2069.8357 1537.1248 2089.9823 1550.42 2090.5793 1555.3261 2087.0097 1564.4755 2069.8357 1567.1432 2069.8357 1537.1248"/>
        </g>
        <path class="cls-53" d="m2746.5696,1263.3073s-19.4486-10.7197-28.7347-24.304c0,0-.6479,6.6768,1.3431,9.3167-.79.3683-14.2358-6.9564-16.1224-17.8233-1.8864-10.867,16.9819-4.2512,16.9819-4.2512,0,0,11.2659-.2708,11.7197.0271.4529.2986,7.7236,5.8998,8.0406,6.2987.3171.398,8.7602,15.8871,8.7602,15.8871l1.9361,5.5985,1.9901,9.793-5.9146-.5426Z"/>
        <path class="cls-10" d="m2699.4072,1277.841c.628,2.8245,3.8566,5.0446,7.8134,5.1656,3.9576.1211,7.316-1.8978,8.1147-4.6779l-15.9281-.4877Z"/>
        <path class="cls-29" d="m2706.2835,1260.3305c.155,1.6417.04,3.2869-.2674,4.9165-.1559.8178-.3754,1.6243-.6907,2.4282-.3309.7952-.7334,1.6-1.4615,2.2932l-.3048.2404-.2709.2047c-.1158.0984-.2717.1672-.3623.2821-.2239.1978-.3875.4321-.493.6899-.2447.5112-.1359,1.1584.1263,1.7776.5853,1.2628,1.9239,2.2087,3.3933,2.9055-1.6148-.0775-3.3968-.722-4.4541-2.3019-.5173-.7656-.7969-1.8482-.4634-2.869.0819-.2525.1847-.4973.3354-.7107.1297-.2334.3065-.4163.4825-.6027.1707-.1985.3858-.3144.5817-.4712.1211-.0835.1446-.1158.2074-.1654l.1698-.135c.4529-.4155.8283-1.0652,1.1609-1.7315.3494-.668.5871-1.4153.8693-2.1487.5087-1.4919.9537-3.0335,1.4415-4.602Z"/>
        <path class="cls-39" d="m2696.1089,1304.7161c-.8587.5165-2.3332,1.5861-4.1858,3.6432,11.663,5.6682,36.3564,14.2053,54.2867-3.6432h-50.1009Z"/>
        <path class="cls-4" d="m2746.2098,1304.7161s-6.6297-.8892-9.1886,0c-11.9347,4.1493-28.0526,3.5648-40.9123,0-4.1858,2.2506-10.9548,9.6781-17.4087,29.8146-1.9283,8.4108-4.1901,18.0523-6.6689,28.2077-.0009,0-.0009.0008-.0009.0017v-.0009c-9.2008,37.6898-21.3732,82.3377-30.4181,96.4472,0,0,21.8688,20.6922,47.2459,7.6087,0,0,28.9663,16.6944,56.2002-.1847,0,0,21.9934,13.1454,44.8508-7.424-16.5882-25.8761-43.6994-154.4703-43.6994-154.4703Z"/>
        <path class="cls-27" d="m2745.0584,1447.6471c-27.2339,16.8791-56.2002.1846-56.2002.1846-16.9018,8.7131-32.2446,2.4448-40.6092-2.7139-2.3272,5.987-4.5647,10.8365-6.6367,14.0686,0,0,21.8688,20.6922,47.2459,7.6087,0,0,28.9663,16.6944,56.2002-.1847,0,0,21.9934,13.1454,44.8508-7.424-2.0555-3.2051-4.272-7.991-6.5783-13.9092-20.3212,13.0957-38.2725,2.3699-38.2725,2.3699Z"/>
        <path class="cls-40" d="m2013.5105,908.9464l-1.0904,2.6194c-11.4862,27.5845-25.4668,54.0912-42.1878,78.8551-13.259,19.6366-24.7387,44.5486-3.7874,51.3656,0,0-3.959,34.3096,21.1137,37.8282,0,0-7.0378,27.7117,23.3128,27.7117s70.4248-.9307,70.4248-.9307c0,0,35.0346,7.918,30.196-22.4332,0,0,28.0484-4.8529,7.8613-60.6656-10.8704-30.0536-17.5319-61.4408-20.1931-93.289-1.0983-13.1414-3.2208-25.4628-7.1558-32.2123-11.1939-19.2003-60.0194-33.2759-78.4941,11.1508Z"/>
        <path class="cls-55" d="m2127.2748,1170.6576c-10.4514-14.9038-27.3197-39.1164-33.1381-48.3852-2.6608-4.238-4.3487-16.3835-5.6129-31.5835-12.0827,5.2776-25.3461,9.3785-36.3193,12.2984,1.3757,5.2663,2.72,9.8605,3.8957,13.5012,5.8969,18.2561,31.4164,43.9771,49.4425,60.4722,7.3504-2.1983,21.7317-6.3031,21.7321-6.3031Z"/>
        <path class="cls-56" d="m2088.4854,1090.6981c-2.8519-34.2922-3.5416-84.151-8.3459-93.9736-3.648-7.4576-9.729-8.5441-14.8977-7.7668-6.5147.9803-12.1255,5.0873-15.4455,10.7768-13.8996,23.8198-5.2785,73.9799,2.3699,103.2619,10.9732-2.9203,24.2365-7.0207,36.3192-12.2983Z"/>
        <path class="cls-40" d="m2084.9159,1185.1834l6.7812,365.2366h-23.0746s-37.9568-95.598-37.9568-139.5847-4.9161-175.0676-4.9161-175.0676l21.473-65.1005,27.2379-10.556,10.4554,25.0722Z"/>
        <path class="cls-9" d="m2071.1334,1179.172s-26.3922,205.2715-36.3624,252.777c-9.9703,47.5054-17.079,118.471-17.079,118.471h-23.9753s-19.3544-89.1468,0-167.7367c0,0,7.0378-15.2487-5.2785-65.0996-12.3161-49.8519-23.4596-92.0794,9.3837-148.6759l31.6707-16.7145,41.6408,26.9787Z"/>
        <path class="cls-2" d="m2006.0329,1048.6774l-8.211,120.2304s61.875,18.7683,87.094,16.2756c0,0-2.0528-94.572,2.0529-107.4748,4.0146-12.6171,25.6953-31.4036-13.1084-84.0547-1.6905-2.2936-4.3487-3.6841-7.1958-3.7873l-31.3071-1.1349-16.2215.2278-13.1031,59.7179Z"/>
        <path class="cls-19" d="m2052.2746,1087.6859c-6.8666-33.7182-13.4179-83.1494-19.3448-92.3384-4.4998-6.9768-10.6666-7.3404-15.7081-5.96-6.3537,1.7397-11.4427,6.4786-14.0704,12.5192-11.0002,25.2895,3.4629,74.0871,14.5036,102.2655,10.5534-4.191,23.242-9.8235,34.6197-16.4863Z"/>
        <path class="cls-39" d="m2044.0379,964.9332l-1.6221,23.812s14.2018,10.5207,23.2807,1.0861h0l.3858-22.0243-22.0444-2.8738Z"/>
        <path class="cls-29" d="m2065.8463,981.2885l.236-13.4815-22.0444-2.8738-.4724,6.9385c4.319,3.4965,11.8498,8.1778,22.2808,9.4168Z"/>
        <path class="cls-40" d="m2021.3552,939.6625s-10.7084-26.7027,4.5938-39.2911c15.3023-12.588,33.1439-13.806,46.0227-9.2169,12.8793,4.5886,22.9894,25.2486,19.2434,38.3291l-41.57-6.4425-28.2899,16.6214Z"/>
        <path class="cls-39" d="m2089.2232,956.6008c.6772-1.7332,1.1919-3.5379,1.5333-5.3929,1.0177-5.0007,1.0852-10.1402.783-14.5625-.0649-.9488-.0723-1.8995-.0619-2.851.044-3.8431-.6444-7.7933-2.2488-11.7065-5.1621-12.5885-18.5905-20.4728-32.6412-19.1328-18.9294,1.8042-31.9703,18.5879-28.9781,36.1334-2.1656-.7268-4.4362-.5979-6.2543.574-3.4891,2.2479-3.9877,7.4509-1.1144,11.6215s8.0311,5.7292,11.5197,3.4812c.4847-.3122.9054-.6858,1.2734-1.1017,4.1288,14.6639,18.82,24.0528,34.0417,21.2492,7.4441-1.3709,13.7059-5.4205,17.9922-10.9693.294-.3309.5962-.7116.908-1.1475,1.3679-1.9122,2.4256-4.0072,3.2474-6.1951Z"/>
        <path class="cls-11" d="m2279.924,1102.9938s-14.3691,14.8899,2.0524,28.9654c0,0-8.8807,10.5804,4.1057,24.6325,0,0-4.9854,14.2026,5.8646,23.8163,0,0-5.4596,10.7867,4.748,22.8095,0,0-2.8415,10.9966,8.595,19.0608,0,0-1.9061,12.9032,10.1166,20.234,12.0232,7.331,10.9283-23.6264,10.9283-23.6264l-18.186-100.1129-28.2246-15.7792Z"/>
        <path class="cls-38" d="m2057.7241,939.3402c.297,1.5778-.7925,3.1015-2.4343,3.4037-1.6413.3022-3.2125-.7316-3.5095-2.3089-.2974-1.5773.7926-3.1015,2.4339-3.4037s3.2129.7316,3.5099,2.3089Z"/>
        <path class="cls-38" d="m2082.3108,936.0467c.297,1.5777-.7926,3.1014-2.4343,3.4037-1.6413.3022-3.2125-.7312-3.5095-2.3089-.297-1.5778.7925-3.1015,2.4339-3.4037,1.6418-.3023,3.2129.7316,3.5099,2.3089Z"/>
        <path class="cls-40" d="m2059.5998,934.2002c-1.4545-.5117-2.9387-.8383-4.425-.9889-1.4879-.1376-2.9777-.064-4.4091.263-.7177.1546-1.4153.3919-2.0921.6768-.3432.1336-.668.3065-1.0003.4676-.1663.081-.321.1816-.4838.27-.162.0897-.3262.1769-.479.2818-1.2564.7925-2.4091,1.7658-3.5217,2.8267.7551-1.3195,1.7854-2.5101,3.0309-3.4821.6214-.4864,1.2995-.9167,2.0276-1.2572.7242-.3463,1.4898-.6215,2.2797-.7957,1.5782-.3575,3.2286-.3671,4.7829-.0504.7795.1497,1.5346.3858,2.2583.6767.7191.3013,1.4162.6532,2.0316,1.1117Z"/>
        <path class="cls-40" d="m2071.6695,932.5837c.4729-.6049,1.0534-1.1278,1.6674-1.6078.6219-.4711,1.2882-.8971,2.0007-1.2471,1.4161-.7147,3.0112-1.1397,4.6273-1.2098.8083-.0401,1.6196.024,2.4091.1676.7921.1368,1.5594.3733,2.2872.6794,1.4574.6096,2.7648,1.4867,3.8404,2.561-1.3531-.7302-2.7213-1.366-4.1418-1.7998-.1751-.061-.3562-.1019-.5365-.1454-.1798-.0427-.3558-.0994-.5374-.1333-.3632-.0684-.7216-.1498-1.0882-.1881-.7278-.0967-1.4633-.142-2.1966-.1023-1.4668.0613-2.9239.3823-4.3226.9066-1.3944.5365-2.7405,1.2424-4.009,2.119Z"/>
        <path class="cls-40" d="m2027.6095,939.0885s20.562-11.3333,30.3803-25.6963c0,0,.6846,7.0595-1.4205,9.8505.8352.3898,15.0519-7.3543,17.0463-18.8435,1.995-11.4893-17.9542-4.4951-17.9542-4.4951,0,0-11.9113-.2861-12.3912.0288-.4795.3153-8.1669,6.2378-8.5018,6.6589-.3349.4215-9.2622,16.7973-9.2622,16.7973l-2.0463,5.9199-2.1047,10.3535,6.2543-.574Z"/>
        <polygon class="cls-2" points="2279.924 1102.9938 2331.1728 1083.5593 2409.0981 1111.5789 2471.8532 1171.2542 2475.2256 1242.5123 2471.7061 1253.6563 2321.5644 1250.1368 2279.924 1102.9938"/>
        <path class="cls-2" d="m2118.1647,1250.0487h357.06v20.3178c0,46.857-38.042,84.899-84.899,84.899h-187.2623c-46.8569,0-84.8987-38.0418-84.8987-84.8987v-20.3181h0Z"/>
        <path class="cls-8" d="m2439.3117,1250.0487c-10.0012,41.2887-47.1967,71.955-91.5607,71.955h-168.635c-17.4836,0-33.8515-4.7676-47.8844-13.0669,16.3984,27.7286,46.5975,46.3287,81.1458,46.3287h168.635c52.0319,0,94.2132-42.1804,94.2132-94.2131v-11.0037h-35.9139Z"/>
        <polygon class="cls-8" points="2326.3608 1243.6359 2471.8532 1171.2542 2475.2256 1242.5123 2401.6937 1250.0635 2326.3608 1243.6359"/>
        <path class="cls-17" d="m2117.1517,1242.5123h358.2406c3.792,0,6.8706,3.0786,6.8706,6.8706v1.5072c0,3.7922-3.0788,6.871-6.871,6.871h-358.2402c-3.7917,0-6.8701-3.0784-6.8701-6.8701v-1.5086c0-3.7917,3.0784-6.8701,6.8701-6.8701Z"/>
        <path class="cls-26" d="m2063.0509,955.698s3.3528-1.6809,6.9381-.0405c0,0,3.2866-2.6302,6.3784-.9532,0,0-.6218,5.2941-6.5404,5.7357-5.9186.4415-6.7761-4.742-6.7761-4.742Z"/>
        <path class="cls-29" d="m2059.7291,954.2767c.7338.4281,1.4893.8121,2.2736,1.1309.7761.3336,1.5726.6202,2.3865.8409,1.6243.4429,3.3079.6824,4.9845.594,1.677-.0801,3.3248-.5022,4.863-1.1862,1.5293-.7056,2.9346-1.6754,4.2341-2.7784-.56.6367-1.1741,1.2346-1.8412,1.7793-.6668.5461-1.4074,1.0043-2.1704,1.428-.7756.4024-1.5961.7299-2.447.965-.8531.2243-1.7297.3632-2.6111.4172-1.765.0775-3.5309-.1943-5.1692-.7621-1.6361-.5665-3.1872-1.3604-4.5028-2.4286Z"/>
        <path class="cls-29" d="m2068.6225,936.5292c1.0177,1.1958,1.9209,2.47,2.76,3.7838.8418,1.3134,1.6048,2.6748,2.2514,4.1101.307.7255.5958,1.4637.7621,2.2788.0345.2073.0611.4203.0645.6467.0021.1128-.0144.2387-.024.3562-.0344.132-.05.2579-.1263.3972-.0383.0697-.0801.138-.1241.2034l-.1106.1215c-.0745.0775-.145.1611-.2234.2334-.1594.1389-.3144.2839-.4816.4063-.6541.5139-1.3657.9123-2.0904,1.2707-.7302.3488-1.4736.6624-2.2466.8984,1.3496-.85,2.7113-1.6975,3.8292-2.7213.1424-.1254.2622-.2639.3893-.3967l.1716-.2052.0832-.1009c.0039-.0196.01-.0362.0191-.0515.0759-.1624.0358-.5478-.0461-.8757-.1672-.6898-.4442-1.3961-.7547-2.0842-.6045-1.3891-1.319-2.7518-2.0145-4.1248-.7051-1.37-1.418-2.7409-2.0881-4.1462Z"/>
        <path class="cls-11" d="m2318.9868,1358.9131l-123.3675,138.5945c-3.2582,3.685-2.9116,9.3149.7742,12.5732h0c3.6856,3.2582,9.315,2.9115,12.5732-.7743l131.4492-146.6291c-6.5292-2.6407-21.0332.7342-21.4291-3.7643Z"/>
        <rect class="cls-11" x="2180.1681" y="1347.5637" width="246.6915" height="15.4038" rx="6.9407" ry="6.9407"/>
        <path class="cls-11" d="m2475.5643,1503.6218l-349.2401-307.6324c-3.6854-3.2583-4.0321-8.8873-.7739-12.5732h0c3.2584-3.6859,8.8878-4.0325,12.5732-.7742l349.2397,307.6324c3.6859,3.2582,4.0325,8.8872.7743,12.573h0c-3.2582,3.6859-8.8873,4.0326-12.5732.7744Z"/>
        <polygon class="cls-8" points="2331.1728 1083.5593 2323.1042 1240.5754 2328.3091 1240.5754 2335.6404 1226.9702 2409.0981 1111.5789 2331.1728 1083.5593"/>
        <path class="cls-40" d="m2378.6335,1389.0395l-86.5936-76.2766c-2.7889-2.457-7.0274-2.2428-9.554.4825l-7.3618,7.9397c-2.6193,2.8253-2.3955,7.2541.4956,9.8008l35.6165,31.3736-30.8036,34.6057c-2.4987,2.8072-2.2697,7.1035.5134,9.6294l8.5428,7.7532c2.8141,2.5536,7.1697,2.329,9.7068-.5008l31.1041-34.6954,31.7346,27.9533c2.7444,2.4178,6.904,2.2541,9.4498-.3727l7.5408-7.782c2.7227-2.8098,2.5445-7.3239-.3914-9.9107Z"/>
        <path class="cls-1" d="m2475.081,1169.3093h0c-.8256-1.2532-2.4518-1.694-3.793-1.0198-14.9221,7.4971-99.5439,50.3656-140.4131,69.788l80.7495-125.1888c.8714-1.3822.4576-3.2085-.9246-4.0808l-.0165-.0105c-1.3822-.8718-3.2094-.4577-4.0813.9245l-81.4135,129.1011,8.8481-153.8841c.0935-1.6313-1.1532-3.0301-2.7845-3.1242l-.0205-.0008c-1.6313-.094-3.03,1.1522-3.1237,2.784l-9.51,165.4091c-.1755,3.051,3.8261,4.333,5.4566,1.748l5.3337-8.4579c.2962-.4703.7125-.8431,1.2142-1.0808,18.2452-8.6652,124.086-58.9569,143.3446-68.6402,1.5817-.7951,2.1077-2.7887,1.134-4.2668Z"/>
        <path class="cls-16" d="m2338.0595,1248.5978c0,8.2592-6.6955,14.9551-14.9553,14.9551s-14.9556-6.6959-14.9556-14.9551,6.6959-14.9561,14.9556-14.9561,14.9553,6.6959,14.9553,14.9561Z"/>
        <path class="cls-11" d="m2333.6795,1248.5978c0,5.8406-4.7346,10.5751-10.5753,10.5751s-10.5751-4.7345-10.5751-10.5751,4.7345-10.5752,10.5751-10.5752,10.5753,4.7346,10.5753,10.5752Z"/>
        <g>
          <polygon class="cls-2" points="2249.4888 1519.7606 2202.8922 1505.0083 2246.2728 1482.4906 2245.158 1480.3437 2201.7774 1502.8606 2216.5301 1456.2635 2214.2238 1455.5336 2199.4711 1502.1307 2176.9538 1458.7501 2174.8064 1459.8649 2197.3237 1503.2455 2150.7271 1488.4923 2149.9969 1490.7986 2196.5938 1505.5517 2153.2133 1528.0686 2154.3276 1530.2164 2197.7083 1507.6987 2182.9556 1554.2957 2185.2623 1555.0256 2200.0146 1508.4294 2222.5319 1551.8091 2224.6792 1550.6952 2202.1619 1507.3146 2248.7585 1522.0668 2249.4888 1519.7606"/>
          <path class="cls-2" d="m2181.3029,1563.5235c-32.3338-10.2363-50.3112-44.8708-40.0745-77.2042,10.2369-32.3334,44.8713-50.3109,77.2048-40.0744,32.3337,10.2372,50.3112,44.8716,40.0743,77.205-10.2367,32.3334-44.8712,50.3108-77.2046,40.0736Zm33.1355-104.6612c-25.3766-8.0344-52.5582,6.075-60.5924,31.4521-8.0346,25.3762,6.0745,52.5578,31.4516,60.5924,25.3766,8.0337,52.5583-6.0749,60.5925-31.452,8.0341-25.3761-6.0746-52.5579-31.4517-60.5925Z"/>
          <path class="cls-36" d="m2215.235,1510.768c-2.7383,8.6494-11.9692,13.4406-20.6182,10.7023-8.6486-2.7383-13.4402-11.9688-10.7019-20.6182,2.7384-8.6486,11.9691-13.4397,20.6177-10.7014,8.6491,2.7373,13.4406,11.9686,10.7024,20.6173Z"/>
          <path class="cls-38" d="m2179.0428,1570.6619c-36.2692-11.4827-56.435-50.3335-44.9518-86.6027,11.4827-36.2693,50.3326-56.4345,86.6018-44.9518,36.2692,11.4827,56.4354,50.3325,44.9523,86.6018s-50.3331,56.4354-86.6023,44.9527Zm37.1694-117.4015c-28.466-9.0118-58.956,6.8143-67.9682,35.2798-9.0122,28.4655,6.8144,58.956,35.2799,67.9687,28.4655,9.0118,58.9559-6.8144,67.9681-35.2799,9.0122-28.4664-6.8143-58.9559-35.2798-67.9686Z"/>
          <path class="cls-11" d="m2211.3169,1509.5276c-2.0532,6.4852-8.9747,10.0779-15.4594,8.0242-6.4851-2.0528-10.0775-8.9743-8.0246-15.4586,2.0534-6.4852,8.9748-10.0778,15.4595-8.025,6.4847,2.0537,10.0774,8.9744,8.0245,15.4594Z"/>
        </g>
        <g>
          <polygon class="cls-2" points="2539.9011 1507.8223 2484.1563 1492.1747 2534.6387 1463.8216 2533.2357 1461.3228 2482.7524 1489.676 2498.4009 1433.9304 2495.6417 1433.1561 2479.9932 1488.9017 2451.64 1438.4184 2449.1422 1439.8224 2477.4953 1490.3048 2421.7497 1474.6563 2420.9745 1477.4155 2476.7201 1493.064 2426.2377 1521.4171 2427.6409 1523.9159 2478.1233 1495.5627 2462.4757 1551.3083 2465.2348 1552.0826 2480.8833 1496.3379 2509.2364 1546.8203 2511.7352 1545.4163 2483.3821 1494.934 2539.1268 1510.5816 2539.9011 1507.8223"/>
          <path class="cls-2" d="m2460.8792,1562.299c-38.6827-10.8582-61.3189-51.1626-50.4607-89.8444,10.8583-38.6819,51.1626-61.3189,89.8445-50.4607,38.6818,10.8583,61.3188,51.1626,50.4606,89.8453-10.8582,38.6809-51.1635,61.318-89.8444,50.4598Zm35.1465-125.2105c-30.3589-8.5215-61.9903,9.2443-70.5126,39.6033-8.5223,30.3589,9.2435,61.9903,39.6024,70.5126,30.3598,8.5223,61.9912-9.2435,70.5135-39.6024,8.5215-30.3599-9.2435-61.9913-39.6033-70.5135Z"/>
          <path class="cls-12" d="m2498.9948,1498.5127c-2.9046,10.3469-13.6469,16.3801-23.9939,13.4763-10.347-2.9046-16.3801-13.6471-13.4755-23.994,2.9047-10.347,13.6471-16.38,23.9932-13.4754,10.3469,2.9046,16.3809,13.6461,13.4762,23.9931Z"/>
          <path class="cls-38" d="m2458.4814,1570.8378c-43.3901-12.1795-68.782-57.39-56.6017-100.7801,12.1794-43.3902,57.3899-68.783,100.7801-56.6026,43.3903,12.1803,68.7821,57.3908,56.6026,100.7809-12.1803,43.3903-57.3908,68.7821-100.781,56.6018Zm39.4256-140.4505c-34.0544-9.5596-69.5363,10.3688-79.0959,44.4232-9.5592,34.0544,10.3687,69.5363,44.4231,79.0959,34.0544,9.5588,69.5372-10.3688,79.096-44.424,9.5596-34.0544-10.3687-69.5363-44.4232-79.0951Z"/>
          <path class="cls-11" d="m2494.3074,1497.1975c-2.1783,7.7577-10.2329,12.2815-17.9905,10.104-7.7577-2.1782-12.2814-10.2329-10.104-17.9904,2.1774-7.7585,10.232-12.2823,17.9905-10.104,7.7576,2.1774,12.2814,10.2319,10.104,17.9904Z"/>
        </g>
        <path class="cls-39" d="m2110.2816,1173.7669s-38.4527-42.7056-48.6799-55.3903c-3.1407-3.8957-6.2461-15.7586-9.2901-30.7038-11.3777,6.6624-24.0663,12.2953-34.6196,16.4863,1.9853,5.0673,3.8609,9.4718,5.457,12.9486,12.6811,27.625,76.4965,68.0757,76.4965,68.0757l13.3805,7.7201c2.4409,1.4084,5.4579,1.3605,7.8529-.1245l18.5066-11.4713c3.0798-3.969-4.4723-8.6644-8.3568-9.9072-8.902-2.8471-20.7471,2.3664-20.7471,2.3664Z"/>
        <path class="cls-40" d="m2122.414,1196.7689l91.3643,80.479c3.1346,2.7618,7.9127,2.4621,10.6788-.668l5.0829-5.7536c2.7714-3.1372,2.4717-7.9275-.6698-10.6945l-91.342-80.4598c-4.721-4.1736-11.9317-3.7295-16.1058.992h0c-4.1731,4.7206-3.7294,11.9312.9916,16.1049Z"/>
        <polygon class="cls-39" points="1822.6037 1551.4599 1822.6037 1533.8518 1842.7464 1528.2733 1847.2292 1530.2425 1847.9939 1551.4599 1841.6507 1569.946 1822.6037 1551.4599"/>
        <polygon class="cls-14" points="1866.4086 1190.3734 1852.1169 1538.717 1818.8334 1538.717 1789.5056 1275.4232 1827.9571 1157.4618 1866.4086 1190.3734"/>
        <path class="cls-7" d="m1834.3468,950.7932s56.2547,67.5933,70.7657,107.8489l-62.1672-15.1337-8.5985-92.7152Z"/>
        <polygon class="cls-39" points="1693.8894 1551.4599 1693.8894 1533.8518 1714.032 1528.2733 1718.5149 1530.2425 1719.2795 1551.4599 1712.9364 1569.946 1693.8894 1551.4599"/>
        <path class="cls-32" d="m1852.1169,1191.112l-130.39,347.605-31.934-2.6068s29.4335-315.8359,53.2215-346.1409c23.7876-30.3049,86.2461-26.6417,86.2461-26.6417l22.8564,27.7844Z"/>
        <path class="cls-34" d="m1770.7252,943.1585s-53.4424-1.6967-65.3187,22.9039c-11.8759,24.6002-38.1731,157.7821,15.6933,159.9029,0,0,12.3005.8483,18.6629-8.059l-2.1208,83.557s81.4358,20.7828,128.0921,0c0,0,.4241-226.9181-31.3872-250.6701,0,0-15.2691-6.3623-63.6216-7.6347Z"/>
        <path class="cls-40" d="m1780.304,1023.4197l-4.1101,8.8481c-.3392.7303-.0209,1.5982.7107,1.9383l18.9655,8.7623c1.502.6976,2.9827-.9947,2.0908-2.3882l-6.5587-13.0521s-5.9717,2.3237-11.0982-4.1084Z"/>
        <path class="cls-53" d="m1769.1827,1004.9816l14.1257,9.8574-5.7771,13.9741h15.4786l-3.539-83.6824-26.0647-35.7523h-46.5475s-13.9967,48.4588,49.6249,61.4782l2.6991,34.125Z"/>
        <path class="cls-39" d="m1792.166,831.3171l-10.7498-23.828,6.8374-2.2284c14.7627-1.8595,28.071-10.1044,30.1038-12.6694,4.3121-5.4412-15.7609-37.1976-15.7609-37.1976l12.8202-3.8902s33.9115,37.4316,22.3953,52.4255c-11.5163,14.9941-42.099,26.7158-42.099,26.7158l-3.547.6723Z"/>
        <path class="cls-40" d="m1813.5667,1017.1118l-3.1376,9.2369c-.2592.763.1502,1.5922.9141,1.8517l21.6624,7.3583c1.5677.5325,2.8589-1.3082,1.8225-2.5985l-9.2409-11.7649s-6.2339,1.762-12.0205-4.0835Z"/>
        <path class="cls-53" d="m1811.0217,925.6126s23.8151,9.6938,23.3251,54.7801l-5.0214,43.8009s-17.9609-5.9613-16.8613-5.9613-9.9821-59.8221-9.9821-59.8221l-9.4721-26.2798,18.0118-6.5178Z"/>
        <path class="cls-39" d="m1727.9673,833.4836c-16.526,7.4272-54.4039,57.7301-66.6578,74.4133l-.3214.7138-2.244,8.3689c-1.9997,6.76-3.7185,14.0835-4.3522,14.2842-.8887.2813-1.4257-.3179-2.1138-8.5724-.0444-.536-.6666-.8139-1.0904-.483-3.2865,2.5646-13.6784,10.5679-14.5227,9.8807-1.0043-.8175,8.1068-8.1949,7.7048-9.3267-.4019-1.1318-9.1062,6.2892-10.0386,5.2431-.9323-1.0464,7.232-7.5464,6.9929-8.1242-.2391-.5779-8.7291,4.8142-9.6467,4.5272-.918-.2874,7.4423-7.1453,7.3514-7.9283-.0911-.783-7.4389,2.0324-7.7542,1.4305-.3158-.6018-1.637.7656,13.0813-10.3073,0,0,3.7595-2.6782,5.2649-3.6149l2.1496-4.5459c14.5654-40.2958,66.9082-86.9446,66.9082-86.9446l9.2887,20.9856Z"/>
        <path class="cls-39" d="m1772.2163,925.6126l-2.0794,18.4491,1.1505,1.4453c7.4776,9.3928,19.2673,14.2693,31.1946,12.9032h0l-4.2768-31.5456-25.9889-1.252Z"/>
        <path class="cls-29" d="m1800.927,946.938l-2.7214-20.0734-25.9893-1.252-1.1488,10.1932c4.7402,4.0652,14.3194,10.1632,29.8595,11.1322Z"/>
        <path class="cls-35" d="m1741.0352,811.8147s-25.4834-5.0899-35.3456,6.786c-8.9417,10.7677-21.4857,21.7731-20.6421,21.4905.8439-.2831,17.8145,18.6619,17.8145,18.6619l14.9861-14.9865-4.5241,67.581h83.5635l-11.6918-76.8118s4.1919-.3828,16.5312-3.7761l-8.8049-28.7006s-23.3278,8.059-34.6384,8.9073c-11.3107.8483-17.2484.8483-17.2484.8483Z"/>
        <path class="cls-29" d="m1819.2057,890.4255c-.6031,4.5712,1.8774,8.6665,5.5397,9.1477,3.6628.4807,7.121-2.835,7.7237-7.4058.6031-4.5712-1.8769-8.6668-5.5398-9.1476-3.6623-.4812-7.1204,2.8345-7.7236,7.4057Z"/>
        <path class="cls-39" d="m1824.3552,914.8968c.5627-2.0507.9381-4.1684,1.1162-6.3284.5875-5.831.108-11.7336-.7033-16.7781-.1742-1.0831-.2852-2.1726-.3759-3.2656-.3662-4.4128-1.5546-8.8807-3.7533-13.2216-7.0744-13.9641-22.7952-21.767-38.2106-18.9307-20.768,3.8214-33.3994,24.2814-28.1942,44.1332-2.4762-.6337-4.9767-.2757-6.864,1.2367-3.6211,2.9016-3.6123,8.9168.0196,13.4358,3.6314,4.5185,9.5112,5.8294,13.1323,2.9277.5029-.4028.9284-.8705,1.2916-1.3813,6.1533,16.4402,23.4357,25.8526,39.99,21.2286,8.0959-2.2614,14.5933-7.4862,18.7416-14.2483.2896-.4068.5831-.8714.8814-1.4001,1.3087-2.3207,2.2546-4.8221,2.9286-7.4079Z"/>
        <path class="cls-38" d="m1787.5116,896.9132c.4638,1.6558-.5047,3.3737-2.1635,3.8371-1.6583.4629-3.3789-.5039-3.8426-2.1596-.4633-1.6557.5051-3.3736,2.1634-3.8366,1.6587-.4633,3.3789.5035,3.8427,2.1591Z"/>
        <path class="cls-38" d="m1813.8192,891.3405c.4652,1.6609-.5064,3.384-2.1699,3.8487-1.664.4646-3.3894-.5047-3.8544-2.1661-.4655-1.6609.5064-3.384,2.17-3.8487,1.6635-.4647,3.3893.5051,3.8543,2.1661Z"/>
        <path class="cls-40" d="m1789.4709,889.9552c-1.6392-.1929-3.1791-.2879-4.6815-.2234-1.4984.0614-2.9377.3097-4.296.7665-1.3464.4711-2.676,1.0647-3.8753,1.9574l-.4742.307c-.1573.1054-.2887.2413-.4429.3541l-.908.7189c-.607.4939-1.1449,1.0687-1.8259,1.576.256-.7751.5709-1.5507.971-2.2827.476-.6733.881-1.4419,1.5164-2.0145,1.134-1.2804,2.6908-2.2005,4.3357-2.7601,1.6574-.5553,3.4446-.6728,5.1199-.3871,1.6687.3039,3.2774.9219,4.5608,1.9879Z"/>
        <path class="cls-40" d="m1801.7269,887.1947c.7012-1.5128,1.8887-2.7605,3.2653-3.7503,1.3908-.9763,3.0553-1.6361,4.791-1.8452,1.7259-.1994,3.5274-.0357,5.1017.6346.82.2447,1.5164.7651,2.2353,1.1692.6763.4894,1.2938,1.0556,1.8582,1.6457-.8335-.1659-1.566-.4547-2.3268-.6407l-1.1287-.2599c-.1878-.0362-.3654-.1023-.5522-.1303l-.5601-.074c-1.4671-.2926-2.9224-.2582-4.3416-.1067-1.4232.1695-2.8294.5618-4.2094,1.1493-1.3844.5857-2.7348,1.3317-4.1327,2.2083Z"/>
        <path class="cls-29" d="m1796.9005,887.9106c-.0801,2.2537.2086,4.492.7599,6.6929.2792,1.1044.6445,2.1883,1.1406,3.2608.516,1.0591,1.1305,2.126,2.1825,3.0153l.436.3035.3871.257c.1663.1253.3854.2072.5178.3562.3218.2525.5656.5596.7298.9023.3759.6789.2792,1.572-.03,2.4387-.6993,1.7715-2.4552,3.1707-4.4088,4.2411,2.2031-.2356,4.5891-1.2589,5.9082-3.5026.6462-1.0869.9419-2.5871.4041-3.9554-.1324-.3379-.2922-.6636-.5165-.9437-.1951-.3083-.452-.5439-.7081-.7843-.2486-.2569-.5534-.398-.8326-.5962-.1729-.1049-.2073-.1462-.2974-.2098l-.2431-.1707c-.6532-.5313-1.2189-1.3879-1.7275-2.2706-.5317-.8854-.9166-1.8866-1.3604-2.865-.8161-1.9972-1.5481-4.0674-2.3416-6.1695Z"/>
        <path class="cls-40" d="m1816.5885,840.2836c-7.4345-3.1123-20.6831-5.0541-33.6729-3.5186,2.7309-2.4839,4.3451-4.3874,3.5051-4.8456-6.8274-3.722-25.3405,10.8239-31.2133,15.6811-1.4371-1.4488-6.3349-5.8367-10.4028-2.9442-4.8246,3.4307,5.6038,6.2988,5.6038,6.2988,0,0-6.9202,1.7567-8.0415,5.7182-.8288,2.9282,3.4006,1.8264,5.6638,1.0526-.7011.3379-1.647,1.012-2.6102,2.0715l-.0005-.0004s-8.6386,9.3006-7.0961,13.7842c.3723,1.0826,1.3439,1.0487,2.6029.3772-.5052,4.94-1.1942,14.2571.6736,15.2103,1.0691.5453,1.9375-.118,2.5867-1.0721,2.2893,7.1196,5.0808,12.574,5.0808,12.574,8.2453-2.5432,16.5577,5.568,16.5577,5.568-3.4925-11.039,1.8804-33.5693,1.8804-33.5693,0,0,34.0632,9.0013,27.4365.2661,0,0,39.5214,7.4937,29.0455-9.5792,0,0,14.2302-2.9991-4.6765-14.8677,0,0,10.3799-2.635-2.923-8.2049Z"/>
        <path class="cls-10" d="m1793.0099,916.0804c1.2403,3.0588,5.292,4.9461,9.767,4.3339,4.4754-.6123,7.8717-3.5182,8.2448-6.7979l-18.0118,2.464Z"/>
        <path class="cls-53" d="m1760.5454,932.1304c2.1209,0,28.6815,7.2311,29.4968,26.5067.8151,19.2751-34.162-7.8439-34.162-7.8439l4.6652-18.6628Z"/>
        <path class="cls-39" d="m1798.5375,968.7664c1.0608-3.4852,6.3623-11.7845,16.7541-13.4812,8.7949-1.4357,21.1264,14.5951,24.7086,19.5556-1.6613.8396-3.2799,1.7145-4.8834,2.636-1.8552,1.0643-3.6767,2.186-5.4705,3.3527-1.7968,1.1619-3.5561,2.3838-5.2772,3.6602-.8965.6524-1.7723,1.3335-2.6372,2.0293-5.761-4.0456-12.1389-7.4963-15.5596-5.9778-7.2103,3.1999-8.6948-8.2902-7.6348-11.7748Z"/>
        <path class="cls-47" d="m1812.4641,983.1293l24.4199-19.2904s94.3102,94.6861,65.8073,125.4456c-28.5025,30.7601-90.2272-106.1552-90.2272-106.1552Z"/>
        <path class="cls-39" d="m1743.3671,794.7074l-2.3319,17.1073s12.7382,8.8441,20.5071-1.2333l-1.2795-17.7122-16.8957,1.8382Z"/>
        <path class="cls-40" d="m1784.0726,1013.6981c-1.6422-1.3848-3.3017-2.7492-5.035-4.0098-1.7214-1.2769-3.4807-2.4993-5.2776-3.6607-1.7932-1.1666-3.6153-2.288-5.47-3.3527-1.8586-1.0679-3.7238-2.0847-5.6699-3.0415l-.5213-.256-.4141.3719c-1.4445,1.2964-2.5236,2.6786-3.6507,4.0778-1.1157,1.3957-2.176,2.8206-3.2299,4.2498-2.1016,2.862-4.1392,5.7615-6.1559,8.6739-3.9903,5.8542-7.8839,11.7667-11.7449,17.6987-1.3682,2.1068-2.7269,4.219-4.0869,6.3311.3749-2.0734.6427-4.1515.8583-6.2322.2743-2.5323.4381-5.0694.5775-7.6083.1036-2.5401.1859-5.0816.1568-7.6282-.0175-2.5463-.1011-5.0956-.3724-7.654-.5174,2.5205-.8466,5.0498-1.1096,7.5821-.2748,2.5323-.4385,5.0699-.58,7.6083-.1063,2.5401-.1887,5.0815-.1598,7.6282.0148,2.2671.0914,4.5373.3,6.8144-2.3603,3.6694-4.708,7.3474-7.0151,11.0507-3.7526,6-7.5024,12.0009-11.1584,18.0606l11.768-17.6656,11.832-17.6164c3.9681-5.8537,7.9675-11.6865,12.0557-17.4497,2.0293-2.8911,4.0779-5.7687,6.1817-8.5963,1.0538-1.411,2.1155-2.818,3.2168-4.1789.9659-1.1949,1.9727-2.4138,3.0236-3.4167,1.6813.8566,3.3614,1.7785,5.0049,2.7374,1.8208,1.0595,3.6089,2.1757,5.3664,3.3345,1.7611,1.1544,3.4826,2.3659,5.163,3.6283,1.5221,1.1219,2.9753,2.3251,4.4128,3.5445-2.9517,8.6672-5.9792,17.321-9.0967,25.9361-3.1721,8.8272-6.5065,17.593-9.8306,26.3617-3.3549,8.7567-6.8261,17.4706-10.5851,26.0577-1.8617,4.3013-3.7882,8.5759-5.8816,12.7683-1.0538,2.092-2.1408,4.1683-3.317,6.1942-1.1571,2.0372-2.4217,4.0125-3.8649,5.865,3.0327-3.5935,5.3934-7.7018,7.6344-11.8236,2.2288-4.1389,4.2916-8.3634,6.29-12.6162,3.9371-8.5333,7.5734-17.1984,11.1004-25.904,3.5478-8.6983,6.8235-17.502,10.0908-26.3056,3.2435-8.8145,6.4243-17.646,9.4709-26.5376l.2094-.6114-.486-.4098Z"/>
        <path class="cls-39" d="m1804.8689,993.964c-1.0604-3.4847-6.3619-11.7841-16.7538-13.4807-8.7953-1.4362-21.1263,14.5946-24.7089,19.5556,1.6612.8396,3.28,1.7145,4.8838,2.636,1.8547,1.0647,3.6768,2.1861,5.47,3.3527,1.7969,1.1614,3.5562,2.3838,5.2776,3.6607.8962.6518,1.772,1.3329,2.6369,2.0289,5.7613-4.0461,12.1394-7.4964,15.56-5.9783,7.2102,3.2003,8.6948-8.2898,7.6344-11.7749Z"/>
        <path class="cls-40" d="m1902.6913,1089.2845c-1.0909,1.1271-2.228,2.2597-3.628,3.0271l-.5082.3126c-.1777.0888-.3619.1642-.5431.2465-.367.1533-.7246.3358-1.1013.4642-.7668.2195-1.5315.4642-2.3324.5331-.7899.1563-1.5956.094-2.396.1084-.793-.0945-1.5995-.1341-2.3742-.3423-1.5769-.3031-3.0676-.9066-4.5282-1.5468-2.8893-1.3661-5.5257-3.1921-7.9853-5.1974-2.4626-2.0072-4.7633-4.1981-6.9646-6.477-8.7675-9.1759-16.0034-19.6256-22.8313-30.2379-3.3945-5.3271-6.6793-10.7222-9.81-16.205-3.1241-5.4865-6.1511-11.0254-9.0954-16.6069-2.9377-5.585-5.8188-11.1996-8.5845-16.8709-2.7475-5.6812-5.4318-11.3869-7.9981-17.1586l-.1593-.358.3048-.2365c4.0952-3.1829,8.2079-6.344,12.3376-9.483,4.123-3.148,8.2413-6.3023,12.3902-9.4172-3.9912,3.3149-8.0128,6.591-12.0297,9.8732-4.0103,3.2909-8.0376,6.5596-12.0819,9.8074l.145-.5944c2.6712,5.6956,5.4691,11.3433,8.3237,16.9549,2.8402,5.6203,5.7222,11.2187,8.6996,16.7663,2.9748,5.5489,6.0305,11.0529,9.1808,16.5007,3.1546,5.4444,6.3414,10.8708,9.7011,16.1884,3.354,5.3195,6.8301,10.5639,10.529,15.6425,3.7037,5.0715,7.5412,10.0547,11.7967,14.6629,4.262,4.5687,8.912,8.9082,14.4326,11.8281,1.3992.6681,2.8319,1.3047,4.3465,1.6465.746.2278,1.5198.2884,2.2871.4072.7708.01,1.5525.0984,2.3198-.0292,3.1255-.239,5.9574-1.984,8.157-4.2089Z"/>
        <g>
          <path class="cls-10" d="m1686.9113,1573.9924h65.3506c1.5744,0,2.8526,1.2782,2.8526,2.8526v1.4473c0,1.5743-1.2781,2.8524-2.8524,2.8524h-65.3511c-1.574,0-2.8519-1.2779-2.8519-2.8519v-1.4481c0-1.5742,1.278-2.8522,2.8522-2.8522Z" transform="translate(49.6864 -52.5032) rotate(1.7749)"/>
          <path class="cls-6" d="m1688.1115,1551.2813l-2.9691,19.8056c-.3662,2.4422.9362,4.7101,2.737,4.7667l62.5847,1.9388c1.6253.0505,3.264-.9136,4.1767-2.7949.9363-1.9291,1.2024-4.8695-1.4762-8.9169-5.302-8.011-23.3308-10.5446-32.2276-17.4208-.1821-.1411-.3985-.2204-.6284-.2283l-28.7995-.8918c-1.6283-.0505-3.0667,1.5338-3.3976,3.7416Z"/>
          <path class="cls-10" d="m1715.878,1559.849h0c-.4437-.2919-.5853-1.0591-.3052-1.6313,1.3129-2.6853,5.3594-9.1973,13.1323-7.5931.4494.0932.7367.702.6405,1.3186l-.003.0192c-.0932.5967-.5117.9763-.9467.8884-6.9668-1.4127-10.4137,4.3304-11.4784,6.5827-.2273.4807-.6702.6585-1.0395.4155Z"/>
          <path class="cls-10" d="m1722.2987,1562.609h0c-.4437-.2926-.5853-1.0591-.3057-1.6313,1.313-2.6851,5.3595-9.1973,13.1327-7.593.449.0932.7364.702.6406,1.3178l-.0031.02c-.0932.5966-.5121.9764-.9467.8883-6.9667-1.4126-10.4136,4.3314-11.4787,6.5828-.2269.4808-.6703.6584-1.0391.4154Z"/>
          <path class="cls-10" d="m1728.27,1565.1835h0c-.4438-.2917-.5858-1.0591-.3057-1.6313,1.313-2.6851,5.3594-9.1964,13.1327-7.5921.449.0924.7364.7012.6406,1.3178l-.0031.02c-.0932.5957-.5121.9755-.9467.8876-6.9667-1.4119-10.414,4.3312-11.4783,6.5826-.2274.4808-.6707.6585-1.0395.4154Z"/>
        </g>
        <g>
          <path class="cls-10" d="m1817.3207,1573.9924h65.351c1.5743,0,2.8524,1.2781,2.8524,2.8524v1.4473c0,1.5743-1.2782,2.8525-2.8525,2.8525h-65.3505c-1.5743,0-2.8524-1.2781-2.8524-2.8524v-1.4478c0-1.5741,1.2779-2.852,2.852-2.852Z" transform="translate(49.7489 -56.5423) rotate(1.7749)"/>
          <path class="cls-37" d="m1818.5211,1551.2813l-2.9691,19.8056c-.3662,2.4422.9363,4.7101,2.7371,4.7667l62.5847,1.9388c1.6252.0505,3.264-.9136,4.1767-2.7949.9362-1.9291,1.2028-4.8695-1.4763-8.9169-5.3024-8.011-23.3307-10.5446-32.2276-17.4208-.182-.1411-.3984-.2204-.6284-.2283l-28.7994-.8918c-1.6283-.0505-3.0667,1.5338-3.3977,3.7416Z"/>
          <path class="cls-10" d="m1846.2881,1559.849h0c-.4442-.2919-.5857-1.0591-.3057-1.6313,1.313-2.6853,5.3594-9.1973,13.1327-7.5931.449.0932.7364.702.6402,1.3186l-.0031.0192c-.0932.5967-.5117.9763-.9467.8884-6.9668-1.4127-10.4136,4.3304-11.4784,6.5827-.2269.4807-.6701.6585-1.039.4155Z"/>
          <path class="cls-10" d="m1852.7083,1562.609h0c-.4437-.2926-.5852-1.0591-.3056-1.6313,1.3129-2.6851,5.3598-9.1973,13.1327-7.593.449.0932.7363.702.6406,1.3178l-.0031.02c-.0932.5966-.5121.9764-.9467.8883-6.9668-1.4126-10.4136,4.3314-11.4788,6.5828-.2268.4808-.6702.6584-1.0391.4154Z"/>
          <path class="cls-10" d="m1858.6796,1565.1835h0c-.4437-.2917-.5852-1.0591-.3056-1.6313,1.3129-2.6851,5.3598-9.1964,13.1327-7.5921.449.0924.7363.7012.6405,1.3178l-.003.02c-.0932.5957-.5121.9755-.9467.8876-6.9668-1.4119-10.4136,4.3312-11.4783,6.5826-.2274.4808-.6707.6585-1.0396.4154Z"/>
        </g>
      </g>
    </g>
  </g>
</svg>